<svg xmlns="http://www.w3.org/2000/svg" width="1200" height="980" viewBox="0 0 1200 980">
<rect width="100%" height="100%" fill="#fffaf2"/>
<rect x="24" y="20" width="1152" height="940" rx="26" fill="#fffdf9" stroke="#e7d7bf"/>
<text x="56.0" y="70.0" fill="#1f2a2e" font-size="32" font-family="Pretendard, Noto Sans KR, sans-serif" text-anchor="start">학생생활관 · 2026-03-03 시간대별 검증</text>
<text x="56.0" y="100.0" fill="#6e6a63" font-size="15" font-family="Pretendard, Noto Sans KR, sans-serif" text-anchor="start">파란선은 실제값입니다. 첫 번째 패널에서는 5분 후 후보 방식들을 함께 비교하였습니다.</text>
<text x="56.0" y="144.0" fill="#14532d" font-size="22" font-family="Pretendard, Noto Sans KR, sans-serif" text-anchor="start">5분 후 비교</text>
<line x1="56" y1="390.0" x2="1128" y2="390.0" stroke="#eee1cf" stroke-width="1"/>
<text x="42.0" y="394.0" fill="#6e6a63" font-size="12" font-family="Pretendard, Noto Sans KR, sans-serif" text-anchor="end">-8.7</text>
<line x1="56" y1="332.5" x2="1128" y2="332.5" stroke="#eee1cf" stroke-width="1"/>
<text x="42.0" y="336.5" fill="#6e6a63" font-size="12" font-family="Pretendard, Noto Sans KR, sans-serif" text-anchor="end">97.0</text>
<line x1="56" y1="275.0" x2="1128" y2="275.0" stroke="#eee1cf" stroke-width="1"/>
<text x="42.0" y="279.0" fill="#6e6a63" font-size="12" font-family="Pretendard, Noto Sans KR, sans-serif" text-anchor="end">202.7</text>
<line x1="56" y1="217.5" x2="1128" y2="217.5" stroke="#eee1cf" stroke-width="1"/>
<text x="42.0" y="221.5" fill="#6e6a63" font-size="12" font-family="Pretendard, Noto Sans KR, sans-serif" text-anchor="end">308.3</text>
<line x1="56" y1="160.0" x2="1128" y2="160.0" stroke="#eee1cf" stroke-width="1"/>
<text x="42.0" y="164.0" fill="#6e6a63" font-size="12" font-family="Pretendard, Noto Sans KR, sans-serif" text-anchor="end">414.0</text>
<line x1="56" y1="390" x2="1128" y2="390" stroke="#d7c6ad" stroke-width="1.2"/>
<path d="M 56.0 344.5 L 66.7 315.1 L 77.4 291.7 L 88.2 285.7 L 98.9 262.3 L 109.6 261.2 L 120.3 263.4 L 131.0 266.7 L 141.8 273.2 L 152.5 289.0 L 163.2 317.3 L 173.9 337.4 L 184.6 354.8 L 195.4 366.8 L 206.1 380.4 L 216.8 385.3 L 227.5 385.3 L 238.2 385.3 L 249.0 385.3 L 259.7 385.3 L 270.4 385.3 L 281.1 385.3 L 291.8 385.3 L 302.6 385.3 L 313.3 385.3 L 324.0 385.3 L 334.7 385.3 L 345.4 385.3 L 356.2 385.3 L 366.9 385.3 L 377.6 385.3 L 388.3 385.3 L 399.0 385.3 L 409.8 385.3 L 420.5 385.3 L 431.2 385.3 L 441.9 385.3 L 452.6 385.3 L 463.4 385.3 L 474.1 385.3 L 484.8 315.6 L 495.5 258.5 L 506.2 189.9 L 517.0 160.0 L 527.7 191.6 L 538.4 192.7 L 549.1 185.0 L 559.8 183.9 L 570.6 178.5 L 581.3 187.8 L 592.0 233.5 L 602.7 262.9 L 613.4 290.6 L 624.2 307.5 L 634.9 306.9 L 645.6 322.7 L 656.3 323.3 L 667.0 329.2 L 677.8 333.6 L 688.5 330.9 L 699.2 337.9 L 709.9 340.7 L 720.6 347.7 L 731.4 362.4 L 742.1 370.6 L 752.8 377.1 L 763.5 382.6 L 774.2 384.2 L 785.0 385.3 L 795.7 385.3 L 806.4 385.3 L 817.1 385.3 L 827.8 385.3 L 838.6 385.3 L 849.3 385.3 L 860.0 385.3 L 870.7 385.3 L 881.4 385.3 L 892.2 385.3 L 902.9 385.3 L 913.6 385.3 L 924.3 385.3 L 935.0 385.3 L 945.8 385.3 L 956.5 385.3 L 967.2 298.2 L 977.9 283.5 L 988.6 285.7 L 999.4 267.2 L 1010.1 256.3 L 1020.8 234.0 L 1031.5 243.8 L 1042.2 242.2 L 1053.0 229.1 L 1063.7 238.4 L 1074.4 283.5 L 1085.1 304.8 L 1095.8 305.3 L 1106.6 310.2 L 1117.3 343.4 L 1128.0 353.2" fill="none" stroke="#1f6feb" stroke-width="3" stroke-linejoin="round" stroke-linecap="round"/>
<path d="M 56.0 385.3 L 66.7 344.5 L 77.4 315.1 L 88.2 291.7 L 98.9 248.2 L 109.6 262.3 L 120.3 261.2 L 131.0 263.4 L 141.8 266.7 L 152.5 273.2 L 163.2 289.0 L 173.9 317.3 L 184.6 337.4 L 195.4 354.8 L 206.1 366.8 L 216.8 380.4 L 227.5 385.3 L 238.2 385.3 L 249.0 385.3 L 259.7 385.3 L 270.4 385.3 L 281.1 385.3 L 291.8 385.3 L 302.6 385.3 L 313.3 385.3 L 324.0 385.3 L 334.7 385.3 L 345.4 385.3 L 356.2 385.3 L 366.9 385.3 L 377.6 385.3 L 388.3 385.3 L 399.0 385.3 L 409.8 385.3 L 420.5 385.3 L 431.2 385.3 L 441.9 385.3 L 452.6 385.3 L 463.4 385.3 L 474.1 385.3 L 484.8 385.3 L 495.5 315.6 L 506.2 258.5 L 517.0 189.9 L 527.7 160.0 L 538.4 191.6 L 549.1 192.7 L 559.8 185.0 L 570.6 183.9 L 581.3 178.5 L 592.0 187.8 L 602.7 233.5 L 613.4 262.9 L 624.2 290.6 L 634.9 307.5 L 645.6 306.9 L 656.3 322.7 L 667.0 323.3 L 677.8 329.2 L 688.5 333.6 L 699.2 330.9 L 709.9 337.9 L 720.6 340.7 L 731.4 347.7 L 742.1 362.4 L 752.8 370.6 L 763.5 377.1 L 774.2 382.6 L 785.0 384.2 L 795.7 385.3 L 806.4 385.3 L 817.1 385.3 L 827.8 385.3 L 838.6 385.3 L 849.3 385.3 L 860.0 385.3 L 870.7 385.3 L 881.4 385.3 L 892.2 385.3 L 902.9 385.3 L 913.6 385.3 L 924.3 385.3 L 935.0 385.3 L 945.8 385.3 L 956.5 385.3 L 967.2 341.8 L 977.9 271.6 L 988.6 283.5 L 999.4 285.7 L 1010.1 267.2 L 1020.8 217.7 L 1031.5 234.0 L 1042.2 243.8 L 1053.0 242.2 L 1063.7 229.1 L 1074.4 265.0 L 1085.1 283.5 L 1095.8 304.8 L 1106.6 305.3 L 1117.3 327.6 L 1128.0 343.4" fill="none" stroke="#d97706" stroke-width="3" stroke-dasharray="8 6" stroke-linejoin="round" stroke-linecap="round"/>
<path d="M 56.0 385.3 L 66.7 344.5 L 77.4 315.1 L 88.2 291.7 L 98.9 248.2 L 109.6 262.3 L 120.3 261.2 L 131.0 264.4 L 141.8 267.8 L 152.5 276.7 L 163.2 288.4 L 173.9 316.6 L 184.6 346.5 L 195.4 362.6 L 206.1 373.3 L 216.8 386.5 L 227.5 385.4 L 238.2 385.3 L 249.0 385.3 L 259.7 385.3 L 270.4 385.3 L 281.1 385.3 L 291.8 385.3 L 302.6 385.3 L 313.3 385.3 L 324.0 385.3 L 334.7 385.3 L 345.4 385.3 L 356.2 385.3 L 366.9 385.3 L 377.6 385.3 L 388.3 385.3 L 399.0 385.3 L 409.8 385.3 L 420.5 385.3 L 431.2 385.3 L 441.9 385.3 L 452.6 385.3 L 463.4 385.3 L 474.1 385.3 L 484.8 385.3 L 495.5 315.6 L 506.2 258.5 L 517.0 189.9 L 527.7 165.9 L 538.4 196.2 L 549.1 182.9 L 559.8 186.7 L 570.6 186.5 L 581.3 195.4 L 592.0 196.2 L 602.7 247.2 L 613.4 272.3 L 624.2 293.1 L 634.9 308.9 L 645.6 317.2 L 656.3 319.0 L 667.0 330.9 L 677.8 327.0 L 688.5 339.3 L 699.2 326.0 L 709.9 340.3 L 720.6 338.5 L 731.4 357.8 L 742.1 375.8 L 752.8 380.9 L 763.5 384.7 L 774.2 390.0 L 785.0 384.3 L 795.7 385.3 L 806.4 385.3 L 817.1 385.3 L 827.8 385.3 L 838.6 385.3 L 849.3 385.3 L 860.0 385.3 L 870.7 385.3 L 881.4 385.3 L 892.2 385.3 L 902.9 385.3 L 913.6 385.3 L 924.3 385.3 L 935.0 385.3 L 945.8 385.3 L 956.5 385.3 L 967.2 341.8 L 977.9 271.6 L 988.6 283.5 L 999.4 285.7 L 1010.1 267.2 L 1020.8 217.7 L 1031.5 234.0 L 1042.2 243.8 L 1053.0 242.2 L 1063.7 247.8 L 1074.4 268.8 L 1085.1 289.2 L 1095.8 308.9 L 1106.6 312.3 L 1117.3 328.7 L 1128.0 348.4" fill="none" stroke="#15803d" stroke-width="3" stroke-dasharray="8 6" stroke-linejoin="round" stroke-linecap="round"/>
<path d="M 56.0 385.3 L 66.7 344.5 L 77.4 315.1 L 88.2 291.7 L 98.9 248.2 L 109.6 262.3 L 120.3 261.2 L 131.0 263.4 L 141.8 266.7 L 152.5 273.2 L 163.2 289.0 L 173.9 317.3 L 184.6 337.4 L 195.4 354.8 L 206.1 366.8 L 216.8 380.4 L 227.5 385.3 L 238.2 385.3 L 249.0 385.3 L 259.7 385.3 L 270.4 385.3 L 281.1 385.3 L 291.8 385.3 L 302.6 385.3 L 313.3 385.3 L 324.0 385.3 L 334.7 385.3 L 345.4 385.3 L 356.2 385.3 L 366.9 385.3 L 377.6 385.3 L 388.3 385.3 L 399.0 385.3 L 409.8 385.3 L 420.5 385.3 L 431.2 385.3 L 441.9 385.3 L 452.6 385.3 L 463.4 385.3 L 474.1 385.3 L 484.8 385.3 L 495.5 315.6 L 506.2 258.5 L 517.0 189.9 L 527.7 160.0 L 538.4 191.6 L 549.1 192.7 L 559.8 185.0 L 570.6 183.9 L 581.3 178.5 L 592.0 187.8 L 602.7 233.5 L 613.4 262.9 L 624.2 290.6 L 634.9 307.5 L 645.6 306.9 L 656.3 322.7 L 667.0 323.3 L 677.8 329.2 L 688.5 333.6 L 699.2 330.9 L 709.9 337.9 L 720.6 340.7 L 731.4 347.7 L 742.1 362.4 L 752.8 370.6 L 763.5 377.1 L 774.2 382.6 L 785.0 384.2 L 795.7 385.3 L 806.4 385.3 L 817.1 385.3 L 827.8 385.3 L 838.6 385.3 L 849.3 385.3 L 860.0 385.3 L 870.7 385.3 L 881.4 385.3 L 892.2 385.3 L 902.9 385.3 L 913.6 385.3 L 924.3 385.3 L 935.0 385.3 L 945.8 385.3 L 956.5 385.3 L 967.2 341.8 L 977.9 271.6 L 988.6 283.5 L 999.4 285.7 L 1010.1 267.2 L 1020.8 217.7 L 1031.5 234.0 L 1042.2 243.8 L 1053.0 242.2 L 1063.7 229.1 L 1074.4 265.0 L 1085.1 283.5 L 1095.8 304.8 L 1106.6 305.3 L 1117.3 327.6 L 1128.0 343.4" fill="none" stroke="#7c3aed" stroke-width="3" stroke-dasharray="8 6" stroke-linejoin="round" stroke-linecap="round"/>
<circle cx="816" cy="148" r="5" fill="#1f6feb"/>
<text x="828.0" y="153.0" fill="#6e6a63" font-size="13" font-family="Pretendard, Noto Sans KR, sans-serif" text-anchor="start">실제값</text>
<circle cx="896" cy="148" r="5" fill="#d97706"/>
<text x="908.0" y="153.0" fill="#6e6a63" font-size="13" font-family="Pretendard, Noto Sans KR, sans-serif" text-anchor="start">현재값 유지</text>
<circle cx="1016" cy="148" r="5" fill="#15803d"/>
<text x="1028.0" y="153.0" fill="#6e6a63" font-size="13" font-family="Pretendard, Noto Sans KR, sans-serif" text-anchor="start">요일 피크 보정</text>
<circle cx="1136" cy="148" r="5" fill="#7c3aed"/>
<text x="1148.0" y="153.0" fill="#6e6a63" font-size="13" font-family="Pretendard, Noto Sans KR, sans-serif" text-anchor="start">메뉴 피크 보정</text>
<text x="56.0" y="412.0" fill="#6e6a63" font-size="11" font-family="Pretendard, Noto Sans KR, sans-serif" text-anchor="middle">07:35</text>
<text x="184.6" y="412.0" fill="#6e6a63" font-size="11" font-family="Pretendard, Noto Sans KR, sans-serif" text-anchor="middle">09:05</text>
<text x="313.3" y="412.0" fill="#6e6a63" font-size="11" font-family="Pretendard, Noto Sans KR, sans-serif" text-anchor="middle">10:05</text>
<text x="441.9" y="412.0" fill="#6e6a63" font-size="11" font-family="Pretendard, Noto Sans KR, sans-serif" text-anchor="middle">11:15</text>
<text x="570.6" y="412.0" fill="#6e6a63" font-size="11" font-family="Pretendard, Noto Sans KR, sans-serif" text-anchor="middle">12:15</text>
<text x="699.2" y="412.0" fill="#6e6a63" font-size="11" font-family="Pretendard, Noto Sans KR, sans-serif" text-anchor="middle">13:15</text>
<text x="827.8" y="412.0" fill="#6e6a63" font-size="11" font-family="Pretendard, Noto Sans KR, sans-serif" text-anchor="middle">15:15</text>
<text x="956.5" y="412.0" fill="#6e6a63" font-size="11" font-family="Pretendard, Noto Sans KR, sans-serif" text-anchor="middle">16:55</text>
<text x="1085.1" y="412.0" fill="#6e6a63" font-size="11" font-family="Pretendard, Noto Sans KR, sans-serif" text-anchor="middle">18:55</text>
<text x="1128.0" y="412.0" fill="#6e6a63" font-size="11" font-family="Pretendard, Noto Sans KR, sans-serif" text-anchor="middle">19:25</text>
<text x="56.0" y="434.0" fill="#14532d" font-size="22" font-family="Pretendard, Noto Sans KR, sans-serif" text-anchor="start">30분 후 최종 규칙</text>
<line x1="56" y1="680.0" x2="1128" y2="680.0" stroke="#eee1cf" stroke-width="1"/>
<text x="42.0" y="684.0" fill="#6e6a63" font-size="12" font-family="Pretendard, Noto Sans KR, sans-serif" text-anchor="end">-12.4</text>
<line x1="56" y1="622.5" x2="1128" y2="622.5" stroke="#eee1cf" stroke-width="1"/>
<text x="42.0" y="626.5" fill="#6e6a63" font-size="12" font-family="Pretendard, Noto Sans KR, sans-serif" text-anchor="end">94.2</text>
<line x1="56" y1="565.0" x2="1128" y2="565.0" stroke="#eee1cf" stroke-width="1"/>
<text x="42.0" y="569.0" fill="#6e6a63" font-size="12" font-family="Pretendard, Noto Sans KR, sans-serif" text-anchor="end">200.8</text>
<line x1="56" y1="507.5" x2="1128" y2="507.5" stroke="#eee1cf" stroke-width="1"/>
<text x="42.0" y="511.5" fill="#6e6a63" font-size="12" font-family="Pretendard, Noto Sans KR, sans-serif" text-anchor="end">307.4</text>
<line x1="56" y1="450.0" x2="1128" y2="450.0" stroke="#eee1cf" stroke-width="1"/>
<text x="42.0" y="454.0" fill="#6e6a63" font-size="12" font-family="Pretendard, Noto Sans KR, sans-serif" text-anchor="end">414.0</text>
<line x1="56" y1="680" x2="1128" y2="680" stroke="#d7c6ad" stroke-width="1.2"/>
<path d="M 56.0 573.5 L 66.4 561.1 L 76.8 537.4 L 87.2 550.3 L 97.6 555.7 L 108.0 577.8 L 118.4 605.9 L 128.9 625.9 L 139.3 643.1 L 149.7 655.0 L 160.1 668.5 L 170.5 673.3 L 180.9 673.3 L 191.3 673.3 L 201.7 673.3 L 212.1 673.3 L 222.5 673.3 L 232.9 673.3 L 243.3 673.3 L 253.7 673.3 L 264.2 673.3 L 274.6 673.3 L 285.0 673.3 L 295.4 673.3 L 305.8 673.3 L 316.2 673.3 L 326.6 673.3 L 337.0 673.3 L 347.4 673.3 L 357.8 673.3 L 368.2 673.3 L 378.6 673.3 L 389.0 673.3 L 399.5 673.3 L 409.9 673.3 L 420.3 673.3 L 430.7 604.3 L 441.1 547.6 L 451.5 479.7 L 461.9 450.0 L 472.3 481.3 L 482.7 482.4 L 493.1 474.8 L 503.5 473.7 L 513.9 468.3 L 524.3 477.5 L 534.8 522.8 L 545.2 552.0 L 555.6 579.5 L 566.0 596.2 L 576.4 595.6 L 586.8 611.3 L 597.2 611.8 L 607.6 617.8 L 618.0 622.1 L 628.4 619.4 L 638.8 626.4 L 649.2 629.1 L 659.7 636.1 L 670.1 650.7 L 680.5 658.8 L 690.9 665.2 L 701.3 670.6 L 711.7 672.2 L 722.1 673.3 L 732.5 673.3 L 742.9 673.3 L 753.3 673.3 L 763.7 673.3 L 774.1 673.3 L 784.5 673.3 L 795.0 673.3 L 805.4 673.3 L 815.8 673.3 L 826.2 673.3 L 836.6 673.3 L 847.0 673.3 L 857.4 673.3 L 867.8 673.3 L 878.2 673.3 L 888.6 673.3 L 899.0 673.3 L 909.4 673.3 L 919.8 673.3 L 930.3 630.2 L 940.7 587.0 L 951.1 560.6 L 961.5 572.5 L 971.9 556.3 L 982.3 545.5 L 992.7 507.2 L 1003.1 523.4 L 1013.5 533.1 L 1023.9 531.5 L 1034.3 518.5 L 1044.7 518.5 L 1055.1 527.7 L 1065.6 535.8 L 1076.0 572.5 L 1086.4 593.5 L 1096.8 598.9 L 1107.2 616.1 L 1117.6 631.8 L 1128.0 641.5" fill="none" stroke="#1f6feb" stroke-width="3" stroke-linejoin="round" stroke-linecap="round"/>
<path d="M 56.0 655.7 L 66.4 620.9 L 76.8 603.1 L 87.2 592.4 L 97.6 585.2 L 108.0 578.6 L 118.4 589.0 L 128.9 589.2 L 139.3 600.8 L 149.7 609.9 L 160.1 619.5 L 170.5 632.9 L 180.9 650.1 L 191.3 662.5 L 201.7 667.4 L 212.1 669.9 L 222.5 674.1 L 232.9 673.4 L 243.3 673.3 L 253.7 673.3 L 264.2 673.3 L 274.6 673.3 L 285.0 673.3 L 295.4 673.3 L 305.8 673.3 L 316.2 673.3 L 326.6 673.3 L 337.0 673.3 L 347.4 673.3 L 357.8 673.3 L 368.2 673.3 L 378.6 673.3 L 389.0 673.3 L 399.5 673.3 L 409.9 673.3 L 420.3 672.1 L 430.7 631.8 L 441.1 599.5 L 451.5 575.4 L 461.9 554.9 L 472.3 560.8 L 482.7 566.1 L 493.1 539.2 L 503.5 526.2 L 513.9 502.5 L 524.3 513.7 L 534.8 537.4 L 545.2 548.8 L 555.6 559.5 L 566.0 560.4 L 576.4 557.1 L 586.8 562.8 L 597.2 581.3 L 607.6 598.2 L 618.0 606.8 L 628.4 621.0 L 638.8 615.0 L 649.2 620.6 L 659.7 620.9 L 670.1 629.8 L 680.5 647.0 L 690.9 652.2 L 701.3 666.8 L 711.7 674.4 L 722.1 680.0 L 732.5 679.7 L 742.9 677.5 L 753.3 676.2 L 763.7 673.3 L 774.1 673.3 L 784.5 673.3 L 795.0 673.3 L 805.4 673.3 L 815.8 673.3 L 826.2 673.3 L 836.6 673.3 L 847.0 673.3 L 857.4 673.3 L 867.8 673.3 L 878.2 673.3 L 888.6 673.3 L 899.0 673.3 L 909.4 673.3 L 919.8 673.3 L 930.3 654.1 L 940.7 627.4 L 951.1 603.5 L 961.5 614.6 L 971.9 586.0 L 982.3 565.7 L 992.7 540.0 L 1003.1 542.7 L 1013.5 545.8 L 1023.9 538.9 L 1034.3 535.8 L 1044.7 534.3 L 1055.1 561.2 L 1065.6 584.7 L 1076.0 589.2 L 1086.4 589.1 L 1096.8 594.7 L 1107.2 606.8 L 1117.6 616.6 L 1128.0 630.8" fill="none" stroke="#d97706" stroke-width="3" stroke-dasharray="8 6" stroke-linejoin="round" stroke-linecap="round"/>
<circle cx="976" cy="438" r="5" fill="#1f6feb"/>
<text x="988.0" y="443.0" fill="#6e6a63" font-size="13" font-family="Pretendard, Noto Sans KR, sans-serif" text-anchor="start">실제값</text>
<circle cx="1076" cy="438" r="5" fill="#d97706"/>
<text x="1088.0" y="443.0" fill="#6e6a63" font-size="13" font-family="Pretendard, Noto Sans KR, sans-serif" text-anchor="start">최종 예측값</text>
<text x="56.0" y="702.0" fill="#6e6a63" font-size="11" font-family="Pretendard, Noto Sans KR, sans-serif" text-anchor="middle">08:00</text>
<text x="191.3" y="702.0" fill="#6e6a63" font-size="11" font-family="Pretendard, Noto Sans KR, sans-serif" text-anchor="middle">09:30</text>
<text x="326.6" y="702.0" fill="#6e6a63" font-size="11" font-family="Pretendard, Noto Sans KR, sans-serif" text-anchor="middle">10:35</text>
<text x="461.9" y="702.0" fill="#6e6a63" font-size="11" font-family="Pretendard, Noto Sans KR, sans-serif" text-anchor="middle">11:50</text>
<text x="597.2" y="702.0" fill="#6e6a63" font-size="11" font-family="Pretendard, Noto Sans KR, sans-serif" text-anchor="middle">12:55</text>
<text x="732.5" y="702.0" fill="#6e6a63" font-size="11" font-family="Pretendard, Noto Sans KR, sans-serif" text-anchor="middle">14:05</text>
<text x="867.8" y="702.0" fill="#6e6a63" font-size="11" font-family="Pretendard, Noto Sans KR, sans-serif" text-anchor="middle">16:10</text>
<text x="1003.1" y="702.0" fill="#6e6a63" font-size="11" font-family="Pretendard, Noto Sans KR, sans-serif" text-anchor="middle">17:55</text>
<text x="1128.0" y="702.0" fill="#6e6a63" font-size="11" font-family="Pretendard, Noto Sans KR, sans-serif" text-anchor="middle">19:25</text>
<text x="56.0" y="724.0" fill="#14532d" font-size="22" font-family="Pretendard, Noto Sans KR, sans-serif" text-anchor="start">60분 후 최종 규칙</text>
<line x1="56" y1="950.0" x2="1128" y2="950.0" stroke="#eee1cf" stroke-width="1"/>
<text x="42.0" y="954.0" fill="#6e6a63" font-size="12" font-family="Pretendard, Noto Sans KR, sans-serif" text-anchor="end">-8.3</text>
<line x1="56" y1="897.5" x2="1128" y2="897.5" stroke="#eee1cf" stroke-width="1"/>
<text x="42.0" y="901.5" fill="#6e6a63" font-size="12" font-family="Pretendard, Noto Sans KR, sans-serif" text-anchor="end">88.8</text>
<line x1="56" y1="845.0" x2="1128" y2="845.0" stroke="#eee1cf" stroke-width="1"/>
<text x="42.0" y="849.0" fill="#6e6a63" font-size="12" font-family="Pretendard, Noto Sans KR, sans-serif" text-anchor="end">185.9</text>
<line x1="56" y1="792.5" x2="1128" y2="792.5" stroke="#eee1cf" stroke-width="1"/>
<text x="42.0" y="796.5" fill="#6e6a63" font-size="12" font-family="Pretendard, Noto Sans KR, sans-serif" text-anchor="end">282.9</text>
<line x1="56" y1="740.0" x2="1128" y2="740.0" stroke="#eee1cf" stroke-width="1"/>
<text x="42.0" y="744.0" fill="#6e6a63" font-size="12" font-family="Pretendard, Noto Sans KR, sans-serif" text-anchor="end">380.0</text>
<line x1="56" y1="950" x2="1128" y2="950" stroke="#d7c6ad" stroke-width="1.2"/>
<path d="M 56.0 822.2 L 66.8 824.4 L 77.7 827.6 L 88.5 834.1 L 99.3 849.8 L 110.1 897.9 L 121.0 927.1 L 131.8 945.5 L 142.6 945.5 L 153.5 945.5 L 164.3 945.5 L 175.1 945.5 L 185.9 945.5 L 196.8 945.5 L 207.6 945.5 L 218.4 945.5 L 229.3 945.5 L 240.1 945.5 L 250.9 945.5 L 261.7 945.5 L 272.6 945.5 L 283.4 945.5 L 294.2 945.5 L 305.1 945.5 L 315.9 945.5 L 326.7 945.5 L 337.5 945.5 L 348.4 945.5 L 359.2 945.5 L 370.0 945.5 L 380.8 945.5 L 391.7 945.5 L 402.5 945.5 L 413.3 876.3 L 424.2 819.5 L 435.0 751.4 L 445.8 753.0 L 456.6 754.1 L 467.5 746.5 L 478.3 745.4 L 489.1 740.0 L 500.0 749.2 L 510.8 794.6 L 521.6 823.8 L 532.4 851.4 L 543.3 868.2 L 554.1 867.6 L 564.9 883.3 L 575.8 883.9 L 586.6 889.8 L 597.4 894.2 L 608.2 891.4 L 619.1 898.5 L 629.9 901.2 L 640.7 908.2 L 651.6 922.8 L 662.4 930.9 L 673.2 937.4 L 684.0 942.8 L 694.9 944.5 L 705.7 945.5 L 716.5 945.5 L 727.4 945.5 L 738.2 945.5 L 749.0 945.5 L 759.8 945.5 L 770.7 945.5 L 781.5 945.5 L 792.3 945.5 L 803.2 945.5 L 814.0 945.5 L 824.8 945.5 L 835.6 945.5 L 846.5 945.5 L 857.3 945.5 L 868.1 945.5 L 878.9 945.5 L 889.8 945.5 L 900.6 945.5 L 911.4 945.5 L 922.3 945.5 L 933.1 902.3 L 943.9 859.0 L 954.7 832.5 L 965.6 846.6 L 976.4 828.2 L 987.2 817.3 L 998.1 778.9 L 1008.9 795.2 L 1019.7 803.3 L 1030.5 790.3 L 1041.4 790.3 L 1052.2 799.5 L 1063.0 807.6 L 1073.9 844.4 L 1084.7 865.5 L 1095.5 866.0 L 1106.3 870.9 L 1117.2 903.9 L 1128.0 913.6" fill="none" stroke="#1f6feb" stroke-width="3" stroke-linejoin="round" stroke-linecap="round"/>
<path d="M 56.0 913.8 L 66.8 899.0 L 77.7 891.0 L 88.5 885.2 L 99.3 887.0 L 110.1 883.2 L 121.0 895.9 L 131.8 901.0 L 142.6 908.4 L 153.5 909.0 L 164.3 910.7 L 175.1 911.5 L 185.9 913.7 L 196.8 918.5 L 207.6 930.0 L 218.4 938.3 L 229.3 941.6 L 240.1 943.2 L 250.9 946.1 L 261.7 945.6 L 272.6 945.5 L 283.4 945.5 L 294.2 945.5 L 305.1 945.5 L 315.9 945.5 L 326.7 945.5 L 337.5 945.5 L 348.4 945.5 L 359.2 945.5 L 370.0 945.5 L 380.8 945.5 L 391.7 945.5 L 402.5 944.3 L 413.3 903.9 L 424.2 871.5 L 435.0 847.3 L 445.8 832.7 L 456.6 837.3 L 467.5 827.6 L 478.3 829.2 L 489.1 831.8 L 500.0 848.6 L 510.8 857.0 L 521.6 871.2 L 532.4 869.1 L 543.3 861.8 L 554.1 845.7 L 564.9 852.2 L 575.8 858.8 L 586.6 865.0 L 597.4 863.6 L 608.2 868.2 L 619.1 860.1 L 629.9 859.5 L 640.7 872.1 L 651.6 888.3 L 662.4 908.8 L 673.2 924.7 L 684.0 931.5 L 694.9 941.0 L 705.7 942.8 L 716.5 944.8 L 727.4 941.4 L 738.2 946.2 L 749.0 950.0 L 759.8 949.8 L 770.7 947.5 L 781.5 945.5 L 792.3 945.5 L 803.2 945.5 L 814.0 945.5 L 824.8 945.5 L 835.6 945.5 L 846.5 945.5 L 857.3 945.5 L 868.1 945.5 L 878.9 945.5 L 889.8 945.5 L 900.6 945.5 L 911.4 945.5 L 922.3 945.5 L 933.1 926.2 L 943.9 899.5 L 954.7 875.5 L 965.6 881.4 L 976.4 872.3 L 987.2 861.9 L 998.1 837.7 L 1008.9 839.9 L 1019.7 827.7 L 1030.5 818.2 L 1041.4 824.2 L 1052.2 843.1 L 1063.0 859.4 L 1073.9 868.3 L 1084.7 879.5 L 1095.5 888.0 L 1106.3 894.8 L 1117.2 896.7 L 1128.0 897.9" fill="none" stroke="#d97706" stroke-width="3" stroke-dasharray="8 6" stroke-linejoin="round" stroke-linecap="round"/>
<circle cx="976" cy="728" r="5" fill="#1f6feb"/>
<text x="988.0" y="733.0" fill="#6e6a63" font-size="13" font-family="Pretendard, Noto Sans KR, sans-serif" text-anchor="start">실제값</text>
<circle cx="1076" cy="728" r="5" fill="#d97706"/>
<text x="1088.0" y="733.0" fill="#6e6a63" font-size="13" font-family="Pretendard, Noto Sans KR, sans-serif" text-anchor="start">최종 예측값</text>
<text x="56.0" y="972.0" fill="#6e6a63" font-size="11" font-family="Pretendard, Noto Sans KR, sans-serif" text-anchor="middle">08:30</text>
<text x="185.9" y="972.0" fill="#6e6a63" font-size="11" font-family="Pretendard, Noto Sans KR, sans-serif" text-anchor="middle">09:45</text>
<text x="315.9" y="972.0" fill="#6e6a63" font-size="11" font-family="Pretendard, Noto Sans KR, sans-serif" text-anchor="middle">10:45</text>
<text x="445.8" y="972.0" fill="#6e6a63" font-size="11" font-family="Pretendard, Noto Sans KR, sans-serif" text-anchor="middle">11:55</text>
<text x="575.8" y="972.0" fill="#6e6a63" font-size="11" font-family="Pretendard, Noto Sans KR, sans-serif" text-anchor="middle">12:55</text>
<text x="705.7" y="972.0" fill="#6e6a63" font-size="11" font-family="Pretendard, Noto Sans KR, sans-serif" text-anchor="middle">13:55</text>
<text x="835.6" y="972.0" fill="#6e6a63" font-size="11" font-family="Pretendard, Noto Sans KR, sans-serif" text-anchor="middle">16:00</text>
<text x="965.6" y="972.0" fill="#6e6a63" font-size="11" font-family="Pretendard, Noto Sans KR, sans-serif" text-anchor="middle">17:30</text>
<text x="1095.5" y="972.0" fill="#6e6a63" font-size="11" font-family="Pretendard, Noto Sans KR, sans-serif" text-anchor="middle">19:00</text>
<text x="1128.0" y="972.0" fill="#6e6a63" font-size="11" font-family="Pretendard, Noto Sans KR, sans-serif" text-anchor="middle">19:25</text>
</svg>