<svg xmlns="http://www.w3.org/2000/svg" width="1200" height="980" viewBox="0 0 1200 980">
<rect width="100%" height="100%" fill="#fffaf2"/>
<rect x="24" y="20" width="1152" height="940" rx="26" fill="#fffdf9" stroke="#e7d7bf"/>
<text x="56.0" y="70.0" fill="#1f2a2e" font-size="32" font-family="Pretendard, Noto Sans KR, sans-serif" text-anchor="start">생활과학대 · 2026-01-09 시간대별 검증</text>
<text x="56.0" y="100.0" fill="#6e6a63" font-size="15" font-family="Pretendard, Noto Sans KR, sans-serif" text-anchor="start">파란선은 실제값입니다. 첫 번째 패널에서는 5분 후 후보 방식들을 함께 비교하였습니다.</text>
<text x="56.0" y="144.0" fill="#14532d" font-size="22" font-family="Pretendard, Noto Sans KR, sans-serif" text-anchor="start">5분 후 비교</text>
<line x1="56" y1="390.0" x2="1128" y2="390.0" stroke="#eee1cf" stroke-width="1"/>
<text x="42.0" y="394.0" fill="#6e6a63" font-size="12" font-family="Pretendard, Noto Sans KR, sans-serif" text-anchor="end">10.0</text>
<line x1="56" y1="332.5" x2="1128" y2="332.5" stroke="#eee1cf" stroke-width="1"/>
<text x="42.0" y="336.5" fill="#6e6a63" font-size="12" font-family="Pretendard, Noto Sans KR, sans-serif" text-anchor="end">28.8</text>
<line x1="56" y1="275.0" x2="1128" y2="275.0" stroke="#eee1cf" stroke-width="1"/>
<text x="42.0" y="279.0" fill="#6e6a63" font-size="12" font-family="Pretendard, Noto Sans KR, sans-serif" text-anchor="end">47.5</text>
<line x1="56" y1="217.5" x2="1128" y2="217.5" stroke="#eee1cf" stroke-width="1"/>
<text x="42.0" y="221.5" fill="#6e6a63" font-size="12" font-family="Pretendard, Noto Sans KR, sans-serif" text-anchor="end">66.3</text>
<line x1="56" y1="160.0" x2="1128" y2="160.0" stroke="#eee1cf" stroke-width="1"/>
<text x="42.0" y="164.0" fill="#6e6a63" font-size="12" font-family="Pretendard, Noto Sans KR, sans-serif" text-anchor="end">85.0</text>
<line x1="56" y1="390" x2="1128" y2="390" stroke="#d7c6ad" stroke-width="1.2"/>
<path d="M 56.0 390.0 L 63.5 390.0 L 71.1 390.0 L 78.6 390.0 L 86.2 390.0 L 93.7 390.0 L 101.3 390.0 L 108.8 390.0 L 116.4 390.0 L 123.9 390.0 L 131.5 390.0 L 139.0 386.9 L 146.6 380.8 L 154.1 377.7 L 161.7 380.8 L 169.2 383.9 L 176.8 380.8 L 184.3 380.8 L 191.9 371.6 L 199.4 380.8 L 207.0 377.7 L 214.5 374.7 L 222.1 377.7 L 229.6 368.5 L 237.2 371.6 L 244.7 371.6 L 252.3 362.4 L 259.8 371.6 L 267.4 374.7 L 274.9 371.6 L 282.5 368.5 L 290.0 383.9 L 297.6 371.6 L 305.1 371.6 L 312.7 377.7 L 320.2 374.7 L 327.8 371.6 L 335.3 368.5 L 342.9 371.6 L 350.4 371.6 L 358.0 365.5 L 365.5 362.4 L 373.1 368.5 L 380.6 353.2 L 388.2 356.3 L 395.7 362.4 L 403.3 353.2 L 410.8 344.0 L 418.4 325.6 L 425.9 307.2 L 433.5 258.1 L 441.0 248.9 L 448.6 288.8 L 456.1 242.8 L 463.7 258.1 L 471.2 242.8 L 478.8 199.9 L 486.3 160.0 L 493.9 187.6 L 501.4 218.3 L 509.0 242.8 L 516.5 252.0 L 524.1 294.9 L 531.6 301.1 L 539.2 322.5 L 546.7 313.3 L 554.3 322.5 L 561.8 340.9 L 569.4 340.9 L 576.9 340.9 L 584.5 310.3 L 592.0 313.3 L 599.5 322.5 L 607.1 328.7 L 614.6 347.1 L 622.2 340.9 L 629.7 356.3 L 637.3 371.6 L 644.8 374.7 L 652.4 374.7 L 659.9 374.7 L 667.5 371.6 L 675.0 371.6 L 682.6 368.5 L 690.1 368.5 L 697.7 365.5 L 705.2 368.5 L 712.8 368.5 L 720.3 368.5 L 727.9 368.5 L 735.4 371.6 L 743.0 374.7 L 750.5 374.7 L 758.1 377.7 L 765.6 371.6 L 773.2 377.7 L 780.7 377.7 L 788.3 371.6 L 795.8 377.7 L 803.4 368.5 L 810.9 371.6 L 818.5 368.5 L 826.0 371.6 L 833.6 368.5 L 841.1 371.6 L 848.7 368.5 L 856.2 362.4 L 863.8 353.2 L 871.3 353.2 L 878.9 353.2 L 886.4 359.3 L 894.0 353.2 L 901.5 356.3 L 909.1 365.5 L 916.6 365.5 L 924.2 368.5 L 931.7 374.7 L 939.3 383.9 L 946.8 383.9 L 954.4 377.7 L 961.9 383.9 L 969.5 377.7 L 977.0 383.9 L 984.6 380.8 L 992.1 374.7 L 999.7 377.7 L 1007.2 380.8 L 1014.8 368.5 L 1022.3 383.9 L 1029.9 383.9 L 1037.4 377.7 L 1045.0 377.7 L 1052.5 377.7 L 1060.1 377.7 L 1067.6 383.9 L 1075.2 380.8 L 1082.7 386.9 L 1090.3 386.9 L 1097.8 380.8 L 1105.4 383.9 L 1112.9 383.9 L 1120.5 377.7 L 1128.0 383.9" fill="none" stroke="#1f6feb" stroke-width="3" stroke-linejoin="round" stroke-linecap="round"/>
<path d="M 56.0 390.0 L 63.5 390.0 L 71.1 390.0 L 78.6 390.0 L 86.2 390.0 L 93.7 390.0 L 101.3 390.0 L 108.8 390.0 L 116.4 390.0 L 123.9 390.0 L 131.5 390.0 L 139.0 390.0 L 146.6 386.9 L 154.1 380.8 L 161.7 377.7 L 169.2 380.8 L 176.8 383.9 L 184.3 380.8 L 191.9 380.8 L 199.4 371.6 L 207.0 380.8 L 214.5 377.7 L 222.1 374.7 L 229.6 377.7 L 237.2 368.5 L 244.7 371.6 L 252.3 371.6 L 259.8 362.4 L 267.4 371.6 L 274.9 374.7 L 282.5 371.6 L 290.0 368.5 L 297.6 383.9 L 305.1 371.6 L 312.7 371.6 L 320.2 377.7 L 327.8 374.7 L 335.3 371.6 L 342.9 368.5 L 350.4 371.6 L 358.0 371.6 L 365.5 365.5 L 373.1 362.4 L 380.6 368.5 L 388.2 353.2 L 395.7 356.3 L 403.3 362.4 L 410.8 353.2 L 418.4 344.0 L 425.9 325.6 L 433.5 307.2 L 441.0 258.1 L 448.6 248.9 L 456.1 288.8 L 463.7 242.8 L 471.2 258.1 L 478.8 242.8 L 486.3 199.9 L 493.9 160.0 L 501.4 187.6 L 509.0 218.3 L 516.5 242.8 L 524.1 252.0 L 531.6 294.9 L 539.2 301.1 L 546.7 322.5 L 554.3 313.3 L 561.8 322.5 L 569.4 340.9 L 576.9 340.9 L 584.5 340.9 L 592.0 310.3 L 599.5 313.3 L 607.1 322.5 L 614.6 328.7 L 622.2 347.1 L 629.7 340.9 L 637.3 356.3 L 644.8 371.6 L 652.4 374.7 L 659.9 374.7 L 667.5 374.7 L 675.0 371.6 L 682.6 371.6 L 690.1 368.5 L 697.7 368.5 L 705.2 365.5 L 712.8 368.5 L 720.3 368.5 L 727.9 368.5 L 735.4 368.5 L 743.0 371.6 L 750.5 374.7 L 758.1 374.7 L 765.6 377.7 L 773.2 371.6 L 780.7 377.7 L 788.3 377.7 L 795.8 371.6 L 803.4 377.7 L 810.9 368.5 L 818.5 371.6 L 826.0 368.5 L 833.6 371.6 L 841.1 368.5 L 848.7 371.6 L 856.2 368.5 L 863.8 362.4 L 871.3 353.2 L 878.9 353.2 L 886.4 353.2 L 894.0 359.3 L 901.5 353.2 L 909.1 356.3 L 916.6 365.5 L 924.2 365.5 L 931.7 368.5 L 939.3 374.7 L 946.8 383.9 L 954.4 383.9 L 961.9 377.7 L 969.5 383.9 L 977.0 377.7 L 984.6 383.9 L 992.1 380.8 L 999.7 374.7 L 1007.2 377.7 L 1014.8 380.8 L 1022.3 368.5 L 1029.9 383.9 L 1037.4 383.9 L 1045.0 377.7 L 1052.5 377.7 L 1060.1 377.7 L 1067.6 377.7 L 1075.2 383.9 L 1082.7 380.8 L 1090.3 386.9 L 1097.8 386.9 L 1105.4 380.8 L 1112.9 383.9 L 1120.5 383.9 L 1128.0 377.7" fill="none" stroke="#d97706" stroke-width="3" stroke-dasharray="8 6" stroke-linejoin="round" stroke-linecap="round"/>
<path d="M 56.0 390.0 L 63.5 390.0 L 71.1 390.0 L 78.6 390.0 L 86.2 390.0 L 93.7 390.0 L 101.3 390.0 L 108.8 390.0 L 116.4 390.0 L 123.9 390.0 L 131.5 390.0 L 139.0 390.0 L 146.6 386.9 L 154.1 380.8 L 161.7 377.7 L 169.2 380.8 L 176.8 383.9 L 184.3 380.8 L 191.9 380.8 L 199.4 371.6 L 207.0 380.8 L 214.5 377.7 L 222.1 374.7 L 229.6 377.7 L 237.2 368.5 L 244.7 371.6 L 252.3 371.6 L 259.8 362.4 L 267.4 371.6 L 274.9 374.7 L 282.5 371.6 L 290.0 368.5 L 297.6 383.9 L 305.1 371.6 L 312.7 371.6 L 320.2 377.7 L 327.8 377.5 L 335.3 374.0 L 342.9 368.2 L 350.4 372.2 L 358.0 370.7 L 365.5 365.8 L 373.1 362.4 L 380.6 368.5 L 388.2 353.2 L 395.7 356.3 L 403.3 362.4 L 410.8 353.2 L 418.4 344.0 L 425.9 325.6 L 433.5 307.2 L 441.0 258.1 L 448.6 248.9 L 456.1 291.0 L 463.7 251.2 L 471.2 261.3 L 478.8 250.5 L 486.3 206.0 L 493.9 165.2 L 501.4 190.3 L 509.0 230.2 L 516.5 245.4 L 524.1 258.5 L 531.6 296.8 L 539.2 306.4 L 546.7 323.1 L 554.3 316.0 L 561.8 318.6 L 569.4 343.1 L 576.9 341.5 L 584.5 344.4 L 592.0 318.5 L 599.5 314.4 L 607.1 327.1 L 614.6 330.3 L 622.2 349.9 L 629.7 342.0 L 637.3 356.4 L 644.8 374.7 L 652.4 376.6 L 659.9 375.0 L 667.5 375.2 L 675.0 370.1 L 682.6 372.7 L 690.1 370.0 L 697.7 368.8 L 705.2 365.1 L 712.8 368.6 L 720.3 368.0 L 727.9 369.7 L 735.4 368.5 L 743.0 373.2 L 750.5 375.5 L 758.1 374.9 L 765.6 377.3 L 773.2 370.7 L 780.7 378.9 L 788.3 378.3 L 795.8 372.6 L 803.4 375.5 L 810.9 369.3 L 818.5 372.1 L 826.0 370.0 L 833.6 373.2 L 841.1 366.9 L 848.7 370.6 L 856.2 369.5 L 863.8 362.9 L 871.3 354.8 L 878.9 354.1 L 886.4 353.4 L 894.0 359.0 L 901.5 352.1 L 909.1 357.1 L 916.6 368.3 L 924.2 364.8 L 931.7 370.2 L 939.3 374.7 L 946.8 384.5 L 954.4 384.5 L 961.9 377.3 L 969.5 384.5 L 977.0 379.4 L 984.6 384.7 L 992.1 379.4 L 999.7 375.2 L 1007.2 378.8 L 1014.8 383.5 L 1022.3 368.2 L 1029.9 385.1 L 1037.4 380.8 L 1045.0 376.2 L 1052.5 379.3 L 1060.1 378.4 L 1067.6 377.1 L 1075.2 383.9 L 1082.7 381.0 L 1090.3 387.4 L 1097.8 386.3 L 1105.4 381.2 L 1112.9 383.9 L 1120.5 384.8 L 1128.0 377.7" fill="none" stroke="#15803d" stroke-width="3" stroke-dasharray="8 6" stroke-linejoin="round" stroke-linecap="round"/>
<path d="M 56.0 390.0 L 63.5 390.0 L 71.1 390.0 L 78.6 390.0 L 86.2 390.0 L 93.7 390.0 L 101.3 390.0 L 108.8 390.0 L 116.4 390.0 L 123.9 390.0 L 131.5 390.0 L 139.0 390.0 L 146.6 386.9 L 154.1 380.8 L 161.7 377.7 L 169.2 380.8 L 176.8 383.9 L 184.3 380.8 L 191.9 380.8 L 199.4 371.6 L 207.0 380.8 L 214.5 377.7 L 222.1 374.7 L 229.6 377.7 L 237.2 368.5 L 244.7 371.6 L 252.3 371.6 L 259.8 362.4 L 267.4 371.6 L 274.9 374.7 L 282.5 371.6 L 290.0 368.5 L 297.6 383.9 L 305.1 371.6 L 312.7 371.6 L 320.2 377.7 L 327.8 374.7 L 335.3 371.6 L 342.9 368.5 L 350.4 371.6 L 358.0 371.6 L 365.5 365.5 L 373.1 362.4 L 380.6 368.5 L 388.2 353.2 L 395.7 356.3 L 403.3 362.4 L 410.8 353.2 L 418.4 344.0 L 425.9 325.6 L 433.5 307.2 L 441.0 258.1 L 448.6 248.9 L 456.1 288.8 L 463.7 242.8 L 471.2 258.1 L 478.8 242.8 L 486.3 199.9 L 493.9 160.0 L 501.4 187.6 L 509.0 218.3 L 516.5 242.8 L 524.1 252.0 L 531.6 294.9 L 539.2 301.1 L 546.7 322.5 L 554.3 313.3 L 561.8 322.5 L 569.4 340.9 L 576.9 340.9 L 584.5 340.9 L 592.0 310.3 L 599.5 313.3 L 607.1 322.5 L 614.6 328.7 L 622.2 347.1 L 629.7 340.9 L 637.3 356.3 L 644.8 371.6 L 652.4 374.7 L 659.9 374.7 L 667.5 374.7 L 675.0 371.6 L 682.6 371.6 L 690.1 368.5 L 697.7 368.5 L 705.2 365.5 L 712.8 368.5 L 720.3 368.5 L 727.9 368.5 L 735.4 368.5 L 743.0 371.6 L 750.5 374.7 L 758.1 374.7 L 765.6 377.7 L 773.2 371.6 L 780.7 377.7 L 788.3 377.7 L 795.8 371.6 L 803.4 377.7 L 810.9 368.5 L 818.5 371.6 L 826.0 368.5 L 833.6 371.6 L 841.1 368.5 L 848.7 371.6 L 856.2 368.5 L 863.8 362.4 L 871.3 353.2 L 878.9 353.2 L 886.4 353.2 L 894.0 359.3 L 901.5 353.2 L 909.1 356.3 L 916.6 365.5 L 924.2 365.5 L 931.7 368.5 L 939.3 374.7 L 946.8 383.9 L 954.4 383.9 L 961.9 377.7 L 969.5 383.9 L 977.0 377.7 L 984.6 383.9 L 992.1 380.8 L 999.7 374.7 L 1007.2 377.7 L 1014.8 380.8 L 1022.3 368.5 L 1029.9 383.9 L 1037.4 383.9 L 1045.0 377.7 L 1052.5 377.7 L 1060.1 377.7 L 1067.6 377.7 L 1075.2 383.9 L 1082.7 380.8 L 1090.3 386.9 L 1097.8 386.9 L 1105.4 380.8 L 1112.9 383.9 L 1120.5 383.9 L 1128.0 377.7" fill="none" stroke="#7c3aed" stroke-width="3" stroke-dasharray="8 6" stroke-linejoin="round" stroke-linecap="round"/>
<circle cx="816" cy="148" r="5" fill="#1f6feb"/>
<text x="828.0" y="153.0" fill="#6e6a63" font-size="13" font-family="Pretendard, Noto Sans KR, sans-serif" text-anchor="start">실제값</text>
<circle cx="896" cy="148" r="5" fill="#d97706"/>
<text x="908.0" y="153.0" fill="#6e6a63" font-size="13" font-family="Pretendard, Noto Sans KR, sans-serif" text-anchor="start">현재값 유지</text>
<circle cx="1016" cy="148" r="5" fill="#15803d"/>
<text x="1028.0" y="153.0" fill="#6e6a63" font-size="13" font-family="Pretendard, Noto Sans KR, sans-serif" text-anchor="start">요일 피크 보정</text>
<circle cx="1136" cy="148" r="5" fill="#7c3aed"/>
<text x="1148.0" y="153.0" fill="#6e6a63" font-size="13" font-family="Pretendard, Noto Sans KR, sans-serif" text-anchor="start">메뉴 피크 보정</text>
<text x="56.0" y="412.0" fill="#6e6a63" font-size="11" font-family="Pretendard, Noto Sans KR, sans-serif" text-anchor="middle">07:35</text>
<text x="184.3" y="412.0" fill="#6e6a63" font-size="11" font-family="Pretendard, Noto Sans KR, sans-serif" text-anchor="middle">09:00</text>
<text x="312.7" y="412.0" fill="#6e6a63" font-size="11" font-family="Pretendard, Noto Sans KR, sans-serif" text-anchor="middle">10:25</text>
<text x="441.0" y="412.0" fill="#6e6a63" font-size="11" font-family="Pretendard, Noto Sans KR, sans-serif" text-anchor="middle">11:50</text>
<text x="569.4" y="412.0" fill="#6e6a63" font-size="11" font-family="Pretendard, Noto Sans KR, sans-serif" text-anchor="middle">13:15</text>
<text x="697.7" y="412.0" fill="#6e6a63" font-size="11" font-family="Pretendard, Noto Sans KR, sans-serif" text-anchor="middle">14:40</text>
<text x="826.0" y="412.0" fill="#6e6a63" font-size="11" font-family="Pretendard, Noto Sans KR, sans-serif" text-anchor="middle">16:05</text>
<text x="954.4" y="412.0" fill="#6e6a63" font-size="11" font-family="Pretendard, Noto Sans KR, sans-serif" text-anchor="middle">17:30</text>
<text x="1082.7" y="412.0" fill="#6e6a63" font-size="11" font-family="Pretendard, Noto Sans KR, sans-serif" text-anchor="middle">18:55</text>
<text x="1128.0" y="412.0" fill="#6e6a63" font-size="11" font-family="Pretendard, Noto Sans KR, sans-serif" text-anchor="middle">19:25</text>
<text x="56.0" y="434.0" fill="#14532d" font-size="22" font-family="Pretendard, Noto Sans KR, sans-serif" text-anchor="start">30분 후 최종 규칙</text>
<line x1="56" y1="680.0" x2="1128" y2="680.0" stroke="#eee1cf" stroke-width="1"/>
<text x="42.0" y="684.0" fill="#6e6a63" font-size="12" font-family="Pretendard, Noto Sans KR, sans-serif" text-anchor="end">10.0</text>
<line x1="56" y1="622.5" x2="1128" y2="622.5" stroke="#eee1cf" stroke-width="1"/>
<text x="42.0" y="626.5" fill="#6e6a63" font-size="12" font-family="Pretendard, Noto Sans KR, sans-serif" text-anchor="end">28.8</text>
<line x1="56" y1="565.0" x2="1128" y2="565.0" stroke="#eee1cf" stroke-width="1"/>
<text x="42.0" y="569.0" fill="#6e6a63" font-size="12" font-family="Pretendard, Noto Sans KR, sans-serif" text-anchor="end">47.5</text>
<line x1="56" y1="507.5" x2="1128" y2="507.5" stroke="#eee1cf" stroke-width="1"/>
<text x="42.0" y="511.5" fill="#6e6a63" font-size="12" font-family="Pretendard, Noto Sans KR, sans-serif" text-anchor="end">66.3</text>
<line x1="56" y1="450.0" x2="1128" y2="450.0" stroke="#eee1cf" stroke-width="1"/>
<text x="42.0" y="454.0" fill="#6e6a63" font-size="12" font-family="Pretendard, Noto Sans KR, sans-serif" text-anchor="end">85.0</text>
<line x1="56" y1="680" x2="1128" y2="680" stroke="#d7c6ad" stroke-width="1.2"/>
<path d="M 56.0 680.0 L 63.8 680.0 L 71.6 680.0 L 79.5 680.0 L 87.3 680.0 L 95.1 680.0 L 102.9 676.9 L 110.8 670.8 L 118.6 667.7 L 126.4 670.8 L 134.2 673.9 L 142.1 670.8 L 149.9 670.8 L 157.7 661.6 L 165.5 670.8 L 173.4 667.7 L 181.2 664.7 L 189.0 667.7 L 196.8 658.5 L 204.7 661.6 L 212.5 661.6 L 220.3 652.4 L 228.1 661.6 L 236.0 664.7 L 243.8 661.6 L 251.6 658.5 L 259.4 673.9 L 267.3 661.6 L 275.1 661.6 L 282.9 667.7 L 290.7 664.7 L 298.6 661.6 L 306.4 658.5 L 314.2 661.6 L 322.0 661.6 L 329.9 655.5 L 337.7 652.4 L 345.5 658.5 L 353.3 643.2 L 361.2 646.3 L 369.0 652.4 L 376.8 643.2 L 384.6 634.0 L 392.5 615.6 L 400.3 597.2 L 408.1 548.1 L 415.9 538.9 L 423.8 578.8 L 431.6 532.8 L 439.4 548.1 L 447.2 532.8 L 455.1 489.9 L 462.9 450.0 L 470.7 477.6 L 478.5 508.3 L 486.4 532.8 L 494.2 542.0 L 502.0 584.9 L 509.8 591.1 L 517.7 612.5 L 525.5 603.3 L 533.3 612.5 L 541.1 630.9 L 549.0 630.9 L 556.8 630.9 L 564.6 600.3 L 572.4 603.3 L 580.3 612.5 L 588.1 618.7 L 595.9 637.1 L 603.7 630.9 L 611.6 646.3 L 619.4 661.6 L 627.2 664.7 L 635.0 664.7 L 642.9 664.7 L 650.7 661.6 L 658.5 661.6 L 666.3 658.5 L 674.2 658.5 L 682.0 655.5 L 689.8 658.5 L 697.6 658.5 L 705.5 658.5 L 713.3 658.5 L 721.1 661.6 L 728.9 664.7 L 736.8 664.7 L 744.6 667.7 L 752.4 661.6 L 760.2 667.7 L 768.1 667.7 L 775.9 661.6 L 783.7 667.7 L 791.5 658.5 L 799.4 661.6 L 807.2 658.5 L 815.0 661.6 L 822.8 658.5 L 830.7 661.6 L 838.5 658.5 L 846.3 652.4 L 854.1 643.2 L 862.0 643.2 L 869.8 643.2 L 877.6 649.3 L 885.4 643.2 L 893.3 646.3 L 901.1 655.5 L 908.9 655.5 L 916.7 658.5 L 924.6 664.7 L 932.4 673.9 L 940.2 673.9 L 948.0 667.7 L 955.9 673.9 L 963.7 667.7 L 971.5 673.9 L 979.3 670.8 L 987.2 664.7 L 995.0 667.7 L 1002.8 670.8 L 1010.6 658.5 L 1018.5 673.9 L 1026.3 673.9 L 1034.1 667.7 L 1041.9 667.7 L 1049.8 667.7 L 1057.6 667.7 L 1065.4 673.9 L 1073.2 670.8 L 1081.1 676.9 L 1088.9 676.9 L 1096.7 670.8 L 1104.5 673.9 L 1112.4 673.9 L 1120.2 667.7 L 1128.0 673.9" fill="none" stroke="#1f6feb" stroke-width="3" stroke-linejoin="round" stroke-linecap="round"/>
<path d="M 56.0 680.0 L 63.8 680.0 L 71.6 680.0 L 79.5 680.0 L 87.3 680.0 L 95.1 680.0 L 102.9 680.0 L 110.8 680.0 L 118.6 680.0 L 126.4 680.0 L 134.2 680.0 L 142.1 680.0 L 149.9 676.9 L 157.7 670.8 L 165.5 667.7 L 173.4 670.8 L 181.2 673.9 L 189.0 670.8 L 196.8 670.8 L 204.7 661.6 L 212.5 670.8 L 220.3 667.7 L 228.1 664.7 L 236.0 667.7 L 243.8 658.5 L 251.6 661.6 L 259.4 661.6 L 267.3 652.4 L 275.1 661.6 L 282.9 664.7 L 290.7 661.6 L 298.6 658.5 L 306.4 673.9 L 314.2 661.6 L 322.0 661.6 L 329.9 667.7 L 337.7 664.7 L 345.5 661.6 L 353.3 658.5 L 361.2 661.6 L 369.0 661.6 L 376.8 655.5 L 384.6 652.4 L 392.5 658.5 L 400.3 643.2 L 408.1 646.3 L 415.9 652.4 L 423.8 643.2 L 431.6 634.0 L 439.4 615.6 L 447.2 597.2 L 455.1 548.1 L 462.9 538.9 L 470.7 578.8 L 478.5 532.8 L 486.4 548.1 L 494.2 532.8 L 502.0 489.9 L 509.8 450.0 L 517.7 477.6 L 525.5 508.3 L 533.3 532.8 L 541.1 542.0 L 549.0 584.9 L 556.8 591.1 L 564.6 612.5 L 572.4 603.3 L 580.3 612.5 L 588.1 630.9 L 595.9 630.9 L 603.7 630.9 L 611.6 600.3 L 619.4 603.3 L 627.2 612.5 L 635.0 618.7 L 642.9 637.1 L 650.7 630.9 L 658.5 646.3 L 666.3 661.6 L 674.2 664.7 L 682.0 664.7 L 689.8 664.7 L 697.6 661.6 L 705.5 661.6 L 713.3 658.5 L 721.1 658.5 L 728.9 655.5 L 736.8 658.5 L 744.6 658.5 L 752.4 658.5 L 760.2 658.5 L 768.1 661.6 L 775.9 664.7 L 783.7 664.7 L 791.5 667.7 L 799.4 661.6 L 807.2 667.7 L 815.0 667.7 L 822.8 661.6 L 830.7 667.7 L 838.5 658.5 L 846.3 661.6 L 854.1 658.5 L 862.0 661.6 L 869.8 658.5 L 877.6 661.6 L 885.4 658.5 L 893.3 652.4 L 901.1 643.2 L 908.9 643.2 L 916.7 643.2 L 924.6 649.3 L 932.4 643.2 L 940.2 646.3 L 948.0 655.5 L 955.9 655.5 L 963.7 658.5 L 971.5 664.7 L 979.3 673.9 L 987.2 673.9 L 995.0 667.7 L 1002.8 673.9 L 1010.6 667.7 L 1018.5 673.9 L 1026.3 670.8 L 1034.1 664.7 L 1041.9 667.7 L 1049.8 670.8 L 1057.6 658.5 L 1065.4 673.9 L 1073.2 673.9 L 1081.1 667.7 L 1088.9 667.7 L 1096.7 667.7 L 1104.5 667.7 L 1112.4 673.9 L 1120.2 670.8 L 1128.0 676.9" fill="none" stroke="#d97706" stroke-width="3" stroke-dasharray="8 6" stroke-linejoin="round" stroke-linecap="round"/>
<circle cx="976" cy="438" r="5" fill="#1f6feb"/>
<text x="988.0" y="443.0" fill="#6e6a63" font-size="13" font-family="Pretendard, Noto Sans KR, sans-serif" text-anchor="start">실제값</text>
<circle cx="1076" cy="438" r="5" fill="#d97706"/>
<text x="1088.0" y="443.0" fill="#6e6a63" font-size="13" font-family="Pretendard, Noto Sans KR, sans-serif" text-anchor="start">최종 예측값</text>
<text x="56.0" y="702.0" fill="#6e6a63" font-size="11" font-family="Pretendard, Noto Sans KR, sans-serif" text-anchor="middle">08:00</text>
<text x="189.0" y="702.0" fill="#6e6a63" font-size="11" font-family="Pretendard, Noto Sans KR, sans-serif" text-anchor="middle">09:25</text>
<text x="322.0" y="702.0" fill="#6e6a63" font-size="11" font-family="Pretendard, Noto Sans KR, sans-serif" text-anchor="middle">10:50</text>
<text x="455.1" y="702.0" fill="#6e6a63" font-size="11" font-family="Pretendard, Noto Sans KR, sans-serif" text-anchor="middle">12:15</text>
<text x="588.1" y="702.0" fill="#6e6a63" font-size="11" font-family="Pretendard, Noto Sans KR, sans-serif" text-anchor="middle">13:40</text>
<text x="721.1" y="702.0" fill="#6e6a63" font-size="11" font-family="Pretendard, Noto Sans KR, sans-serif" text-anchor="middle">15:05</text>
<text x="854.1" y="702.0" fill="#6e6a63" font-size="11" font-family="Pretendard, Noto Sans KR, sans-serif" text-anchor="middle">16:30</text>
<text x="987.2" y="702.0" fill="#6e6a63" font-size="11" font-family="Pretendard, Noto Sans KR, sans-serif" text-anchor="middle">17:55</text>
<text x="1120.2" y="702.0" fill="#6e6a63" font-size="11" font-family="Pretendard, Noto Sans KR, sans-serif" text-anchor="middle">19:20</text>
<text x="1128.0" y="702.0" fill="#6e6a63" font-size="11" font-family="Pretendard, Noto Sans KR, sans-serif" text-anchor="middle">19:25</text>
<text x="56.0" y="724.0" fill="#14532d" font-size="22" font-family="Pretendard, Noto Sans KR, sans-serif" text-anchor="start">60분 후 최종 규칙</text>
<line x1="56" y1="950.0" x2="1128" y2="950.0" stroke="#eee1cf" stroke-width="1"/>
<text x="42.0" y="954.0" fill="#6e6a63" font-size="12" font-family="Pretendard, Noto Sans KR, sans-serif" text-anchor="end">10.0</text>
<line x1="56" y1="897.5" x2="1128" y2="897.5" stroke="#eee1cf" stroke-width="1"/>
<text x="42.0" y="901.5" fill="#6e6a63" font-size="12" font-family="Pretendard, Noto Sans KR, sans-serif" text-anchor="end">28.8</text>
<line x1="56" y1="845.0" x2="1128" y2="845.0" stroke="#eee1cf" stroke-width="1"/>
<text x="42.0" y="849.0" fill="#6e6a63" font-size="12" font-family="Pretendard, Noto Sans KR, sans-serif" text-anchor="end">47.5</text>
<line x1="56" y1="792.5" x2="1128" y2="792.5" stroke="#eee1cf" stroke-width="1"/>
<text x="42.0" y="796.5" fill="#6e6a63" font-size="12" font-family="Pretendard, Noto Sans KR, sans-serif" text-anchor="end">66.3</text>
<line x1="56" y1="740.0" x2="1128" y2="740.0" stroke="#eee1cf" stroke-width="1"/>
<text x="42.0" y="744.0" fill="#6e6a63" font-size="12" font-family="Pretendard, Noto Sans KR, sans-serif" text-anchor="end">85.0</text>
<line x1="56" y1="950" x2="1128" y2="950" stroke="#d7c6ad" stroke-width="1.2"/>
<path d="M 56.0 947.2 L 64.2 941.6 L 72.4 938.8 L 80.5 941.6 L 88.7 944.4 L 96.9 941.6 L 105.1 941.6 L 113.3 933.2 L 121.5 941.6 L 129.6 938.8 L 137.8 936.0 L 146.0 938.8 L 154.2 930.4 L 162.4 933.2 L 170.6 933.2 L 178.7 924.8 L 186.9 933.2 L 195.1 936.0 L 203.3 933.2 L 211.5 930.4 L 219.7 944.4 L 227.8 933.2 L 236.0 933.2 L 244.2 938.8 L 252.4 936.0 L 260.6 933.2 L 268.8 930.4 L 276.9 933.2 L 285.1 933.2 L 293.3 927.6 L 301.5 924.8 L 309.7 930.4 L 317.9 916.4 L 326.0 919.2 L 334.2 924.8 L 342.4 916.4 L 350.6 908.0 L 358.8 891.2 L 367.0 874.4 L 375.1 829.6 L 383.3 821.2 L 391.5 857.6 L 399.7 815.6 L 407.9 829.6 L 416.1 815.6 L 424.2 776.4 L 432.4 740.0 L 440.6 765.2 L 448.8 793.2 L 457.0 815.6 L 465.2 824.0 L 473.3 863.2 L 481.5 868.8 L 489.7 888.4 L 497.9 880.0 L 506.1 888.4 L 514.3 905.2 L 522.4 905.2 L 530.6 905.2 L 538.8 877.2 L 547.0 880.0 L 555.2 888.4 L 563.4 894.0 L 571.5 910.8 L 579.7 905.2 L 587.9 919.2 L 596.1 933.2 L 604.3 936.0 L 612.5 936.0 L 620.6 936.0 L 628.8 933.2 L 637.0 933.2 L 645.2 930.4 L 653.4 930.4 L 661.6 927.6 L 669.7 930.4 L 677.9 930.4 L 686.1 930.4 L 694.3 930.4 L 702.5 933.2 L 710.7 936.0 L 718.8 936.0 L 727.0 938.8 L 735.2 933.2 L 743.4 938.8 L 751.6 938.8 L 759.8 933.2 L 767.9 938.8 L 776.1 930.4 L 784.3 933.2 L 792.5 930.4 L 800.7 933.2 L 808.9 930.4 L 817.0 933.2 L 825.2 930.4 L 833.4 924.8 L 841.6 916.4 L 849.8 916.4 L 858.0 916.4 L 866.1 922.0 L 874.3 916.4 L 882.5 919.2 L 890.7 927.6 L 898.9 927.6 L 907.1 930.4 L 915.2 936.0 L 923.4 944.4 L 931.6 944.4 L 939.8 938.8 L 948.0 944.4 L 956.2 938.8 L 964.3 944.4 L 972.5 941.6 L 980.7 936.0 L 988.9 938.8 L 997.1 941.6 L 1005.3 930.4 L 1013.4 944.4 L 1021.6 944.4 L 1029.8 938.8 L 1038.0 938.8 L 1046.2 938.8 L 1054.4 938.8 L 1062.5 944.4 L 1070.7 941.6 L 1078.9 947.2 L 1087.1 947.2 L 1095.3 941.6 L 1103.5 944.4 L 1111.6 944.4 L 1119.8 938.8 L 1128.0 944.4" fill="none" stroke="#1f6feb" stroke-width="3" stroke-linejoin="round" stroke-linecap="round"/>
<path d="M 56.0 950.0 L 64.2 950.0 L 72.4 950.0 L 80.5 950.0 L 88.7 950.0 L 96.9 950.0 L 105.1 950.0 L 113.3 950.0 L 121.5 950.0 L 129.6 950.0 L 137.8 950.0 L 146.0 950.0 L 154.2 947.2 L 162.4 941.6 L 170.6 938.8 L 178.7 941.6 L 186.9 944.4 L 195.1 941.6 L 203.3 941.6 L 211.5 933.2 L 219.7 941.6 L 227.8 938.8 L 236.0 936.0 L 244.2 938.8 L 252.4 930.4 L 260.6 933.2 L 268.8 933.2 L 276.9 924.8 L 285.1 933.2 L 293.3 936.0 L 301.5 933.2 L 309.7 930.4 L 317.9 944.4 L 326.0 933.2 L 334.2 933.2 L 342.4 938.8 L 350.6 936.0 L 358.8 933.2 L 367.0 930.4 L 375.1 933.2 L 383.3 933.2 L 391.5 927.6 L 399.7 924.8 L 407.9 930.4 L 416.1 916.4 L 424.2 919.2 L 432.4 924.8 L 440.6 916.4 L 448.8 908.0 L 457.0 891.2 L 465.2 874.4 L 473.3 829.6 L 481.5 821.2 L 489.7 857.6 L 497.9 815.6 L 506.1 829.6 L 514.3 815.6 L 522.4 776.4 L 530.6 740.0 L 538.8 765.2 L 547.0 793.2 L 555.2 815.6 L 563.4 824.0 L 571.5 863.2 L 579.7 868.8 L 587.9 888.4 L 596.1 880.0 L 604.3 888.4 L 612.5 905.2 L 620.6 905.2 L 628.8 905.2 L 637.0 877.2 L 645.2 880.0 L 653.4 888.4 L 661.6 894.0 L 669.7 910.8 L 677.9 905.2 L 686.1 919.2 L 694.3 933.2 L 702.5 936.0 L 710.7 936.0 L 718.8 936.0 L 727.0 933.2 L 735.2 933.2 L 743.4 930.4 L 751.6 930.4 L 759.8 927.6 L 767.9 930.4 L 776.1 930.4 L 784.3 930.4 L 792.5 930.4 L 800.7 933.2 L 808.9 936.0 L 817.0 936.0 L 825.2 938.8 L 833.4 933.2 L 841.6 938.8 L 849.8 938.8 L 858.0 933.2 L 866.1 938.8 L 874.3 930.4 L 882.5 933.2 L 890.7 930.4 L 898.9 933.2 L 907.1 930.4 L 915.2 933.2 L 923.4 930.4 L 931.6 924.8 L 939.8 916.4 L 948.0 916.4 L 956.2 916.4 L 964.3 922.0 L 972.5 916.4 L 980.7 919.2 L 988.9 927.6 L 997.1 927.6 L 1005.3 930.4 L 1013.4 936.0 L 1021.6 944.4 L 1029.8 944.4 L 1038.0 938.8 L 1046.2 944.4 L 1054.4 938.8 L 1062.5 944.4 L 1070.7 941.6 L 1078.9 936.0 L 1087.1 938.8 L 1095.3 941.6 L 1103.5 930.4 L 1111.6 944.4 L 1119.8 944.4 L 1128.0 938.8" fill="none" stroke="#d97706" stroke-width="3" stroke-dasharray="8 6" stroke-linejoin="round" stroke-linecap="round"/>
<circle cx="976" cy="728" r="5" fill="#1f6feb"/>
<text x="988.0" y="733.0" fill="#6e6a63" font-size="13" font-family="Pretendard, Noto Sans KR, sans-serif" text-anchor="start">실제값</text>
<circle cx="1076" cy="728" r="5" fill="#d97706"/>
<text x="1088.0" y="733.0" fill="#6e6a63" font-size="13" font-family="Pretendard, Noto Sans KR, sans-serif" text-anchor="start">최종 예측값</text>
<text x="56.0" y="972.0" fill="#6e6a63" font-size="11" font-family="Pretendard, Noto Sans KR, sans-serif" text-anchor="middle">08:30</text>
<text x="186.9" y="972.0" fill="#6e6a63" font-size="11" font-family="Pretendard, Noto Sans KR, sans-serif" text-anchor="middle">09:50</text>
<text x="317.9" y="972.0" fill="#6e6a63" font-size="11" font-family="Pretendard, Noto Sans KR, sans-serif" text-anchor="middle">11:10</text>
<text x="448.8" y="972.0" fill="#6e6a63" font-size="11" font-family="Pretendard, Noto Sans KR, sans-serif" text-anchor="middle">12:30</text>
<text x="579.7" y="972.0" fill="#6e6a63" font-size="11" font-family="Pretendard, Noto Sans KR, sans-serif" text-anchor="middle">13:50</text>
<text x="710.7" y="972.0" fill="#6e6a63" font-size="11" font-family="Pretendard, Noto Sans KR, sans-serif" text-anchor="middle">15:10</text>
<text x="841.6" y="972.0" fill="#6e6a63" font-size="11" font-family="Pretendard, Noto Sans KR, sans-serif" text-anchor="middle">16:30</text>
<text x="972.5" y="972.0" fill="#6e6a63" font-size="11" font-family="Pretendard, Noto Sans KR, sans-serif" text-anchor="middle">17:50</text>
<text x="1103.5" y="972.0" fill="#6e6a63" font-size="11" font-family="Pretendard, Noto Sans KR, sans-serif" text-anchor="middle">19:10</text>
<text x="1128.0" y="972.0" fill="#6e6a63" font-size="11" font-family="Pretendard, Noto Sans KR, sans-serif" text-anchor="middle">19:25</text>
</svg>