<svg xmlns="http://www.w3.org/2000/svg" width="1200" height="980" viewBox="0 0 1200 980">
<rect width="100%" height="100%" fill="#fffaf2"/>
<rect x="24" y="20" width="1152" height="940" rx="26" fill="#fffdf9" stroke="#e7d7bf"/>
<text x="56.0" y="70.0" fill="#1f2a2e" font-size="32" font-family="Pretendard, Noto Sans KR, sans-serif" text-anchor="start">상록회관 · 2026-03-18 시간대별 검증</text>
<text x="56.0" y="100.0" fill="#6e6a63" font-size="15" font-family="Pretendard, Noto Sans KR, sans-serif" text-anchor="start">파란선은 실제값입니다. 첫 번째 패널에서는 5분 후 후보 방식들을 함께 비교하였습니다.</text>
<text x="56.0" y="144.0" fill="#14532d" font-size="22" font-family="Pretendard, Noto Sans KR, sans-serif" text-anchor="start">5분 후 비교</text>
<line x1="56" y1="390.0" x2="1128" y2="390.0" stroke="#eee1cf" stroke-width="1"/>
<text x="42.0" y="394.0" fill="#6e6a63" font-size="12" font-family="Pretendard, Noto Sans KR, sans-serif" text-anchor="end">15.0</text>
<line x1="56" y1="332.5" x2="1128" y2="332.5" stroke="#eee1cf" stroke-width="1"/>
<text x="42.0" y="336.5" fill="#6e6a63" font-size="12" font-family="Pretendard, Noto Sans KR, sans-serif" text-anchor="end">64.0</text>
<line x1="56" y1="275.0" x2="1128" y2="275.0" stroke="#eee1cf" stroke-width="1"/>
<text x="42.0" y="279.0" fill="#6e6a63" font-size="12" font-family="Pretendard, Noto Sans KR, sans-serif" text-anchor="end">113.0</text>
<line x1="56" y1="217.5" x2="1128" y2="217.5" stroke="#eee1cf" stroke-width="1"/>
<text x="42.0" y="221.5" fill="#6e6a63" font-size="12" font-family="Pretendard, Noto Sans KR, sans-serif" text-anchor="end">162.0</text>
<line x1="56" y1="160.0" x2="1128" y2="160.0" stroke="#eee1cf" stroke-width="1"/>
<text x="42.0" y="164.0" fill="#6e6a63" font-size="12" font-family="Pretendard, Noto Sans KR, sans-serif" text-anchor="end">211.0</text>
<line x1="56" y1="390" x2="1128" y2="390" stroke="#d7c6ad" stroke-width="1.2"/>
<path d="M 56.0 388.8 L 63.7 388.8 L 71.3 390.0 L 79.0 390.0 L 86.6 388.8 L 94.3 388.8 L 101.9 386.5 L 109.6 386.5 L 117.3 387.7 L 124.9 386.5 L 132.6 385.3 L 140.2 384.1 L 147.9 383.0 L 155.5 368.9 L 163.2 372.4 L 170.9 372.4 L 178.5 368.9 L 186.2 367.7 L 193.8 372.4 L 201.5 372.4 L 209.1 373.6 L 216.8 378.3 L 224.5 371.2 L 232.1 373.6 L 239.8 367.7 L 247.4 370.1 L 255.1 364.2 L 262.7 365.4 L 270.4 359.5 L 278.1 366.5 L 285.7 367.7 L 293.4 368.9 L 301.0 367.7 L 308.7 365.4 L 316.3 367.7 L 324.0 367.7 L 331.7 368.9 L 339.3 366.5 L 347.0 371.2 L 354.6 372.4 L 362.3 368.9 L 369.9 368.9 L 377.6 370.1 L 385.3 367.7 L 392.9 364.2 L 400.6 353.6 L 408.2 346.6 L 415.9 346.6 L 423.5 346.6 L 431.2 316.1 L 438.9 255.1 L 446.5 208.1 L 454.2 195.2 L 461.8 178.8 L 469.5 171.7 L 477.1 160.0 L 484.8 181.1 L 492.5 184.6 L 500.1 199.9 L 507.8 237.4 L 515.4 244.5 L 523.1 258.6 L 530.7 273.8 L 538.4 279.7 L 546.1 284.4 L 553.7 296.1 L 561.4 305.5 L 569.0 307.9 L 576.7 304.3 L 584.3 309.0 L 592.0 309.0 L 599.7 309.0 L 607.3 309.0 L 615.0 326.6 L 622.6 330.2 L 630.3 332.5 L 637.9 324.3 L 645.6 324.3 L 653.3 336.0 L 660.9 337.2 L 668.6 339.5 L 676.2 343.1 L 683.9 341.9 L 691.5 339.5 L 699.2 329.0 L 706.9 329.0 L 714.5 311.4 L 722.2 318.4 L 729.8 319.6 L 737.5 318.4 L 745.1 319.6 L 752.8 323.1 L 760.5 327.8 L 768.1 331.3 L 775.8 331.3 L 783.4 333.7 L 791.1 333.7 L 798.7 336.0 L 806.4 341.9 L 814.1 341.9 L 821.7 340.7 L 829.4 344.2 L 837.0 341.9 L 844.7 343.1 L 852.3 344.2 L 860.0 337.2 L 867.7 340.7 L 875.3 333.7 L 883.0 333.7 L 890.6 339.5 L 898.3 343.1 L 905.9 340.7 L 913.6 338.4 L 921.3 332.5 L 928.9 331.3 L 936.6 325.5 L 944.2 329.0 L 951.9 324.3 L 959.5 331.3 L 967.2 329.0 L 974.9 323.1 L 982.5 311.4 L 990.2 299.6 L 997.8 306.7 L 1005.5 298.5 L 1013.1 282.0 L 1020.8 293.8 L 1028.5 286.7 L 1036.1 294.9 L 1043.8 304.3 L 1051.4 305.5 L 1059.1 310.2 L 1066.7 307.9 L 1074.4 302.0 L 1082.1 309.0 L 1089.7 313.7 L 1097.4 316.1 L 1105.0 318.4 L 1112.7 319.6 L 1120.3 321.9 L 1128.0 329.0" fill="none" stroke="#1f6feb" stroke-width="3" stroke-linejoin="round" stroke-linecap="round"/>
<path d="M 56.0 388.8 L 63.7 388.8 L 71.3 388.8 L 79.0 390.0 L 86.6 390.0 L 94.3 388.8 L 101.9 388.8 L 109.6 386.5 L 117.3 386.5 L 124.9 387.7 L 132.6 386.5 L 140.2 385.3 L 147.9 384.1 L 155.5 383.0 L 163.2 368.9 L 170.9 372.4 L 178.5 372.4 L 186.2 368.9 L 193.8 367.7 L 201.5 372.4 L 209.1 372.4 L 216.8 373.6 L 224.5 378.3 L 232.1 371.2 L 239.8 373.6 L 247.4 367.7 L 255.1 370.1 L 262.7 364.2 L 270.4 365.4 L 278.1 359.5 L 285.7 366.5 L 293.4 367.7 L 301.0 368.9 L 308.7 367.7 L 316.3 365.4 L 324.0 367.7 L 331.7 367.7 L 339.3 368.9 L 347.0 366.5 L 354.6 371.2 L 362.3 372.4 L 369.9 368.9 L 377.6 368.9 L 385.3 370.1 L 392.9 367.7 L 400.6 364.2 L 408.2 353.6 L 415.9 346.6 L 423.5 346.6 L 431.2 346.6 L 438.9 316.1 L 446.5 255.1 L 454.2 208.1 L 461.8 195.2 L 469.5 178.8 L 477.1 171.7 L 484.8 160.0 L 492.5 181.1 L 500.1 184.6 L 507.8 199.9 L 515.4 237.4 L 523.1 244.5 L 530.7 258.6 L 538.4 273.8 L 546.1 279.7 L 553.7 284.4 L 561.4 296.1 L 569.0 305.5 L 576.7 307.9 L 584.3 304.3 L 592.0 309.0 L 599.7 309.0 L 607.3 309.0 L 615.0 309.0 L 622.6 326.6 L 630.3 330.2 L 637.9 332.5 L 645.6 324.3 L 653.3 333.7 L 660.9 336.0 L 668.6 337.2 L 676.2 339.5 L 683.9 343.1 L 691.5 341.9 L 699.2 339.5 L 706.9 329.0 L 714.5 329.0 L 722.2 311.4 L 729.8 318.4 L 737.5 319.6 L 745.1 318.4 L 752.8 319.6 L 760.5 323.1 L 768.1 327.8 L 775.8 331.3 L 783.4 331.3 L 791.1 333.7 L 798.7 333.7 L 806.4 336.0 L 814.1 341.9 L 821.7 341.9 L 829.4 340.7 L 837.0 344.2 L 844.7 341.9 L 852.3 343.1 L 860.0 344.2 L 867.7 337.2 L 875.3 340.7 L 883.0 333.7 L 890.6 333.7 L 898.3 339.5 L 905.9 343.1 L 913.6 340.7 L 921.3 338.4 L 928.9 332.5 L 936.6 331.3 L 944.2 325.5 L 951.9 329.0 L 959.5 324.3 L 967.2 331.3 L 974.9 329.0 L 982.5 323.1 L 990.2 311.4 L 997.8 299.6 L 1005.5 306.7 L 1013.1 298.5 L 1020.8 282.0 L 1028.5 293.8 L 1036.1 286.7 L 1043.8 294.9 L 1051.4 304.3 L 1059.1 305.5 L 1066.7 310.2 L 1074.4 307.9 L 1082.1 302.0 L 1089.7 309.0 L 1097.4 313.7 L 1105.0 316.1 L 1112.7 318.4 L 1120.3 319.6 L 1128.0 321.9" fill="none" stroke="#d97706" stroke-width="3" stroke-dasharray="8 6" stroke-linejoin="round" stroke-linecap="round"/>
<path d="M 56.0 388.8 L 63.7 388.8 L 71.3 388.8 L 79.0 390.0 L 86.6 390.0 L 94.3 388.8 L 101.9 388.8 L 109.6 386.5 L 117.3 386.5 L 124.9 387.7 L 132.6 386.5 L 140.2 385.3 L 147.9 384.1 L 155.5 383.0 L 163.2 368.9 L 170.9 372.4 L 178.5 372.4 L 186.2 368.9 L 193.8 367.7 L 201.5 372.4 L 209.1 372.4 L 216.8 373.6 L 224.5 378.3 L 232.1 371.2 L 239.8 373.6 L 247.4 367.7 L 255.1 370.1 L 262.7 364.2 L 270.4 365.4 L 278.1 359.5 L 285.7 366.5 L 293.4 367.7 L 301.0 368.9 L 308.7 367.7 L 316.3 365.4 L 324.0 367.7 L 331.7 367.7 L 339.3 368.9 L 347.0 366.5 L 354.6 371.2 L 362.3 372.4 L 369.9 368.2 L 377.6 368.9 L 385.3 370.1 L 392.9 367.7 L 400.6 364.2 L 408.2 353.6 L 415.9 346.6 L 423.5 346.6 L 431.2 346.6 L 438.9 316.1 L 446.5 255.1 L 454.2 208.1 L 461.8 195.2 L 469.5 178.8 L 477.1 172.3 L 484.8 161.9 L 492.5 185.1 L 500.1 189.5 L 507.8 203.6 L 515.4 240.6 L 523.1 247.7 L 530.7 262.8 L 538.4 277.4 L 546.1 282.7 L 553.7 286.0 L 561.4 295.1 L 569.0 307.7 L 576.7 307.4 L 584.3 303.7 L 592.0 309.0 L 599.7 310.3 L 607.3 312.3 L 615.0 310.4 L 622.6 327.9 L 630.3 330.4 L 637.9 334.4 L 645.6 326.0 L 653.3 333.6 L 660.9 334.3 L 668.6 337.0 L 676.2 337.9 L 683.9 343.2 L 691.5 341.1 L 699.2 338.9 L 706.9 327.5 L 714.5 328.1 L 722.2 310.7 L 729.8 318.4 L 737.5 319.6 L 745.1 318.4 L 752.8 319.6 L 760.5 323.1 L 768.1 327.8 L 775.8 331.3 L 783.4 331.3 L 791.1 336.2 L 798.7 333.7 L 806.4 336.8 L 814.1 343.6 L 821.7 343.8 L 829.4 339.9 L 837.0 342.9 L 844.7 342.7 L 852.3 343.0 L 860.0 344.9 L 867.7 337.0 L 875.3 340.4 L 883.0 334.0 L 890.6 332.9 L 898.3 338.9 L 905.9 342.7 L 913.6 340.1 L 921.3 337.7 L 928.9 332.0 L 936.6 333.2 L 944.2 326.6 L 951.9 328.3 L 959.5 324.2 L 967.2 331.4 L 974.9 329.3 L 982.5 325.9 L 990.2 312.0 L 997.8 300.9 L 1005.5 305.5 L 1013.1 299.5 L 1020.8 281.1 L 1028.5 293.3 L 1036.1 287.0 L 1043.8 299.0 L 1051.4 302.2 L 1059.1 304.7 L 1066.7 311.1 L 1074.4 308.5 L 1082.1 302.2 L 1089.7 308.0 L 1097.4 313.3 L 1105.0 317.9 L 1112.7 318.3 L 1120.3 320.7 L 1128.0 322.1" fill="none" stroke="#15803d" stroke-width="3" stroke-dasharray="8 6" stroke-linejoin="round" stroke-linecap="round"/>
<path d="M 56.0 388.8 L 63.7 388.8 L 71.3 388.8 L 79.0 390.0 L 86.6 390.0 L 94.3 388.8 L 101.9 388.8 L 109.6 386.5 L 117.3 386.5 L 124.9 387.7 L 132.6 386.5 L 140.2 385.3 L 147.9 384.1 L 155.5 383.0 L 163.2 368.9 L 170.9 372.4 L 178.5 372.4 L 186.2 368.9 L 193.8 367.7 L 201.5 372.4 L 209.1 372.4 L 216.8 373.6 L 224.5 378.3 L 232.1 371.2 L 239.8 373.6 L 247.4 367.7 L 255.1 370.1 L 262.7 364.2 L 270.4 365.4 L 278.1 359.5 L 285.7 366.5 L 293.4 367.7 L 301.0 368.9 L 308.7 367.7 L 316.3 365.4 L 324.0 367.7 L 331.7 367.7 L 339.3 368.9 L 347.0 366.5 L 354.6 371.2 L 362.3 372.4 L 369.9 368.9 L 377.6 368.9 L 385.3 370.1 L 392.9 367.7 L 400.6 364.2 L 408.2 353.6 L 415.9 346.6 L 423.5 346.6 L 431.2 346.6 L 438.9 316.1 L 446.5 255.1 L 454.2 208.1 L 461.8 195.2 L 469.5 178.8 L 477.1 171.7 L 484.8 160.0 L 492.5 181.1 L 500.1 184.6 L 507.8 199.9 L 515.4 237.4 L 523.1 244.5 L 530.7 258.6 L 538.4 273.8 L 546.1 279.7 L 553.7 284.4 L 561.4 296.1 L 569.0 305.5 L 576.7 307.9 L 584.3 304.3 L 592.0 309.0 L 599.7 309.0 L 607.3 309.0 L 615.0 309.0 L 622.6 326.6 L 630.3 330.2 L 637.9 332.5 L 645.6 324.3 L 653.3 333.7 L 660.9 336.0 L 668.6 337.2 L 676.2 339.5 L 683.9 343.1 L 691.5 341.9 L 699.2 339.5 L 706.9 329.0 L 714.5 329.0 L 722.2 311.4 L 729.8 318.4 L 737.5 319.6 L 745.1 318.4 L 752.8 319.6 L 760.5 323.1 L 768.1 327.8 L 775.8 331.3 L 783.4 331.3 L 791.1 333.7 L 798.7 333.7 L 806.4 336.0 L 814.1 341.9 L 821.7 341.9 L 829.4 340.7 L 837.0 344.2 L 844.7 341.9 L 852.3 343.1 L 860.0 344.2 L 867.7 337.2 L 875.3 340.7 L 883.0 333.7 L 890.6 333.7 L 898.3 339.5 L 905.9 343.1 L 913.6 340.7 L 921.3 338.4 L 928.9 332.5 L 936.6 331.3 L 944.2 325.5 L 951.9 329.0 L 959.5 324.3 L 967.2 331.3 L 974.9 329.0 L 982.5 323.1 L 990.2 311.4 L 997.8 299.6 L 1005.5 306.7 L 1013.1 298.5 L 1020.8 282.0 L 1028.5 293.8 L 1036.1 286.7 L 1043.8 294.9 L 1051.4 304.3 L 1059.1 305.5 L 1066.7 310.2 L 1074.4 307.9 L 1082.1 302.0 L 1089.7 309.0 L 1097.4 313.7 L 1105.0 316.1 L 1112.7 318.4 L 1120.3 319.6 L 1128.0 321.9" fill="none" stroke="#7c3aed" stroke-width="3" stroke-dasharray="8 6" stroke-linejoin="round" stroke-linecap="round"/>
<circle cx="816" cy="148" r="5" fill="#1f6feb"/>
<text x="828.0" y="153.0" fill="#6e6a63" font-size="13" font-family="Pretendard, Noto Sans KR, sans-serif" text-anchor="start">실제값</text>
<circle cx="896" cy="148" r="5" fill="#d97706"/>
<text x="908.0" y="153.0" fill="#6e6a63" font-size="13" font-family="Pretendard, Noto Sans KR, sans-serif" text-anchor="start">현재값 유지</text>
<circle cx="1016" cy="148" r="5" fill="#15803d"/>
<text x="1028.0" y="153.0" fill="#6e6a63" font-size="13" font-family="Pretendard, Noto Sans KR, sans-serif" text-anchor="start">요일 피크 보정</text>
<circle cx="1136" cy="148" r="5" fill="#7c3aed"/>
<text x="1148.0" y="153.0" fill="#6e6a63" font-size="13" font-family="Pretendard, Noto Sans KR, sans-serif" text-anchor="start">메뉴 피크 보정</text>
<text x="56.0" y="412.0" fill="#6e6a63" font-size="11" font-family="Pretendard, Noto Sans KR, sans-serif" text-anchor="middle">07:35</text>
<text x="186.2" y="412.0" fill="#6e6a63" font-size="11" font-family="Pretendard, Noto Sans KR, sans-serif" text-anchor="middle">09:00</text>
<text x="316.3" y="412.0" fill="#6e6a63" font-size="11" font-family="Pretendard, Noto Sans KR, sans-serif" text-anchor="middle">10:25</text>
<text x="446.5" y="412.0" fill="#6e6a63" font-size="11" font-family="Pretendard, Noto Sans KR, sans-serif" text-anchor="middle">11:50</text>
<text x="576.7" y="412.0" fill="#6e6a63" font-size="11" font-family="Pretendard, Noto Sans KR, sans-serif" text-anchor="middle">13:15</text>
<text x="706.9" y="412.0" fill="#6e6a63" font-size="11" font-family="Pretendard, Noto Sans KR, sans-serif" text-anchor="middle">14:50</text>
<text x="837.0" y="412.0" fill="#6e6a63" font-size="11" font-family="Pretendard, Noto Sans KR, sans-serif" text-anchor="middle">16:15</text>
<text x="967.2" y="412.0" fill="#6e6a63" font-size="11" font-family="Pretendard, Noto Sans KR, sans-serif" text-anchor="middle">17:40</text>
<text x="1097.4" y="412.0" fill="#6e6a63" font-size="11" font-family="Pretendard, Noto Sans KR, sans-serif" text-anchor="middle">19:05</text>
<text x="1128.0" y="412.0" fill="#6e6a63" font-size="11" font-family="Pretendard, Noto Sans KR, sans-serif" text-anchor="middle">19:25</text>
<text x="56.0" y="434.0" fill="#14532d" font-size="22" font-family="Pretendard, Noto Sans KR, sans-serif" text-anchor="start">30분 후 최종 규칙</text>
<line x1="56" y1="680.0" x2="1128" y2="680.0" stroke="#eee1cf" stroke-width="1"/>
<text x="42.0" y="684.0" fill="#6e6a63" font-size="12" font-family="Pretendard, Noto Sans KR, sans-serif" text-anchor="end">16.0</text>
<line x1="56" y1="622.5" x2="1128" y2="622.5" stroke="#eee1cf" stroke-width="1"/>
<text x="42.0" y="626.5" fill="#6e6a63" font-size="12" font-family="Pretendard, Noto Sans KR, sans-serif" text-anchor="end">64.8</text>
<line x1="56" y1="565.0" x2="1128" y2="565.0" stroke="#eee1cf" stroke-width="1"/>
<text x="42.0" y="569.0" fill="#6e6a63" font-size="12" font-family="Pretendard, Noto Sans KR, sans-serif" text-anchor="end">113.5</text>
<line x1="56" y1="507.5" x2="1128" y2="507.5" stroke="#eee1cf" stroke-width="1"/>
<text x="42.0" y="511.5" fill="#6e6a63" font-size="12" font-family="Pretendard, Noto Sans KR, sans-serif" text-anchor="end">162.3</text>
<line x1="56" y1="450.0" x2="1128" y2="450.0" stroke="#eee1cf" stroke-width="1"/>
<text x="42.0" y="454.0" fill="#6e6a63" font-size="12" font-family="Pretendard, Noto Sans KR, sans-serif" text-anchor="end">211.0</text>
<line x1="56" y1="680" x2="1128" y2="680" stroke="#d7c6ad" stroke-width="1.2"/>
<path d="M 56.0 680.0 L 63.9 677.6 L 71.9 677.6 L 79.8 678.8 L 87.8 677.6 L 95.7 676.5 L 103.6 675.3 L 111.6 674.1 L 119.5 659.9 L 127.5 663.5 L 135.4 663.5 L 143.3 659.9 L 151.3 658.8 L 159.2 663.5 L 167.2 663.5 L 175.1 664.7 L 183.1 669.4 L 191.0 662.3 L 198.9 664.7 L 206.9 658.8 L 214.8 661.1 L 222.8 655.2 L 230.7 656.4 L 238.6 650.5 L 246.6 657.6 L 254.5 658.8 L 262.5 659.9 L 270.4 658.8 L 278.3 656.4 L 286.3 658.8 L 294.2 658.8 L 302.2 659.9 L 310.1 657.6 L 318.0 662.3 L 326.0 663.5 L 333.9 659.9 L 341.9 659.9 L 349.8 661.1 L 357.7 658.8 L 365.7 655.2 L 373.6 644.6 L 381.6 637.5 L 389.5 637.5 L 397.5 637.5 L 405.4 606.9 L 413.3 545.5 L 421.3 498.4 L 429.2 485.4 L 437.2 468.9 L 445.1 461.8 L 453.0 450.0 L 461.0 471.2 L 468.9 474.8 L 476.9 490.1 L 484.8 527.8 L 492.7 534.9 L 500.7 549.1 L 508.6 564.4 L 516.6 570.3 L 524.5 575.0 L 532.4 586.8 L 540.4 596.3 L 548.3 598.6 L 556.3 595.1 L 564.2 599.8 L 572.1 599.8 L 580.1 599.8 L 588.0 599.8 L 596.0 617.5 L 603.9 621.0 L 611.9 623.4 L 619.8 615.1 L 627.7 615.1 L 635.7 624.6 L 643.6 626.9 L 651.6 628.1 L 659.5 630.5 L 667.4 634.0 L 675.4 630.5 L 683.3 619.8 L 691.3 619.8 L 699.2 602.2 L 707.1 609.2 L 715.1 610.4 L 723.0 609.2 L 731.0 610.4 L 738.9 613.9 L 746.8 618.7 L 754.8 622.2 L 762.7 622.2 L 770.7 624.6 L 778.6 624.6 L 786.5 626.9 L 794.5 632.8 L 802.4 632.8 L 810.4 631.6 L 818.3 635.2 L 826.3 632.8 L 834.2 634.0 L 842.1 635.2 L 850.1 628.1 L 858.0 631.6 L 866.0 624.6 L 873.9 624.6 L 881.8 630.5 L 889.8 634.0 L 897.7 631.6 L 905.7 629.3 L 913.6 623.4 L 921.5 622.2 L 929.5 616.3 L 937.4 619.8 L 945.4 615.1 L 953.3 622.2 L 961.2 619.8 L 969.2 613.9 L 977.1 602.2 L 985.1 590.4 L 993.0 597.4 L 1000.9 589.2 L 1008.9 572.7 L 1016.8 584.5 L 1024.8 577.4 L 1032.7 585.6 L 1040.7 595.1 L 1048.6 596.3 L 1056.5 601.0 L 1064.5 598.6 L 1072.4 592.7 L 1080.4 599.8 L 1088.3 604.5 L 1096.2 606.9 L 1104.2 609.2 L 1112.1 610.4 L 1120.1 612.8 L 1128.0 619.8" fill="none" stroke="#1f6feb" stroke-width="3" stroke-linejoin="round" stroke-linecap="round"/>
<path d="M 56.0 678.8 L 63.9 677.4 L 71.9 677.6 L 79.8 678.1 L 87.8 677.5 L 95.7 675.6 L 103.6 675.1 L 111.6 672.8 L 119.5 672.6 L 127.5 673.1 L 135.4 670.9 L 143.3 670.7 L 151.3 670.2 L 159.2 671.2 L 167.2 657.4 L 175.1 662.0 L 183.1 663.6 L 191.0 659.5 L 198.9 659.1 L 206.9 663.8 L 214.8 663.9 L 222.8 665.0 L 230.7 669.5 L 238.6 663.7 L 246.6 665.4 L 254.5 658.9 L 262.5 660.4 L 270.4 654.1 L 278.3 655.0 L 286.3 647.3 L 294.2 652.9 L 302.2 652.2 L 310.1 653.0 L 318.0 651.4 L 326.0 647.6 L 333.9 647.7 L 341.9 648.5 L 349.8 649.8 L 357.7 647.7 L 365.7 652.7 L 373.6 655.2 L 381.6 652.3 L 389.5 649.5 L 397.5 645.8 L 405.4 634.3 L 413.3 622.4 L 421.3 604.1 L 429.2 590.6 L 437.2 589.3 L 445.1 591.9 L 453.0 572.3 L 461.0 522.2 L 468.9 487.5 L 476.9 488.6 L 484.8 480.6 L 492.7 480.0 L 500.7 470.8 L 508.6 494.4 L 516.6 497.6 L 524.5 511.0 L 532.4 546.7 L 540.4 549.6 L 548.3 562.8 L 556.3 573.4 L 564.2 575.1 L 572.1 576.7 L 580.1 588.2 L 588.0 601.9 L 596.0 603.4 L 603.9 601.6 L 611.9 607.1 L 619.8 609.2 L 627.7 609.6 L 635.7 624.3 L 643.6 626.4 L 651.6 626.8 L 659.5 616.4 L 667.4 613.1 L 675.4 620.3 L 683.3 622.1 L 691.3 623.6 L 699.2 625.2 L 707.1 629.7 L 715.1 629.0 L 723.0 625.6 L 731.0 616.4 L 738.9 616.4 L 746.8 599.0 L 754.8 606.2 L 762.7 605.0 L 770.7 605.0 L 778.6 608.0 L 786.5 613.0 L 794.5 619.1 L 802.4 624.9 L 810.4 628.5 L 818.3 630.7 L 826.3 626.9 L 834.2 630.0 L 842.1 635.1 L 850.1 634.0 L 858.0 630.8 L 866.0 634.9 L 873.9 634.1 L 881.8 633.7 L 889.8 634.3 L 897.7 626.2 L 905.7 629.3 L 913.6 621.8 L 921.5 621.0 L 929.5 629.5 L 937.4 634.9 L 945.4 632.1 L 953.3 630.3 L 961.2 625.1 L 969.2 624.7 L 977.1 619.8 L 985.1 622.8 L 993.0 620.0 L 1000.9 626.0 L 1008.9 624.6 L 1016.8 617.5 L 1024.8 602.5 L 1032.7 590.3 L 1040.7 600.2 L 1048.6 590.9 L 1056.5 572.6 L 1064.5 586.2 L 1072.4 580.2 L 1080.4 588.4 L 1088.3 592.8 L 1096.2 595.8 L 1104.2 603.2 L 1112.1 599.8 L 1120.1 594.4 L 1128.0 601.5" fill="none" stroke="#d97706" stroke-width="3" stroke-dasharray="8 6" stroke-linejoin="round" stroke-linecap="round"/>
<circle cx="976" cy="438" r="5" fill="#1f6feb"/>
<text x="988.0" y="443.0" fill="#6e6a63" font-size="13" font-family="Pretendard, Noto Sans KR, sans-serif" text-anchor="start">실제값</text>
<circle cx="1076" cy="438" r="5" fill="#d97706"/>
<text x="1088.0" y="443.0" fill="#6e6a63" font-size="13" font-family="Pretendard, Noto Sans KR, sans-serif" text-anchor="start">최종 예측값</text>
<text x="56.0" y="702.0" fill="#6e6a63" font-size="11" font-family="Pretendard, Noto Sans KR, sans-serif" text-anchor="middle">08:00</text>
<text x="191.0" y="702.0" fill="#6e6a63" font-size="11" font-family="Pretendard, Noto Sans KR, sans-serif" text-anchor="middle">09:25</text>
<text x="326.0" y="702.0" fill="#6e6a63" font-size="11" font-family="Pretendard, Noto Sans KR, sans-serif" text-anchor="middle">10:50</text>
<text x="461.0" y="702.0" fill="#6e6a63" font-size="11" font-family="Pretendard, Noto Sans KR, sans-serif" text-anchor="middle">12:15</text>
<text x="596.0" y="702.0" fill="#6e6a63" font-size="11" font-family="Pretendard, Noto Sans KR, sans-serif" text-anchor="middle">13:40</text>
<text x="731.0" y="702.0" fill="#6e6a63" font-size="11" font-family="Pretendard, Noto Sans KR, sans-serif" text-anchor="middle">15:15</text>
<text x="866.0" y="702.0" fill="#6e6a63" font-size="11" font-family="Pretendard, Noto Sans KR, sans-serif" text-anchor="middle">16:40</text>
<text x="1000.9" y="702.0" fill="#6e6a63" font-size="11" font-family="Pretendard, Noto Sans KR, sans-serif" text-anchor="middle">18:05</text>
<text x="1128.0" y="702.0" fill="#6e6a63" font-size="11" font-family="Pretendard, Noto Sans KR, sans-serif" text-anchor="middle">19:25</text>
<text x="56.0" y="724.0" fill="#14532d" font-size="22" font-family="Pretendard, Noto Sans KR, sans-serif" text-anchor="start">60분 후 최종 규칙</text>
<line x1="56" y1="950.0" x2="1128" y2="950.0" stroke="#eee1cf" stroke-width="1"/>
<text x="42.0" y="954.0" fill="#6e6a63" font-size="12" font-family="Pretendard, Noto Sans KR, sans-serif" text-anchor="end">20.0</text>
<line x1="56" y1="897.5" x2="1128" y2="897.5" stroke="#eee1cf" stroke-width="1"/>
<text x="42.0" y="901.5" fill="#6e6a63" font-size="12" font-family="Pretendard, Noto Sans KR, sans-serif" text-anchor="end">67.8</text>
<line x1="56" y1="845.0" x2="1128" y2="845.0" stroke="#eee1cf" stroke-width="1"/>
<text x="42.0" y="849.0" fill="#6e6a63" font-size="12" font-family="Pretendard, Noto Sans KR, sans-serif" text-anchor="end">115.5</text>
<line x1="56" y1="792.5" x2="1128" y2="792.5" stroke="#eee1cf" stroke-width="1"/>
<text x="42.0" y="796.5" fill="#6e6a63" font-size="12" font-family="Pretendard, Noto Sans KR, sans-serif" text-anchor="end">163.3</text>
<line x1="56" y1="740.0" x2="1128" y2="740.0" stroke="#eee1cf" stroke-width="1"/>
<text x="42.0" y="744.0" fill="#6e6a63" font-size="12" font-family="Pretendard, Noto Sans KR, sans-serif" text-anchor="end">211.0</text>
<line x1="56" y1="950" x2="1128" y2="950" stroke="#d7c6ad" stroke-width="1.2"/>
<path d="M 56.0 950.0 L 64.3 948.9 L 72.6 935.7 L 80.9 939.0 L 89.2 939.0 L 97.6 935.7 L 105.9 934.6 L 114.2 939.0 L 122.5 939.0 L 130.8 940.1 L 139.1 944.5 L 147.4 937.9 L 155.7 940.1 L 164.0 934.6 L 172.3 936.8 L 180.7 931.3 L 189.0 932.4 L 197.3 926.9 L 205.6 933.5 L 213.9 934.6 L 222.2 935.7 L 230.5 934.6 L 238.8 932.4 L 247.1 934.6 L 255.4 934.6 L 263.8 935.7 L 272.1 933.5 L 280.4 937.9 L 288.7 939.0 L 297.0 935.7 L 305.3 935.7 L 313.6 936.8 L 321.9 934.6 L 330.2 931.3 L 338.5 921.4 L 346.9 914.8 L 355.2 914.8 L 363.5 914.8 L 371.8 886.2 L 380.1 829.1 L 388.4 785.1 L 396.7 773.0 L 405.0 757.6 L 413.3 751.0 L 421.6 740.0 L 430.0 759.8 L 438.3 763.1 L 446.6 777.4 L 454.9 812.6 L 463.2 819.2 L 471.5 832.4 L 479.8 846.6 L 488.1 852.1 L 496.4 856.5 L 504.7 867.5 L 513.1 876.3 L 521.4 878.5 L 529.7 875.2 L 538.0 879.6 L 546.3 879.6 L 554.6 879.6 L 562.9 879.6 L 571.2 896.1 L 579.5 899.4 L 587.8 901.6 L 596.2 893.9 L 604.5 893.9 L 612.8 902.7 L 621.1 904.9 L 629.4 906.0 L 637.7 908.2 L 646.0 911.5 L 654.3 910.4 L 662.6 908.2 L 670.9 898.3 L 679.3 898.3 L 687.6 881.8 L 695.9 888.4 L 704.2 888.4 L 712.5 889.5 L 720.8 892.8 L 729.1 897.2 L 737.4 900.5 L 745.7 900.5 L 754.0 902.7 L 762.4 902.7 L 770.7 904.9 L 779.0 910.4 L 787.3 910.4 L 795.6 909.3 L 803.9 912.6 L 812.2 910.4 L 820.5 911.5 L 828.8 912.6 L 837.1 906.0 L 845.5 909.3 L 853.8 902.7 L 862.1 902.7 L 870.4 908.2 L 878.7 911.5 L 887.0 909.3 L 895.3 907.1 L 903.6 901.6 L 911.9 900.5 L 920.2 895.0 L 928.6 898.3 L 936.9 893.9 L 945.2 900.5 L 953.5 898.3 L 961.8 892.8 L 970.1 881.8 L 978.4 870.8 L 986.7 877.4 L 995.0 869.7 L 1003.3 854.3 L 1011.7 865.3 L 1020.0 858.7 L 1028.3 866.4 L 1036.6 875.2 L 1044.9 876.3 L 1053.2 880.7 L 1061.5 878.5 L 1069.8 873.0 L 1078.1 879.6 L 1086.4 884.0 L 1094.8 886.2 L 1103.1 888.4 L 1111.4 889.5 L 1119.7 891.7 L 1128.0 898.3" fill="none" stroke="#1f6feb" stroke-width="3" stroke-linejoin="round" stroke-linecap="round"/>
<path d="M 56.0 949.2 L 64.3 948.0 L 72.6 947.8 L 80.9 947.6 L 89.2 946.1 L 97.6 945.2 L 105.9 945.4 L 114.2 945.5 L 122.5 945.4 L 130.8 946.8 L 139.1 946.3 L 147.4 945.5 L 155.7 945.9 L 164.0 946.8 L 172.3 935.2 L 180.7 939.1 L 189.0 940.2 L 197.3 937.8 L 205.6 937.0 L 213.9 940.4 L 222.2 939.7 L 230.5 940.2 L 238.8 943.7 L 247.1 937.2 L 255.4 937.3 L 263.8 930.1 L 272.1 930.9 L 280.4 925.1 L 288.7 924.4 L 297.0 915.8 L 305.3 921.1 L 313.6 920.5 L 321.9 921.3 L 330.2 920.1 L 338.5 917.9 L 346.9 918.4 L 355.2 916.3 L 363.5 912.8 L 371.8 902.4 L 380.1 898.6 L 388.4 893.5 L 396.7 884.8 L 405.0 880.9 L 413.3 879.7 L 421.6 879.4 L 430.0 878.9 L 438.3 874.5 L 446.6 875.4 L 454.9 881.8 L 463.2 889.8 L 471.5 875.8 L 479.8 836.1 L 488.1 807.0 L 496.4 806.6 L 504.7 798.3 L 513.1 794.3 L 521.4 786.0 L 529.7 801.8 L 538.0 800.8 L 546.3 809.5 L 554.6 839.2 L 562.9 845.6 L 571.2 856.1 L 579.5 866.5 L 587.8 868.7 L 596.2 871.9 L 604.5 882.1 L 612.8 892.5 L 621.1 889.8 L 629.4 892.6 L 637.7 892.5 L 646.0 890.0 L 654.3 887.4 L 662.6 900.3 L 670.9 901.6 L 679.3 902.0 L 687.6 892.6 L 695.9 890.6 L 704.2 896.0 L 712.5 898.8 L 720.8 899.9 L 729.1 901.4 L 737.4 905.2 L 745.7 902.5 L 754.0 900.6 L 762.4 894.6 L 770.7 895.9 L 779.0 882.5 L 787.3 890.6 L 795.6 892.8 L 803.9 892.6 L 812.2 891.7 L 820.5 896.6 L 828.8 901.1 L 837.1 905.1 L 845.5 906.5 L 853.8 908.7 L 862.1 906.9 L 870.4 908.1 L 878.7 911.8 L 887.0 910.0 L 895.3 906.9 L 903.6 909.9 L 911.9 908.5 L 920.2 910.5 L 928.6 912.7 L 936.9 905.5 L 945.2 908.5 L 953.5 902.9 L 961.8 902.9 L 970.1 911.1 L 978.4 915.2 L 986.7 914.6 L 995.0 912.1 L 1003.3 908.6 L 1011.7 907.2 L 1020.0 900.3 L 1028.3 902.5 L 1036.6 902.9 L 1044.9 906.9 L 1053.2 904.1 L 1061.5 899.8 L 1069.8 888.1 L 1078.1 877.9 L 1086.4 881.8 L 1094.8 875.5 L 1103.1 862.6 L 1111.4 873.2 L 1119.7 868.7 L 1128.0 875.5" fill="none" stroke="#d97706" stroke-width="3" stroke-dasharray="8 6" stroke-linejoin="round" stroke-linecap="round"/>
<circle cx="976" cy="728" r="5" fill="#1f6feb"/>
<text x="988.0" y="733.0" fill="#6e6a63" font-size="13" font-family="Pretendard, Noto Sans KR, sans-serif" text-anchor="start">실제값</text>
<circle cx="1076" cy="728" r="5" fill="#d97706"/>
<text x="1088.0" y="733.0" fill="#6e6a63" font-size="13" font-family="Pretendard, Noto Sans KR, sans-serif" text-anchor="start">최종 예측값</text>
<text x="56.0" y="972.0" fill="#6e6a63" font-size="11" font-family="Pretendard, Noto Sans KR, sans-serif" text-anchor="middle">08:30</text>
<text x="189.0" y="972.0" fill="#6e6a63" font-size="11" font-family="Pretendard, Noto Sans KR, sans-serif" text-anchor="middle">09:50</text>
<text x="321.9" y="972.0" fill="#6e6a63" font-size="11" font-family="Pretendard, Noto Sans KR, sans-serif" text-anchor="middle">11:10</text>
<text x="454.9" y="972.0" fill="#6e6a63" font-size="11" font-family="Pretendard, Noto Sans KR, sans-serif" text-anchor="middle">12:30</text>
<text x="587.8" y="972.0" fill="#6e6a63" font-size="11" font-family="Pretendard, Noto Sans KR, sans-serif" text-anchor="middle">13:50</text>
<text x="720.8" y="972.0" fill="#6e6a63" font-size="11" font-family="Pretendard, Noto Sans KR, sans-serif" text-anchor="middle">15:20</text>
<text x="853.8" y="972.0" fill="#6e6a63" font-size="11" font-family="Pretendard, Noto Sans KR, sans-serif" text-anchor="middle">16:40</text>
<text x="986.7" y="972.0" fill="#6e6a63" font-size="11" font-family="Pretendard, Noto Sans KR, sans-serif" text-anchor="middle">18:00</text>
<text x="1119.7" y="972.0" fill="#6e6a63" font-size="11" font-family="Pretendard, Noto Sans KR, sans-serif" text-anchor="middle">19:20</text>
<text x="1128.0" y="972.0" fill="#6e6a63" font-size="11" font-family="Pretendard, Noto Sans KR, sans-serif" text-anchor="middle">19:25</text>
</svg>