<svg xmlns="http://www.w3.org/2000/svg" width="1200" height="980" viewBox="0 0 1200 980">
<rect width="100%" height="100%" fill="#fffaf2"/>
<rect x="24" y="20" width="1152" height="940" rx="26" fill="#fffdf9" stroke="#e7d7bf"/>
<text x="56.0" y="70.0" fill="#1f2a2e" font-size="32" font-family="Pretendard, Noto Sans KR, sans-serif" text-anchor="start">제3학생회관 · 2026-03-17 시간대별 검증</text>
<text x="56.0" y="100.0" fill="#6e6a63" font-size="15" font-family="Pretendard, Noto Sans KR, sans-serif" text-anchor="start">파란선은 실제값입니다. 첫 번째 패널에서는 5분 후 후보 방식들을 함께 비교하였습니다.</text>
<text x="56.0" y="144.0" fill="#14532d" font-size="22" font-family="Pretendard, Noto Sans KR, sans-serif" text-anchor="start">5분 후 비교</text>
<line x1="56" y1="390.0" x2="1128" y2="390.0" stroke="#eee1cf" stroke-width="1"/>
<text x="42.0" y="394.0" fill="#6e6a63" font-size="12" font-family="Pretendard, Noto Sans KR, sans-serif" text-anchor="end">11.0</text>
<line x1="56" y1="332.5" x2="1128" y2="332.5" stroke="#eee1cf" stroke-width="1"/>
<text x="42.0" y="336.5" fill="#6e6a63" font-size="12" font-family="Pretendard, Noto Sans KR, sans-serif" text-anchor="end">55.5</text>
<line x1="56" y1="275.0" x2="1128" y2="275.0" stroke="#eee1cf" stroke-width="1"/>
<text x="42.0" y="279.0" fill="#6e6a63" font-size="12" font-family="Pretendard, Noto Sans KR, sans-serif" text-anchor="end">100.0</text>
<line x1="56" y1="217.5" x2="1128" y2="217.5" stroke="#eee1cf" stroke-width="1"/>
<text x="42.0" y="221.5" fill="#6e6a63" font-size="12" font-family="Pretendard, Noto Sans KR, sans-serif" text-anchor="end">144.5</text>
<line x1="56" y1="160.0" x2="1128" y2="160.0" stroke="#eee1cf" stroke-width="1"/>
<text x="42.0" y="164.0" fill="#6e6a63" font-size="12" font-family="Pretendard, Noto Sans KR, sans-serif" text-anchor="end">189.0</text>
<line x1="56" y1="390" x2="1128" y2="390" stroke="#d7c6ad" stroke-width="1.2"/>
<path d="M 56.0 378.4 L 63.8 375.8 L 71.5 374.5 L 79.3 384.8 L 87.1 384.8 L 94.8 383.5 L 102.6 383.5 L 110.4 379.7 L 118.1 381.0 L 125.9 381.0 L 133.7 377.1 L 141.4 378.4 L 149.2 378.4 L 157.0 373.2 L 164.8 370.6 L 172.5 377.1 L 180.3 374.5 L 188.1 375.8 L 195.8 373.2 L 203.6 366.7 L 211.4 365.4 L 219.1 374.5 L 226.9 374.5 L 234.7 373.2 L 242.4 378.4 L 250.2 378.4 L 258.0 377.1 L 265.7 384.8 L 273.5 387.4 L 281.3 386.1 L 289.0 382.2 L 296.8 384.8 L 304.6 383.5 L 312.3 384.8 L 320.1 384.8 L 327.9 384.8 L 335.7 383.5 L 343.4 384.8 L 351.2 386.1 L 359.0 384.8 L 366.7 384.8 L 374.5 382.2 L 382.3 375.8 L 390.0 371.9 L 397.8 365.4 L 405.6 329.3 L 413.3 329.3 L 421.1 306.0 L 428.9 281.5 L 436.6 220.7 L 444.4 185.8 L 452.2 160.0 L 459.9 170.3 L 467.7 176.8 L 475.5 185.8 L 483.2 218.1 L 491.0 254.3 L 498.8 282.8 L 506.6 295.7 L 514.3 316.3 L 522.1 330.6 L 529.9 335.7 L 537.6 329.3 L 545.4 348.7 L 553.2 355.1 L 560.9 348.7 L 568.7 365.4 L 576.5 365.4 L 584.2 359.0 L 592.0 361.6 L 599.8 359.0 L 607.5 356.4 L 615.3 364.2 L 623.1 364.2 L 630.8 362.9 L 638.6 364.2 L 646.4 362.9 L 654.1 356.4 L 661.9 361.6 L 669.7 365.4 L 677.4 365.4 L 685.2 361.6 L 693.0 362.9 L 700.8 364.2 L 708.5 366.7 L 716.3 361.6 L 724.1 357.7 L 731.8 365.4 L 739.6 361.6 L 747.4 356.4 L 755.1 362.9 L 762.9 360.3 L 770.7 355.1 L 778.4 353.8 L 786.2 356.4 L 794.0 355.1 L 801.7 360.3 L 809.5 360.3 L 817.3 361.6 L 825.0 359.0 L 832.8 353.8 L 840.6 349.9 L 848.3 366.7 L 856.1 361.6 L 863.9 365.4 L 871.7 364.2 L 879.4 366.7 L 887.2 366.7 L 895.0 359.0 L 902.7 364.2 L 910.5 360.3 L 918.3 362.9 L 926.0 364.2 L 933.8 360.3 L 941.6 365.4 L 949.3 361.6 L 957.1 346.1 L 964.9 334.4 L 972.6 320.2 L 980.4 318.9 L 988.2 311.2 L 995.9 304.7 L 1003.7 303.4 L 1011.5 289.2 L 1019.2 281.5 L 1027.0 275.0 L 1034.8 276.3 L 1042.6 277.6 L 1050.3 290.5 L 1058.1 297.0 L 1065.9 304.7 L 1073.6 317.6 L 1081.4 311.2 L 1089.2 337.0 L 1096.9 349.9 L 1104.7 349.9 L 1112.5 348.7 L 1120.2 359.0 L 1128.0 360.3" fill="none" stroke="#1f6feb" stroke-width="3" stroke-linejoin="round" stroke-linecap="round"/>
<path d="M 56.0 390.0 L 63.8 378.4 L 71.5 375.8 L 79.3 374.5 L 87.1 384.8 L 94.8 384.8 L 102.6 383.5 L 110.4 383.5 L 118.1 379.7 L 125.9 381.0 L 133.7 381.0 L 141.4 377.1 L 149.2 378.4 L 157.0 378.4 L 164.8 373.2 L 172.5 370.6 L 180.3 377.1 L 188.1 374.5 L 195.8 375.8 L 203.6 373.2 L 211.4 366.7 L 219.1 365.4 L 226.9 374.5 L 234.7 374.5 L 242.4 373.2 L 250.2 378.4 L 258.0 378.4 L 265.7 377.1 L 273.5 384.8 L 281.3 387.4 L 289.0 386.1 L 296.8 382.2 L 304.6 384.8 L 312.3 383.5 L 320.1 384.8 L 327.9 384.8 L 335.7 384.8 L 343.4 383.5 L 351.2 384.8 L 359.0 386.1 L 366.7 384.8 L 374.5 384.8 L 382.3 382.2 L 390.0 375.8 L 397.8 371.9 L 405.6 356.4 L 413.3 329.3 L 421.1 329.3 L 428.9 306.0 L 436.6 281.5 L 444.4 220.7 L 452.2 185.8 L 459.9 160.0 L 467.7 170.3 L 475.5 176.8 L 483.2 185.8 L 491.0 218.1 L 498.8 254.3 L 506.6 282.8 L 514.3 295.7 L 522.1 316.3 L 529.9 330.6 L 537.6 335.7 L 545.4 329.3 L 553.2 348.7 L 560.9 355.1 L 568.7 348.7 L 576.5 365.4 L 584.2 365.4 L 592.0 359.0 L 599.8 361.6 L 607.5 359.0 L 615.3 356.4 L 623.1 364.2 L 630.8 364.2 L 638.6 362.9 L 646.4 364.2 L 654.1 362.9 L 661.9 356.4 L 669.7 361.6 L 677.4 365.4 L 685.2 365.4 L 693.0 361.6 L 700.8 362.9 L 708.5 364.2 L 716.3 366.7 L 724.1 361.6 L 731.8 357.7 L 739.6 365.4 L 747.4 361.6 L 755.1 356.4 L 762.9 362.9 L 770.7 360.3 L 778.4 355.1 L 786.2 353.8 L 794.0 356.4 L 801.7 355.1 L 809.5 360.3 L 817.3 360.3 L 825.0 361.6 L 832.8 359.0 L 840.6 353.8 L 848.3 349.9 L 856.1 366.7 L 863.9 361.6 L 871.7 365.4 L 879.4 364.2 L 887.2 366.7 L 895.0 366.7 L 902.7 359.0 L 910.5 364.2 L 918.3 360.3 L 926.0 362.9 L 933.8 364.2 L 941.6 360.3 L 949.3 365.4 L 957.1 361.6 L 964.9 346.1 L 972.6 334.4 L 980.4 320.2 L 988.2 318.9 L 995.9 311.2 L 1003.7 304.7 L 1011.5 303.4 L 1019.2 289.2 L 1027.0 281.5 L 1034.8 275.0 L 1042.6 276.3 L 1050.3 277.6 L 1058.1 290.5 L 1065.9 297.0 L 1073.6 304.7 L 1081.4 317.6 L 1089.2 311.2 L 1096.9 337.0 L 1104.7 349.9 L 1112.5 349.9 L 1120.2 348.7 L 1128.0 359.0" fill="none" stroke="#d97706" stroke-width="3" stroke-dasharray="8 6" stroke-linejoin="round" stroke-linecap="round"/>
<path d="M 56.0 390.0 L 63.8 378.4 L 71.5 375.8 L 79.3 374.5 L 87.1 384.8 L 94.8 384.8 L 102.6 383.5 L 110.4 383.5 L 118.1 379.7 L 125.9 381.0 L 133.7 381.0 L 141.4 377.1 L 149.2 378.4 L 157.0 378.5 L 164.8 373.9 L 172.5 372.0 L 180.3 376.9 L 188.1 374.4 L 195.8 375.7 L 203.6 373.5 L 211.4 366.5 L 219.1 365.5 L 226.9 374.8 L 234.7 374.9 L 242.4 372.5 L 250.2 379.0 L 258.0 378.6 L 265.7 376.8 L 273.5 384.5 L 281.3 387.5 L 289.0 385.7 L 296.8 381.6 L 304.6 384.7 L 312.3 383.2 L 320.1 385.1 L 327.9 385.2 L 335.7 384.6 L 343.4 382.9 L 351.2 384.5 L 359.0 385.5 L 366.7 384.8 L 374.5 384.8 L 382.3 382.2 L 390.0 375.8 L 397.8 371.9 L 405.6 356.4 L 413.3 329.3 L 421.1 329.3 L 428.9 306.0 L 436.6 281.5 L 444.4 220.7 L 452.2 185.8 L 459.9 160.0 L 467.7 176.8 L 475.5 181.3 L 483.2 195.7 L 491.0 225.6 L 498.8 259.9 L 506.6 289.5 L 514.3 302.5 L 522.1 319.7 L 529.9 335.2 L 537.6 337.9 L 545.4 331.4 L 553.2 352.4 L 560.9 356.3 L 568.7 350.7 L 576.5 367.2 L 584.2 367.4 L 592.0 359.6 L 599.8 363.5 L 607.5 361.4 L 615.3 356.9 L 623.1 365.3 L 630.8 364.7 L 638.6 362.8 L 646.4 364.4 L 654.1 363.6 L 661.9 356.4 L 669.7 362.1 L 677.4 366.2 L 685.2 365.1 L 693.0 362.7 L 700.8 362.3 L 708.5 362.9 L 716.3 366.7 L 724.1 361.6 L 731.8 357.7 L 739.6 365.4 L 747.4 361.6 L 755.1 356.4 L 762.9 362.9 L 770.7 360.3 L 778.4 355.1 L 786.2 353.8 L 794.0 356.4 L 801.7 355.1 L 809.5 360.3 L 817.3 360.3 L 825.0 361.6 L 832.8 359.0 L 840.6 353.8 L 848.3 349.9 L 856.1 366.7 L 863.9 361.6 L 871.7 365.4 L 879.4 364.2 L 887.2 366.7 L 895.0 366.7 L 902.7 359.0 L 910.5 364.2 L 918.3 360.3 L 926.0 362.9 L 933.8 364.2 L 941.6 360.3 L 949.3 365.4 L 957.1 361.6 L 964.9 346.1 L 972.6 334.4 L 980.4 320.2 L 988.2 318.9 L 995.9 311.2 L 1003.7 304.7 L 1011.5 303.4 L 1019.2 289.2 L 1027.0 281.5 L 1034.8 278.2 L 1042.6 277.6 L 1050.3 280.1 L 1058.1 294.7 L 1065.9 301.2 L 1073.6 307.3 L 1081.4 321.9 L 1089.2 314.4 L 1096.9 338.3 L 1104.7 352.9 L 1112.5 351.4 L 1120.2 351.9 L 1128.0 360.0" fill="none" stroke="#15803d" stroke-width="3" stroke-dasharray="8 6" stroke-linejoin="round" stroke-linecap="round"/>
<path d="M 56.0 390.0 L 63.8 378.4 L 71.5 375.8 L 79.3 374.5 L 87.1 384.8 L 94.8 384.8 L 102.6 383.5 L 110.4 383.5 L 118.1 379.7 L 125.9 381.0 L 133.7 381.0 L 141.4 377.1 L 149.2 378.4 L 157.0 378.4 L 164.8 373.2 L 172.5 370.6 L 180.3 377.1 L 188.1 374.5 L 195.8 375.8 L 203.6 373.2 L 211.4 366.7 L 219.1 365.4 L 226.9 374.5 L 234.7 374.5 L 242.4 373.2 L 250.2 378.4 L 258.0 378.4 L 265.7 377.1 L 273.5 384.8 L 281.3 387.4 L 289.0 386.1 L 296.8 382.2 L 304.6 384.8 L 312.3 383.5 L 320.1 384.8 L 327.9 384.8 L 335.7 384.8 L 343.4 383.5 L 351.2 384.8 L 359.0 386.1 L 366.7 384.8 L 374.5 384.8 L 382.3 382.2 L 390.0 375.8 L 397.8 371.9 L 405.6 356.4 L 413.3 329.3 L 421.1 329.3 L 428.9 306.0 L 436.6 281.5 L 444.4 220.7 L 452.2 185.8 L 459.9 160.0 L 467.7 170.3 L 475.5 176.8 L 483.2 185.8 L 491.0 218.1 L 498.8 254.3 L 506.6 282.8 L 514.3 295.7 L 522.1 316.3 L 529.9 330.6 L 537.6 335.7 L 545.4 329.3 L 553.2 348.7 L 560.9 355.1 L 568.7 348.7 L 576.5 365.4 L 584.2 365.4 L 592.0 359.0 L 599.8 361.6 L 607.5 359.0 L 615.3 356.4 L 623.1 364.2 L 630.8 364.2 L 638.6 362.9 L 646.4 364.2 L 654.1 362.9 L 661.9 356.4 L 669.7 361.6 L 677.4 365.4 L 685.2 365.4 L 693.0 361.6 L 700.8 362.9 L 708.5 364.2 L 716.3 366.7 L 724.1 361.6 L 731.8 357.7 L 739.6 365.4 L 747.4 361.6 L 755.1 356.4 L 762.9 362.9 L 770.7 360.3 L 778.4 355.1 L 786.2 353.8 L 794.0 356.4 L 801.7 355.1 L 809.5 360.3 L 817.3 360.3 L 825.0 361.6 L 832.8 359.0 L 840.6 353.8 L 848.3 349.9 L 856.1 366.7 L 863.9 361.6 L 871.7 365.4 L 879.4 364.2 L 887.2 366.7 L 895.0 366.7 L 902.7 359.0 L 910.5 364.2 L 918.3 360.3 L 926.0 362.9 L 933.8 364.2 L 941.6 360.3 L 949.3 365.4 L 957.1 361.6 L 964.9 346.1 L 972.6 334.4 L 980.4 320.2 L 988.2 318.9 L 995.9 311.2 L 1003.7 304.7 L 1011.5 303.4 L 1019.2 289.2 L 1027.0 281.5 L 1034.8 275.0 L 1042.6 276.3 L 1050.3 277.6 L 1058.1 290.5 L 1065.9 297.0 L 1073.6 304.7 L 1081.4 317.6 L 1089.2 311.2 L 1096.9 337.0 L 1104.7 349.9 L 1112.5 349.9 L 1120.2 348.7 L 1128.0 359.0" fill="none" stroke="#7c3aed" stroke-width="3" stroke-dasharray="8 6" stroke-linejoin="round" stroke-linecap="round"/>
<circle cx="816" cy="148" r="5" fill="#1f6feb"/>
<text x="828.0" y="153.0" fill="#6e6a63" font-size="13" font-family="Pretendard, Noto Sans KR, sans-serif" text-anchor="start">실제값</text>
<circle cx="896" cy="148" r="5" fill="#d97706"/>
<text x="908.0" y="153.0" fill="#6e6a63" font-size="13" font-family="Pretendard, Noto Sans KR, sans-serif" text-anchor="start">현재값 유지</text>
<circle cx="1016" cy="148" r="5" fill="#15803d"/>
<text x="1028.0" y="153.0" fill="#6e6a63" font-size="13" font-family="Pretendard, Noto Sans KR, sans-serif" text-anchor="start">요일 피크 보정</text>
<circle cx="1136" cy="148" r="5" fill="#7c3aed"/>
<text x="1148.0" y="153.0" fill="#6e6a63" font-size="13" font-family="Pretendard, Noto Sans KR, sans-serif" text-anchor="start">메뉴 피크 보정</text>
<text x="56.0" y="412.0" fill="#6e6a63" font-size="11" font-family="Pretendard, Noto Sans KR, sans-serif" text-anchor="middle">07:35</text>
<text x="188.1" y="412.0" fill="#6e6a63" font-size="11" font-family="Pretendard, Noto Sans KR, sans-serif" text-anchor="middle">09:10</text>
<text x="320.1" y="412.0" fill="#6e6a63" font-size="11" font-family="Pretendard, Noto Sans KR, sans-serif" text-anchor="middle">10:35</text>
<text x="452.2" y="412.0" fill="#6e6a63" font-size="11" font-family="Pretendard, Noto Sans KR, sans-serif" text-anchor="middle">12:10</text>
<text x="584.2" y="412.0" fill="#6e6a63" font-size="11" font-family="Pretendard, Noto Sans KR, sans-serif" text-anchor="middle">13:35</text>
<text x="716.3" y="412.0" fill="#6e6a63" font-size="11" font-family="Pretendard, Noto Sans KR, sans-serif" text-anchor="middle">15:00</text>
<text x="848.3" y="412.0" fill="#6e6a63" font-size="11" font-family="Pretendard, Noto Sans KR, sans-serif" text-anchor="middle">16:25</text>
<text x="980.4" y="412.0" fill="#6e6a63" font-size="11" font-family="Pretendard, Noto Sans KR, sans-serif" text-anchor="middle">17:50</text>
<text x="1112.5" y="412.0" fill="#6e6a63" font-size="11" font-family="Pretendard, Noto Sans KR, sans-serif" text-anchor="middle">19:15</text>
<text x="1128.0" y="412.0" fill="#6e6a63" font-size="11" font-family="Pretendard, Noto Sans KR, sans-serif" text-anchor="middle">19:25</text>
<text x="56.0" y="434.0" fill="#14532d" font-size="22" font-family="Pretendard, Noto Sans KR, sans-serif" text-anchor="start">30분 후 최종 규칙</text>
<line x1="56" y1="680.0" x2="1128" y2="680.0" stroke="#eee1cf" stroke-width="1"/>
<text x="42.0" y="684.0" fill="#6e6a63" font-size="12" font-family="Pretendard, Noto Sans KR, sans-serif" text-anchor="end">12.6</text>
<line x1="56" y1="622.5" x2="1128" y2="622.5" stroke="#eee1cf" stroke-width="1"/>
<text x="42.0" y="626.5" fill="#6e6a63" font-size="12" font-family="Pretendard, Noto Sans KR, sans-serif" text-anchor="end">56.7</text>
<line x1="56" y1="565.0" x2="1128" y2="565.0" stroke="#eee1cf" stroke-width="1"/>
<text x="42.0" y="569.0" fill="#6e6a63" font-size="12" font-family="Pretendard, Noto Sans KR, sans-serif" text-anchor="end">100.8</text>
<line x1="56" y1="507.5" x2="1128" y2="507.5" stroke="#eee1cf" stroke-width="1"/>
<text x="42.0" y="511.5" fill="#6e6a63" font-size="12" font-family="Pretendard, Noto Sans KR, sans-serif" text-anchor="end">144.9</text>
<line x1="56" y1="450.0" x2="1128" y2="450.0" stroke="#eee1cf" stroke-width="1"/>
<text x="42.0" y="454.0" fill="#6e6a63" font-size="12" font-family="Pretendard, Noto Sans KR, sans-serif" text-anchor="end">189.0</text>
<line x1="56" y1="680" x2="1128" y2="680" stroke="#d7c6ad" stroke-width="1.2"/>
<path d="M 56.0 675.6 L 64.1 675.6 L 72.1 675.6 L 80.2 671.7 L 88.2 673.0 L 96.3 673.0 L 104.4 670.4 L 112.4 670.4 L 120.5 665.2 L 128.5 662.6 L 136.6 669.1 L 144.7 666.5 L 152.7 667.8 L 160.8 665.2 L 168.8 658.7 L 176.9 657.4 L 185.0 666.5 L 193.0 666.5 L 201.1 665.2 L 209.1 670.4 L 217.2 670.4 L 225.3 669.1 L 233.3 676.9 L 241.4 679.5 L 249.4 678.2 L 257.5 674.3 L 265.6 676.9 L 273.6 675.6 L 281.7 676.9 L 289.7 676.9 L 297.8 676.9 L 305.9 675.6 L 313.9 676.9 L 322.0 678.2 L 330.0 676.9 L 338.1 676.9 L 346.2 674.3 L 354.2 667.8 L 362.3 663.9 L 370.3 657.4 L 378.4 648.2 L 386.5 620.8 L 394.5 620.8 L 402.6 597.4 L 410.6 572.6 L 418.7 476.1 L 426.8 450.0 L 434.8 460.4 L 442.9 467.0 L 450.9 476.1 L 459.0 508.7 L 467.1 545.2 L 475.1 573.9 L 483.2 586.9 L 491.2 607.8 L 499.3 622.1 L 507.4 627.4 L 515.4 620.8 L 523.5 640.4 L 531.5 646.9 L 539.6 640.4 L 547.7 657.4 L 555.7 657.4 L 563.8 650.8 L 571.8 653.4 L 579.9 650.8 L 588.0 648.2 L 596.0 656.1 L 604.1 656.1 L 612.2 654.7 L 620.2 656.1 L 628.3 654.7 L 636.3 648.2 L 644.4 653.4 L 652.5 657.4 L 660.5 657.4 L 668.6 653.4 L 676.6 654.7 L 684.7 656.1 L 692.8 658.7 L 700.8 653.4 L 708.9 649.5 L 716.9 657.4 L 725.0 653.4 L 733.1 648.2 L 741.1 654.7 L 749.2 652.1 L 757.2 646.9 L 765.3 645.6 L 773.4 648.2 L 781.4 646.9 L 789.5 652.1 L 797.5 652.1 L 805.6 653.4 L 813.7 650.8 L 821.7 645.6 L 829.8 641.7 L 837.8 658.7 L 845.9 653.4 L 854.0 657.4 L 862.0 656.1 L 870.1 658.7 L 878.1 658.7 L 886.2 650.8 L 894.3 656.1 L 902.3 652.1 L 910.4 654.7 L 918.4 656.1 L 926.5 652.1 L 934.6 657.4 L 942.6 653.4 L 950.7 637.8 L 958.7 626.1 L 966.8 611.7 L 974.9 610.4 L 982.9 602.6 L 991.0 596.1 L 999.0 594.8 L 1007.1 580.4 L 1015.2 572.6 L 1023.2 566.1 L 1031.3 567.4 L 1039.3 568.7 L 1047.4 581.7 L 1055.5 588.2 L 1063.5 596.1 L 1071.6 609.1 L 1079.6 602.6 L 1087.7 628.7 L 1095.8 641.7 L 1103.8 641.7 L 1111.9 640.4 L 1119.9 650.8 L 1128.0 652.1" fill="none" stroke="#1f6feb" stroke-width="3" stroke-linejoin="round" stroke-linecap="round"/>
<path d="M 56.0 680.0 L 64.1 666.5 L 72.1 664.8 L 80.2 673.9 L 88.2 673.9 L 96.3 673.3 L 104.4 674.6 L 112.4 674.8 L 120.5 671.7 L 128.5 673.6 L 136.6 675.2 L 144.7 671.2 L 152.7 673.0 L 160.8 673.1 L 168.8 668.6 L 176.9 665.3 L 185.0 670.1 L 193.0 668.2 L 201.1 669.9 L 209.1 666.9 L 217.2 661.4 L 225.3 660.8 L 233.3 668.6 L 241.4 668.0 L 249.4 666.5 L 257.5 671.4 L 265.6 670.1 L 273.6 668.6 L 281.7 675.6 L 289.7 678.5 L 297.8 677.6 L 305.9 674.3 L 313.9 676.6 L 322.0 675.1 L 330.0 675.9 L 338.1 676.1 L 346.2 674.5 L 354.2 672.6 L 362.3 673.7 L 370.3 672.4 L 378.4 661.2 L 386.5 651.7 L 394.5 634.9 L 402.6 626.4 L 410.6 611.4 L 418.7 590.7 L 426.8 569.6 L 434.8 576.1 L 442.9 566.6 L 450.9 559.4 L 459.0 522.2 L 467.1 509.5 L 475.1 495.3 L 483.2 515.1 L 491.2 522.0 L 499.3 529.6 L 507.4 554.6 L 515.4 582.9 L 523.5 605.7 L 531.5 615.1 L 539.6 628.8 L 547.7 640.7 L 555.7 642.9 L 563.8 637.0 L 571.8 653.3 L 579.9 657.7 L 588.0 653.2 L 596.0 667.2 L 604.1 666.8 L 612.2 659.7 L 620.2 661.4 L 628.3 657.5 L 636.3 653.7 L 644.4 660.3 L 652.5 659.7 L 660.5 658.8 L 668.6 659.6 L 676.6 659.4 L 684.7 652.3 L 692.8 655.7 L 700.8 658.8 L 708.9 657.9 L 716.9 654.8 L 725.0 655.5 L 733.1 657.2 L 741.1 660.4 L 749.2 655.8 L 757.2 652.5 L 765.3 659.8 L 773.4 655.7 L 781.4 651.1 L 789.5 656.8 L 797.5 653.2 L 805.6 647.8 L 813.7 646.2 L 821.7 648.2 L 829.8 646.5 L 837.8 652.0 L 845.9 651.9 L 854.0 653.9 L 862.0 651.8 L 870.1 647.2 L 878.1 644.0 L 886.2 659.6 L 894.3 654.8 L 902.3 657.2 L 910.4 656.5 L 918.4 659.6 L 926.5 659.2 L 934.6 648.9 L 942.6 651.3 L 950.7 643.1 L 958.7 642.0 L 966.8 633.6 L 974.9 627.5 L 982.9 632.4 L 991.0 630.5 L 999.0 622.3 L 1007.1 608.6 L 1015.2 601.5 L 1023.2 601.9 L 1031.3 600.2 L 1039.3 596.8 L 1047.4 597.4 L 1055.5 593.9 L 1063.5 593.3 L 1071.6 591.0 L 1079.6 593.5 L 1087.7 596.8 L 1095.8 607.5 L 1103.8 612.6 L 1111.9 617.3 L 1119.9 629.9 L 1128.0 621.2" fill="none" stroke="#d97706" stroke-width="3" stroke-dasharray="8 6" stroke-linejoin="round" stroke-linecap="round"/>
<circle cx="976" cy="438" r="5" fill="#1f6feb"/>
<text x="988.0" y="443.0" fill="#6e6a63" font-size="13" font-family="Pretendard, Noto Sans KR, sans-serif" text-anchor="start">실제값</text>
<circle cx="1076" cy="438" r="5" fill="#d97706"/>
<text x="1088.0" y="443.0" fill="#6e6a63" font-size="13" font-family="Pretendard, Noto Sans KR, sans-serif" text-anchor="start">최종 예측값</text>
<text x="56.0" y="702.0" fill="#6e6a63" font-size="11" font-family="Pretendard, Noto Sans KR, sans-serif" text-anchor="middle">08:00</text>
<text x="185.0" y="702.0" fill="#6e6a63" font-size="11" font-family="Pretendard, Noto Sans KR, sans-serif" text-anchor="middle">09:30</text>
<text x="313.9" y="702.0" fill="#6e6a63" font-size="11" font-family="Pretendard, Noto Sans KR, sans-serif" text-anchor="middle">10:50</text>
<text x="442.9" y="702.0" fill="#6e6a63" font-size="11" font-family="Pretendard, Noto Sans KR, sans-serif" text-anchor="middle">12:20</text>
<text x="571.8" y="702.0" fill="#6e6a63" font-size="11" font-family="Pretendard, Noto Sans KR, sans-serif" text-anchor="middle">13:40</text>
<text x="700.8" y="702.0" fill="#6e6a63" font-size="11" font-family="Pretendard, Noto Sans KR, sans-serif" text-anchor="middle">15:00</text>
<text x="829.8" y="702.0" fill="#6e6a63" font-size="11" font-family="Pretendard, Noto Sans KR, sans-serif" text-anchor="middle">16:20</text>
<text x="958.7" y="702.0" fill="#6e6a63" font-size="11" font-family="Pretendard, Noto Sans KR, sans-serif" text-anchor="middle">17:40</text>
<text x="1087.7" y="702.0" fill="#6e6a63" font-size="11" font-family="Pretendard, Noto Sans KR, sans-serif" text-anchor="middle">19:00</text>
<text x="1128.0" y="702.0" fill="#6e6a63" font-size="11" font-family="Pretendard, Noto Sans KR, sans-serif" text-anchor="middle">19:25</text>
<text x="56.0" y="724.0" fill="#14532d" font-size="22" font-family="Pretendard, Noto Sans KR, sans-serif" text-anchor="start">60분 후 최종 규칙</text>
<line x1="56" y1="950.0" x2="1128" y2="950.0" stroke="#eee1cf" stroke-width="1"/>
<text x="42.0" y="954.0" fill="#6e6a63" font-size="12" font-family="Pretendard, Noto Sans KR, sans-serif" text-anchor="end">13.0</text>
<line x1="56" y1="897.5" x2="1128" y2="897.5" stroke="#eee1cf" stroke-width="1"/>
<text x="42.0" y="901.5" fill="#6e6a63" font-size="12" font-family="Pretendard, Noto Sans KR, sans-serif" text-anchor="end">57.0</text>
<line x1="56" y1="845.0" x2="1128" y2="845.0" stroke="#eee1cf" stroke-width="1"/>
<text x="42.0" y="849.0" fill="#6e6a63" font-size="12" font-family="Pretendard, Noto Sans KR, sans-serif" text-anchor="end">101.0</text>
<line x1="56" y1="792.5" x2="1128" y2="792.5" stroke="#eee1cf" stroke-width="1"/>
<text x="42.0" y="796.5" fill="#6e6a63" font-size="12" font-family="Pretendard, Noto Sans KR, sans-serif" text-anchor="end">145.0</text>
<line x1="56" y1="740.0" x2="1128" y2="740.0" stroke="#eee1cf" stroke-width="1"/>
<text x="42.0" y="744.0" fill="#6e6a63" font-size="12" font-family="Pretendard, Noto Sans KR, sans-serif" text-anchor="end">189.0</text>
<line x1="56" y1="950" x2="1128" y2="950" stroke="#d7c6ad" stroke-width="1.2"/>
<path d="M 56.0 944.0 L 64.4 940.5 L 72.8 941.6 L 81.1 941.6 L 89.5 936.9 L 97.9 934.5 L 106.3 940.5 L 114.6 939.3 L 123.0 936.9 L 131.4 930.9 L 139.8 929.7 L 148.1 938.1 L 156.5 938.1 L 164.9 936.9 L 173.3 941.6 L 181.6 941.6 L 190.0 940.5 L 198.4 947.6 L 206.8 950.0 L 215.1 948.8 L 223.5 945.2 L 231.9 947.6 L 240.3 946.4 L 248.6 947.6 L 257.0 947.6 L 265.4 947.6 L 273.8 946.4 L 282.1 947.6 L 290.5 948.8 L 298.9 947.6 L 307.3 947.6 L 315.6 945.2 L 324.0 939.3 L 332.4 935.7 L 340.8 929.7 L 349.1 921.4 L 357.5 896.3 L 365.9 896.3 L 374.3 874.8 L 382.6 852.2 L 391.0 796.1 L 399.4 763.9 L 407.8 740.0 L 416.1 749.5 L 424.5 755.5 L 432.9 763.9 L 441.3 827.1 L 449.6 853.4 L 458.0 865.3 L 466.4 884.4 L 474.8 897.5 L 483.1 902.3 L 491.5 896.3 L 499.9 914.2 L 508.3 920.2 L 516.6 914.2 L 525.0 929.7 L 533.4 929.7 L 541.8 923.8 L 550.1 926.1 L 558.5 923.8 L 566.9 921.4 L 575.3 928.5 L 583.6 928.5 L 592.0 927.3 L 600.4 928.5 L 608.8 927.3 L 617.1 921.4 L 625.5 926.1 L 633.9 929.7 L 642.3 929.7 L 650.6 926.1 L 659.0 927.3 L 667.4 928.5 L 675.8 930.9 L 684.1 926.1 L 692.5 922.6 L 700.9 929.7 L 709.3 926.1 L 717.6 921.4 L 726.0 927.3 L 734.4 924.9 L 742.8 920.2 L 751.1 919.0 L 759.5 921.4 L 767.9 920.2 L 776.3 924.9 L 784.6 924.9 L 793.0 926.1 L 801.4 923.8 L 809.8 919.0 L 818.1 915.4 L 826.5 930.9 L 834.9 926.1 L 843.3 929.7 L 851.6 928.5 L 860.0 930.9 L 868.4 930.9 L 876.8 923.8 L 885.1 928.5 L 893.5 924.9 L 901.9 927.3 L 910.3 928.5 L 918.6 924.9 L 927.0 929.7 L 935.4 926.1 L 943.8 911.8 L 952.1 901.1 L 960.5 888.0 L 968.9 886.8 L 977.3 879.6 L 985.6 873.6 L 994.0 872.4 L 1002.4 859.3 L 1010.8 852.2 L 1019.1 846.2 L 1027.5 847.4 L 1035.9 848.6 L 1044.3 860.5 L 1052.6 866.5 L 1061.0 873.6 L 1069.4 885.6 L 1077.8 879.6 L 1086.1 903.5 L 1094.5 915.4 L 1102.9 915.4 L 1111.3 914.2 L 1119.6 923.8 L 1128.0 924.9" fill="none" stroke="#1f6feb" stroke-width="3" stroke-linejoin="round" stroke-linecap="round"/>
<path d="M 56.0 947.9 L 64.4 940.4 L 72.8 938.1 L 81.1 936.9 L 89.5 944.7 L 97.9 945.4 L 106.3 946.3 L 114.6 947.5 L 123.0 947.7 L 131.4 945.4 L 139.8 946.2 L 148.1 946.4 L 156.5 943.6 L 164.9 945.5 L 173.3 945.0 L 181.6 941.7 L 190.0 939.6 L 198.4 943.1 L 206.8 941.0 L 215.1 942.1 L 223.5 939.8 L 231.9 934.2 L 240.3 933.3 L 248.6 939.7 L 257.0 939.7 L 265.4 938.7 L 273.8 942.9 L 282.1 941.8 L 290.5 940.3 L 298.9 945.6 L 307.3 948.2 L 315.6 946.0 L 324.0 942.7 L 332.4 944.4 L 340.8 941.0 L 349.1 932.6 L 357.5 924.7 L 365.9 913.2 L 374.3 909.5 L 382.6 900.0 L 391.0 891.4 L 399.4 879.4 L 407.8 874.8 L 416.1 867.1 L 424.5 870.7 L 432.9 872.1 L 441.3 888.9 L 449.6 880.2 L 458.0 895.0 L 466.4 888.3 L 474.8 881.9 L 483.1 847.8 L 491.5 833.4 L 499.9 819.2 L 508.3 833.2 L 516.6 834.2 L 525.0 839.5 L 533.4 857.6 L 541.8 880.6 L 550.1 898.0 L 558.5 904.3 L 566.9 916.7 L 575.3 925.2 L 583.6 926.6 L 592.0 920.7 L 600.4 933.5 L 608.8 935.6 L 617.1 930.7 L 625.5 941.6 L 633.9 940.7 L 642.3 935.2 L 650.6 936.3 L 659.0 934.0 L 667.4 929.8 L 675.8 934.0 L 684.1 933.1 L 692.5 931.6 L 700.9 932.6 L 709.3 932.0 L 717.6 926.7 L 726.0 930.2 L 734.4 932.9 L 742.8 932.3 L 751.1 930.1 L 759.5 930.1 L 767.9 931.6 L 776.3 934.0 L 784.6 929.2 L 793.0 925.8 L 801.4 931.3 L 809.8 927.7 L 818.1 923.5 L 826.5 928.8 L 834.9 925.9 L 843.3 922.2 L 851.6 921.1 L 860.0 922.8 L 868.4 921.7 L 876.8 926.5 L 885.1 926.4 L 893.5 926.9 L 901.9 925.6 L 910.3 922.6 L 918.6 919.7 L 927.0 929.3 L 935.4 923.3 L 943.8 920.9 L 952.1 917.3 L 960.5 911.1 L 968.9 908.4 L 977.3 900.1 L 985.6 903.5 L 994.0 902.2 L 1002.4 898.4 L 1010.8 896.8 L 1019.1 893.3 L 1027.5 902.1 L 1035.9 902.8 L 1044.3 897.8 L 1052.6 895.2 L 1061.0 895.2 L 1069.4 898.8 L 1077.8 898.7 L 1086.1 897.9 L 1094.5 897.5 L 1102.9 893.9 L 1111.3 891.3 L 1119.6 890.3 L 1128.0 889.8" fill="none" stroke="#d97706" stroke-width="3" stroke-dasharray="8 6" stroke-linejoin="round" stroke-linecap="round"/>
<circle cx="976" cy="728" r="5" fill="#1f6feb"/>
<text x="988.0" y="733.0" fill="#6e6a63" font-size="13" font-family="Pretendard, Noto Sans KR, sans-serif" text-anchor="start">실제값</text>
<circle cx="1076" cy="728" r="5" fill="#d97706"/>
<text x="1088.0" y="733.0" fill="#6e6a63" font-size="13" font-family="Pretendard, Noto Sans KR, sans-serif" text-anchor="start">최종 예측값</text>
<text x="56.0" y="972.0" fill="#6e6a63" font-size="11" font-family="Pretendard, Noto Sans KR, sans-serif" text-anchor="middle">08:30</text>
<text x="190.0" y="972.0" fill="#6e6a63" font-size="11" font-family="Pretendard, Noto Sans KR, sans-serif" text-anchor="middle">09:55</text>
<text x="324.0" y="972.0" fill="#6e6a63" font-size="11" font-family="Pretendard, Noto Sans KR, sans-serif" text-anchor="middle">11:15</text>
<text x="458.0" y="972.0" fill="#6e6a63" font-size="11" font-family="Pretendard, Noto Sans KR, sans-serif" text-anchor="middle">12:45</text>
<text x="592.0" y="972.0" fill="#6e6a63" font-size="11" font-family="Pretendard, Noto Sans KR, sans-serif" text-anchor="middle">14:05</text>
<text x="726.0" y="972.0" fill="#6e6a63" font-size="11" font-family="Pretendard, Noto Sans KR, sans-serif" text-anchor="middle">15:25</text>
<text x="860.0" y="972.0" fill="#6e6a63" font-size="11" font-family="Pretendard, Noto Sans KR, sans-serif" text-anchor="middle">16:45</text>
<text x="994.0" y="972.0" fill="#6e6a63" font-size="11" font-family="Pretendard, Noto Sans KR, sans-serif" text-anchor="middle">18:05</text>
<text x="1128.0" y="972.0" fill="#6e6a63" font-size="11" font-family="Pretendard, Noto Sans KR, sans-serif" text-anchor="middle">19:25</text>
</svg>