<svg xmlns="http://www.w3.org/2000/svg" width="1200" height="980" viewBox="0 0 1200 980">
<rect width="100%" height="100%" fill="#fffaf2"/>
<rect x="24" y="20" width="1152" height="940" rx="26" fill="#fffdf9" stroke="#e7d7bf"/>
<text x="56.0" y="70.0" fill="#1f2a2e" font-size="32" font-family="Pretendard, Noto Sans KR, sans-serif" text-anchor="start">제2학생회관 · 2026-03-12 시간대별 검증</text>
<text x="56.0" y="100.0" fill="#6e6a63" font-size="15" font-family="Pretendard, Noto Sans KR, sans-serif" text-anchor="start">파란선은 실제값입니다. 첫 번째 패널에서는 5분 후 후보 방식들을 함께 비교하였습니다.</text>
<text x="56.0" y="144.0" fill="#14532d" font-size="22" font-family="Pretendard, Noto Sans KR, sans-serif" text-anchor="start">5분 후 비교</text>
<line x1="56" y1="390.0" x2="1128" y2="390.0" stroke="#eee1cf" stroke-width="1"/>
<text x="42.0" y="394.0" fill="#6e6a63" font-size="12" font-family="Pretendard, Noto Sans KR, sans-serif" text-anchor="end">39.0</text>
<line x1="56" y1="332.5" x2="1128" y2="332.5" stroke="#eee1cf" stroke-width="1"/>
<text x="42.0" y="336.5" fill="#6e6a63" font-size="12" font-family="Pretendard, Noto Sans KR, sans-serif" text-anchor="end">153.3</text>
<line x1="56" y1="275.0" x2="1128" y2="275.0" stroke="#eee1cf" stroke-width="1"/>
<text x="42.0" y="279.0" fill="#6e6a63" font-size="12" font-family="Pretendard, Noto Sans KR, sans-serif" text-anchor="end">267.5</text>
<line x1="56" y1="217.5" x2="1128" y2="217.5" stroke="#eee1cf" stroke-width="1"/>
<text x="42.0" y="221.5" fill="#6e6a63" font-size="12" font-family="Pretendard, Noto Sans KR, sans-serif" text-anchor="end">381.8</text>
<line x1="56" y1="160.0" x2="1128" y2="160.0" stroke="#eee1cf" stroke-width="1"/>
<text x="42.0" y="164.0" fill="#6e6a63" font-size="12" font-family="Pretendard, Noto Sans KR, sans-serif" text-anchor="end">496.0</text>
<line x1="56" y1="390" x2="1128" y2="390" stroke="#d7c6ad" stroke-width="1.2"/>
<path d="M 56.0 390.0 L 63.5 390.0 L 71.1 390.0 L 78.6 390.0 L 86.2 389.0 L 93.7 385.5 L 101.3 375.4 L 108.8 359.3 L 116.4 348.2 L 123.9 345.2 L 131.5 339.7 L 139.0 331.1 L 146.6 331.1 L 154.1 328.1 L 161.7 325.1 L 169.2 320.5 L 176.8 322.1 L 184.3 336.1 L 191.9 344.7 L 199.4 350.7 L 207.0 363.8 L 214.5 367.4 L 222.1 375.4 L 229.6 379.9 L 237.2 372.9 L 244.7 364.3 L 252.3 370.4 L 259.8 364.8 L 267.4 365.3 L 274.9 368.9 L 282.5 370.4 L 290.0 373.9 L 297.6 368.9 L 305.1 356.3 L 312.7 367.4 L 320.2 371.9 L 327.8 371.4 L 335.3 373.9 L 342.9 371.9 L 350.4 366.8 L 358.0 369.9 L 365.5 365.8 L 373.1 360.3 L 380.6 358.8 L 388.2 359.3 L 395.7 355.8 L 403.3 348.7 L 410.8 348.7 L 418.4 328.6 L 425.9 306.5 L 433.5 297.9 L 441.0 271.2 L 448.6 225.9 L 456.1 209.3 L 463.7 177.1 L 471.2 160.0 L 478.8 171.1 L 486.3 178.6 L 493.9 190.7 L 501.4 195.7 L 509.0 187.7 L 516.5 204.3 L 524.1 215.4 L 531.6 229.5 L 539.2 239.0 L 546.7 242.5 L 554.3 244.6 L 561.8 254.1 L 569.4 243.5 L 576.9 251.1 L 584.5 251.1 L 592.0 251.1 L 599.5 276.3 L 607.1 301.9 L 614.6 300.9 L 622.2 316.0 L 629.7 310.0 L 637.3 328.1 L 644.8 329.6 L 652.4 333.6 L 659.9 333.1 L 667.5 341.7 L 675.0 341.7 L 682.6 344.7 L 690.1 345.2 L 697.7 348.2 L 705.2 345.7 L 712.8 338.7 L 720.3 338.2 L 727.9 343.2 L 735.4 343.2 L 743.0 344.7 L 750.5 344.2 L 758.1 345.2 L 765.6 345.7 L 773.2 346.7 L 780.7 351.2 L 788.3 350.7 L 795.8 354.3 L 803.4 364.3 L 810.9 363.8 L 818.5 359.8 L 826.0 356.3 L 833.6 356.3 L 841.1 360.3 L 848.7 361.3 L 856.2 357.8 L 863.8 355.8 L 871.3 358.3 L 878.9 360.8 L 886.4 360.3 L 894.0 358.3 L 901.5 364.3 L 909.1 365.3 L 916.6 365.8 L 924.2 365.3 L 931.7 366.3 L 939.3 362.8 L 946.8 370.4 L 954.4 369.9 L 961.9 370.4 L 969.5 365.8 L 977.0 360.8 L 984.6 360.3 L 992.1 351.8 L 999.7 358.3 L 1007.2 363.8 L 1014.8 364.8 L 1022.3 365.8 L 1029.9 361.3 L 1037.4 364.3 L 1045.0 361.3 L 1052.5 355.8 L 1060.1 353.3 L 1067.6 352.3 L 1075.2 356.3 L 1082.7 359.3 L 1090.3 358.8 L 1097.8 355.3 L 1105.4 354.8 L 1112.9 339.2 L 1120.5 351.2 L 1128.0 349.7" fill="none" stroke="#1f6feb" stroke-width="3" stroke-linejoin="round" stroke-linecap="round"/>
<path d="M 56.0 390.0 L 63.5 390.0 L 71.1 390.0 L 78.6 390.0 L 86.2 390.0 L 93.7 389.0 L 101.3 385.5 L 108.8 375.4 L 116.4 359.3 L 123.9 348.2 L 131.5 345.2 L 139.0 339.7 L 146.6 331.1 L 154.1 331.1 L 161.7 328.1 L 169.2 325.1 L 176.8 320.5 L 184.3 322.1 L 191.9 336.1 L 199.4 344.7 L 207.0 350.7 L 214.5 363.8 L 222.1 367.4 L 229.6 375.4 L 237.2 379.9 L 244.7 372.9 L 252.3 364.3 L 259.8 370.4 L 267.4 364.8 L 274.9 365.3 L 282.5 368.9 L 290.0 370.4 L 297.6 373.9 L 305.1 368.9 L 312.7 356.3 L 320.2 367.4 L 327.8 371.9 L 335.3 371.4 L 342.9 373.9 L 350.4 371.9 L 358.0 366.8 L 365.5 369.9 L 373.1 365.8 L 380.6 360.3 L 388.2 358.8 L 395.7 359.3 L 403.3 355.8 L 410.8 348.7 L 418.4 348.7 L 425.9 328.6 L 433.5 306.5 L 441.0 297.9 L 448.6 271.2 L 456.1 225.9 L 463.7 209.3 L 471.2 177.1 L 478.8 160.0 L 486.3 171.1 L 493.9 178.6 L 501.4 190.7 L 509.0 195.7 L 516.5 187.7 L 524.1 204.3 L 531.6 215.4 L 539.2 229.5 L 546.7 239.0 L 554.3 242.5 L 561.8 244.6 L 569.4 254.1 L 576.9 243.5 L 584.5 251.1 L 592.0 251.1 L 599.5 251.1 L 607.1 276.3 L 614.6 301.9 L 622.2 300.9 L 629.7 316.0 L 637.3 310.0 L 644.8 328.1 L 652.4 329.6 L 659.9 333.6 L 667.5 333.1 L 675.0 341.7 L 682.6 341.7 L 690.1 344.7 L 697.7 345.2 L 705.2 348.2 L 712.8 345.7 L 720.3 338.7 L 727.9 338.2 L 735.4 343.2 L 743.0 343.2 L 750.5 344.7 L 758.1 344.2 L 765.6 345.2 L 773.2 345.7 L 780.7 346.7 L 788.3 351.2 L 795.8 350.7 L 803.4 354.3 L 810.9 364.3 L 818.5 363.8 L 826.0 359.8 L 833.6 356.3 L 841.1 356.3 L 848.7 360.3 L 856.2 361.3 L 863.8 357.8 L 871.3 355.8 L 878.9 358.3 L 886.4 360.8 L 894.0 360.3 L 901.5 358.3 L 909.1 364.3 L 916.6 365.3 L 924.2 365.8 L 931.7 365.3 L 939.3 366.3 L 946.8 362.8 L 954.4 370.4 L 961.9 369.9 L 969.5 370.4 L 977.0 365.8 L 984.6 360.8 L 992.1 360.3 L 999.7 351.8 L 1007.2 358.3 L 1014.8 363.8 L 1022.3 364.8 L 1029.9 365.8 L 1037.4 361.3 L 1045.0 364.3 L 1052.5 361.3 L 1060.1 355.8 L 1067.6 353.3 L 1075.2 352.3 L 1082.7 356.3 L 1090.3 359.3 L 1097.8 358.8 L 1105.4 355.3 L 1112.9 354.8 L 1120.5 339.2 L 1128.0 351.2" fill="none" stroke="#d97706" stroke-width="3" stroke-dasharray="8 6" stroke-linejoin="round" stroke-linecap="round"/>
<path d="M 56.0 390.0 L 63.5 390.0 L 71.1 390.0 L 78.6 390.0 L 86.2 390.0 L 93.7 389.0 L 101.3 385.5 L 108.8 375.4 L 116.4 359.3 L 123.9 348.2 L 131.5 345.2 L 139.0 339.7 L 146.6 331.1 L 154.1 331.1 L 161.7 328.1 L 169.2 325.1 L 176.8 320.5 L 184.3 322.9 L 191.9 338.2 L 199.4 348.1 L 207.0 354.2 L 214.5 367.4 L 222.1 370.2 L 229.6 376.7 L 237.2 380.5 L 244.7 372.1 L 252.3 363.0 L 259.8 368.4 L 267.4 363.1 L 274.9 364.9 L 282.5 370.5 L 290.0 370.1 L 297.6 373.2 L 305.1 368.3 L 312.7 355.0 L 320.2 367.5 L 327.8 373.7 L 335.3 372.0 L 342.9 373.4 L 350.4 372.3 L 358.0 364.9 L 365.5 367.1 L 373.1 365.8 L 380.6 360.3 L 388.2 358.8 L 395.7 359.3 L 403.3 355.8 L 410.8 348.7 L 418.4 348.7 L 425.9 328.6 L 433.5 306.5 L 441.0 297.9 L 448.6 271.2 L 456.1 225.9 L 463.7 209.3 L 471.2 177.2 L 478.8 163.0 L 486.3 177.1 L 493.9 183.3 L 501.4 195.2 L 509.0 197.7 L 516.5 190.1 L 524.1 206.3 L 531.6 217.1 L 539.2 231.6 L 546.7 244.3 L 554.3 245.5 L 561.8 247.5 L 569.4 255.7 L 576.9 244.0 L 584.5 251.4 L 592.0 254.9 L 599.5 254.9 L 607.1 279.1 L 614.6 304.4 L 622.2 302.7 L 629.7 318.8 L 637.3 312.7 L 644.8 329.6 L 652.4 330.8 L 659.9 334.2 L 667.5 334.5 L 675.0 341.7 L 682.6 342.0 L 690.1 343.8 L 697.7 344.7 L 705.2 345.7 L 712.8 345.3 L 720.3 337.0 L 727.9 338.3 L 735.4 345.2 L 743.0 343.9 L 750.5 346.5 L 758.1 343.8 L 765.6 347.1 L 773.2 344.9 L 780.7 347.9 L 788.3 350.5 L 795.8 350.8 L 803.4 354.0 L 810.9 363.6 L 818.5 363.5 L 826.0 362.9 L 833.6 357.1 L 841.1 357.3 L 848.7 360.4 L 856.2 360.5 L 863.8 358.3 L 871.3 357.6 L 878.9 359.1 L 886.4 361.2 L 894.0 359.5 L 901.5 358.4 L 909.1 365.3 L 916.6 367.4 L 924.2 366.6 L 931.7 366.0 L 939.3 366.8 L 946.8 362.4 L 954.4 369.8 L 961.9 368.5 L 969.5 369.9 L 977.0 365.3 L 984.6 359.2 L 992.1 359.1 L 999.7 351.6 L 1007.2 358.8 L 1014.8 364.0 L 1022.3 365.7 L 1029.9 367.6 L 1037.4 363.3 L 1045.0 366.5 L 1052.5 361.8 L 1060.1 356.0 L 1067.6 353.4 L 1075.2 352.2 L 1082.7 356.7 L 1090.3 359.2 L 1097.8 358.0 L 1105.4 355.7 L 1112.9 354.8 L 1120.5 339.5 L 1128.0 352.0" fill="none" stroke="#15803d" stroke-width="3" stroke-dasharray="8 6" stroke-linejoin="round" stroke-linecap="round"/>
<path d="M 56.0 390.0 L 63.5 390.0 L 71.1 390.0 L 78.6 390.0 L 86.2 390.0 L 93.7 389.0 L 101.3 385.5 L 108.8 375.4 L 116.4 359.3 L 123.9 348.2 L 131.5 345.2 L 139.0 339.7 L 146.6 331.1 L 154.1 331.1 L 161.7 328.1 L 169.2 325.1 L 176.8 320.5 L 184.3 322.1 L 191.9 336.1 L 199.4 344.7 L 207.0 350.7 L 214.5 363.8 L 222.1 367.4 L 229.6 375.4 L 237.2 379.9 L 244.7 372.9 L 252.3 364.3 L 259.8 370.4 L 267.4 364.8 L 274.9 365.3 L 282.5 368.9 L 290.0 370.4 L 297.6 373.9 L 305.1 368.9 L 312.7 356.3 L 320.2 367.4 L 327.8 371.9 L 335.3 371.4 L 342.9 373.9 L 350.4 371.9 L 358.0 366.8 L 365.5 369.9 L 373.1 365.8 L 380.6 360.3 L 388.2 358.8 L 395.7 359.3 L 403.3 355.8 L 410.8 348.7 L 418.4 348.7 L 425.9 328.6 L 433.5 306.5 L 441.0 297.9 L 448.6 271.2 L 456.1 225.9 L 463.7 209.3 L 471.2 177.1 L 478.8 160.0 L 486.3 171.1 L 493.9 178.6 L 501.4 190.7 L 509.0 195.7 L 516.5 187.7 L 524.1 204.3 L 531.6 215.4 L 539.2 229.5 L 546.7 239.0 L 554.3 242.5 L 561.8 244.6 L 569.4 254.1 L 576.9 243.5 L 584.5 251.1 L 592.0 251.1 L 599.5 251.1 L 607.1 276.3 L 614.6 301.9 L 622.2 300.9 L 629.7 316.0 L 637.3 310.0 L 644.8 328.1 L 652.4 329.6 L 659.9 333.6 L 667.5 333.1 L 675.0 341.7 L 682.6 341.7 L 690.1 344.7 L 697.7 345.2 L 705.2 348.2 L 712.8 345.7 L 720.3 338.7 L 727.9 338.2 L 735.4 343.2 L 743.0 343.2 L 750.5 344.7 L 758.1 344.2 L 765.6 345.2 L 773.2 345.7 L 780.7 346.7 L 788.3 351.2 L 795.8 350.7 L 803.4 354.3 L 810.9 364.3 L 818.5 363.8 L 826.0 359.8 L 833.6 356.3 L 841.1 356.3 L 848.7 360.3 L 856.2 361.3 L 863.8 357.8 L 871.3 355.8 L 878.9 358.3 L 886.4 360.8 L 894.0 360.3 L 901.5 358.3 L 909.1 364.3 L 916.6 365.3 L 924.2 365.8 L 931.7 365.3 L 939.3 366.3 L 946.8 362.8 L 954.4 370.4 L 961.9 369.9 L 969.5 370.4 L 977.0 365.8 L 984.6 360.8 L 992.1 360.3 L 999.7 351.8 L 1007.2 358.3 L 1014.8 363.8 L 1022.3 364.8 L 1029.9 365.8 L 1037.4 361.3 L 1045.0 364.3 L 1052.5 361.3 L 1060.1 355.8 L 1067.6 353.3 L 1075.2 352.3 L 1082.7 356.3 L 1090.3 359.3 L 1097.8 358.8 L 1105.4 355.3 L 1112.9 354.8 L 1120.5 339.2 L 1128.0 351.2" fill="none" stroke="#7c3aed" stroke-width="3" stroke-dasharray="8 6" stroke-linejoin="round" stroke-linecap="round"/>
<circle cx="816" cy="148" r="5" fill="#1f6feb"/>
<text x="828.0" y="153.0" fill="#6e6a63" font-size="13" font-family="Pretendard, Noto Sans KR, sans-serif" text-anchor="start">실제값</text>
<circle cx="896" cy="148" r="5" fill="#d97706"/>
<text x="908.0" y="153.0" fill="#6e6a63" font-size="13" font-family="Pretendard, Noto Sans KR, sans-serif" text-anchor="start">현재값 유지</text>
<circle cx="1016" cy="148" r="5" fill="#15803d"/>
<text x="1028.0" y="153.0" fill="#6e6a63" font-size="13" font-family="Pretendard, Noto Sans KR, sans-serif" text-anchor="start">요일 피크 보정</text>
<circle cx="1136" cy="148" r="5" fill="#7c3aed"/>
<text x="1148.0" y="153.0" fill="#6e6a63" font-size="13" font-family="Pretendard, Noto Sans KR, sans-serif" text-anchor="start">메뉴 피크 보정</text>
<text x="56.0" y="412.0" fill="#6e6a63" font-size="11" font-family="Pretendard, Noto Sans KR, sans-serif" text-anchor="middle">07:35</text>
<text x="184.3" y="412.0" fill="#6e6a63" font-size="11" font-family="Pretendard, Noto Sans KR, sans-serif" text-anchor="middle">09:00</text>
<text x="312.7" y="412.0" fill="#6e6a63" font-size="11" font-family="Pretendard, Noto Sans KR, sans-serif" text-anchor="middle">10:25</text>
<text x="441.0" y="412.0" fill="#6e6a63" font-size="11" font-family="Pretendard, Noto Sans KR, sans-serif" text-anchor="middle">11:50</text>
<text x="569.4" y="412.0" fill="#6e6a63" font-size="11" font-family="Pretendard, Noto Sans KR, sans-serif" text-anchor="middle">13:15</text>
<text x="697.7" y="412.0" fill="#6e6a63" font-size="11" font-family="Pretendard, Noto Sans KR, sans-serif" text-anchor="middle">14:40</text>
<text x="826.0" y="412.0" fill="#6e6a63" font-size="11" font-family="Pretendard, Noto Sans KR, sans-serif" text-anchor="middle">16:05</text>
<text x="954.4" y="412.0" fill="#6e6a63" font-size="11" font-family="Pretendard, Noto Sans KR, sans-serif" text-anchor="middle">17:30</text>
<text x="1082.7" y="412.0" fill="#6e6a63" font-size="11" font-family="Pretendard, Noto Sans KR, sans-serif" text-anchor="middle">18:55</text>
<text x="1128.0" y="412.0" fill="#6e6a63" font-size="11" font-family="Pretendard, Noto Sans KR, sans-serif" text-anchor="middle">19:25</text>
<text x="56.0" y="434.0" fill="#14532d" font-size="22" font-family="Pretendard, Noto Sans KR, sans-serif" text-anchor="start">30분 후 최종 규칙</text>
<line x1="56" y1="680.0" x2="1128" y2="680.0" stroke="#eee1cf" stroke-width="1"/>
<text x="42.0" y="684.0" fill="#6e6a63" font-size="12" font-family="Pretendard, Noto Sans KR, sans-serif" text-anchor="end">45.2</text>
<line x1="56" y1="622.5" x2="1128" y2="622.5" stroke="#eee1cf" stroke-width="1"/>
<text x="42.0" y="626.5" fill="#6e6a63" font-size="12" font-family="Pretendard, Noto Sans KR, sans-serif" text-anchor="end">157.9</text>
<line x1="56" y1="565.0" x2="1128" y2="565.0" stroke="#eee1cf" stroke-width="1"/>
<text x="42.0" y="569.0" fill="#6e6a63" font-size="12" font-family="Pretendard, Noto Sans KR, sans-serif" text-anchor="end">270.6</text>
<line x1="56" y1="507.5" x2="1128" y2="507.5" stroke="#eee1cf" stroke-width="1"/>
<text x="42.0" y="511.5" fill="#6e6a63" font-size="12" font-family="Pretendard, Noto Sans KR, sans-serif" text-anchor="end">383.3</text>
<line x1="56" y1="450.0" x2="1128" y2="450.0" stroke="#eee1cf" stroke-width="1"/>
<text x="42.0" y="454.0" fill="#6e6a63" font-size="12" font-family="Pretendard, Noto Sans KR, sans-serif" text-anchor="end">496.0</text>
<line x1="56" y1="680" x2="1128" y2="680" stroke="#d7c6ad" stroke-width="1.2"/>
<path d="M 56.0 678.6 L 63.8 668.4 L 71.6 652.0 L 79.5 640.8 L 87.3 637.7 L 95.1 632.1 L 102.9 623.5 L 110.8 623.5 L 118.6 620.4 L 126.4 617.3 L 134.2 612.7 L 142.1 614.3 L 149.9 628.6 L 157.7 637.2 L 165.5 643.4 L 173.4 656.6 L 181.2 660.2 L 189.0 668.4 L 196.8 672.9 L 204.7 665.8 L 212.5 657.1 L 220.3 663.3 L 228.1 657.6 L 236.0 658.2 L 243.8 661.7 L 251.6 663.3 L 259.4 666.8 L 267.3 661.7 L 275.1 649.0 L 282.9 660.2 L 290.7 664.8 L 298.6 664.3 L 306.4 666.8 L 314.2 664.8 L 322.0 659.7 L 329.9 662.7 L 337.7 658.7 L 345.5 653.1 L 353.3 651.5 L 361.2 652.0 L 369.0 648.5 L 376.8 641.3 L 384.6 641.3 L 392.5 620.9 L 400.3 598.5 L 408.1 589.8 L 415.9 562.7 L 423.8 516.8 L 431.6 500.0 L 439.4 467.3 L 447.2 450.0 L 455.1 461.2 L 462.9 468.9 L 470.7 481.1 L 478.5 486.2 L 486.4 478.1 L 494.2 494.9 L 502.0 506.1 L 509.8 520.4 L 517.7 530.1 L 525.5 533.7 L 533.3 535.7 L 541.1 545.4 L 549.0 534.7 L 556.8 542.3 L 564.6 542.3 L 572.4 542.3 L 580.3 567.9 L 588.1 593.9 L 595.9 592.8 L 603.7 608.2 L 611.6 602.0 L 619.4 620.4 L 627.2 621.9 L 635.0 626.0 L 642.9 625.5 L 650.7 634.2 L 658.5 634.2 L 666.3 637.2 L 674.2 637.7 L 682.0 640.8 L 689.8 638.3 L 697.6 631.1 L 705.5 630.6 L 713.3 635.7 L 721.1 635.7 L 728.9 637.2 L 736.8 636.7 L 744.6 637.7 L 752.4 638.3 L 760.2 639.3 L 768.1 643.9 L 775.9 643.4 L 783.7 646.9 L 791.5 657.1 L 799.4 656.6 L 807.2 652.5 L 815.0 649.0 L 822.8 649.0 L 830.7 653.1 L 838.5 654.1 L 846.3 650.5 L 854.1 648.5 L 862.0 651.0 L 869.8 653.6 L 877.6 653.1 L 885.4 651.0 L 893.3 657.1 L 901.1 658.2 L 908.9 658.7 L 916.7 658.2 L 924.6 659.2 L 932.4 655.6 L 940.2 663.3 L 948.0 662.7 L 955.9 663.3 L 963.7 658.7 L 971.5 653.6 L 979.3 653.1 L 987.2 644.4 L 995.0 651.0 L 1002.8 656.6 L 1010.6 657.6 L 1018.5 658.7 L 1026.3 654.1 L 1034.1 657.1 L 1041.9 654.1 L 1049.8 648.5 L 1057.6 645.9 L 1065.4 644.9 L 1073.2 649.0 L 1081.1 652.0 L 1088.9 651.5 L 1096.7 647.9 L 1104.5 647.4 L 1112.4 631.6 L 1120.2 643.9 L 1128.0 642.3" fill="none" stroke="#1f6feb" stroke-width="3" stroke-linejoin="round" stroke-linecap="round"/>
<path d="M 56.0 680.0 L 63.8 676.1 L 71.6 671.2 L 79.5 667.0 L 87.3 666.0 L 95.1 663.5 L 102.9 660.3 L 110.8 652.5 L 118.6 640.9 L 126.4 632.5 L 134.2 629.9 L 142.1 626.3 L 149.9 621.2 L 157.7 625.3 L 165.5 627.3 L 173.4 630.1 L 181.2 630.6 L 189.0 635.5 L 196.8 648.9 L 204.7 655.3 L 212.5 656.9 L 220.3 664.3 L 228.1 662.4 L 236.0 665.4 L 243.8 667.9 L 251.6 662.6 L 259.4 655.3 L 267.3 661.3 L 275.1 657.4 L 282.9 658.1 L 290.7 661.9 L 298.6 663.7 L 306.4 667.8 L 314.2 663.3 L 322.0 652.8 L 329.9 662.1 L 337.7 663.3 L 345.5 661.0 L 353.3 662.8 L 361.2 660.2 L 369.0 653.4 L 376.8 655.4 L 384.6 647.7 L 392.5 635.0 L 400.3 623.1 L 408.1 616.4 L 415.9 605.9 L 423.8 590.8 L 431.6 587.6 L 439.4 568.4 L 447.2 557.7 L 455.1 560.3 L 462.9 550.1 L 470.7 523.4 L 478.5 520.9 L 486.4 500.6 L 494.2 487.4 L 502.0 496.8 L 509.8 500.0 L 517.7 508.9 L 525.5 514.8 L 533.3 508.6 L 541.1 524.5 L 549.0 534.4 L 556.8 546.1 L 564.6 553.1 L 572.4 555.4 L 580.3 558.4 L 588.1 567.3 L 595.9 558.7 L 603.7 567.0 L 611.6 569.6 L 619.4 568.9 L 627.2 589.9 L 635.0 611.9 L 642.9 609.3 L 650.7 622.9 L 658.5 614.8 L 666.3 629.2 L 674.2 628.3 L 682.0 630.5 L 689.8 626.9 L 697.6 632.9 L 705.5 631.3 L 713.3 633.9 L 721.1 637.2 L 728.9 641.1 L 736.8 643.0 L 744.6 636.5 L 752.4 639.6 L 760.2 643.2 L 768.1 642.5 L 775.9 642.5 L 783.7 640.5 L 791.5 641.5 L 799.4 639.4 L 807.2 640.8 L 815.0 647.0 L 822.8 648.1 L 830.7 652.3 L 838.5 661.8 L 846.3 661.2 L 854.1 658.4 L 862.0 654.3 L 869.8 654.3 L 877.6 657.4 L 885.4 657.4 L 893.3 655.0 L 901.1 653.5 L 908.9 656.2 L 916.7 658.6 L 924.6 658.4 L 932.4 657.8 L 940.2 662.8 L 948.0 662.3 L 955.9 659.6 L 963.7 657.9 L 971.5 657.7 L 979.3 652.5 L 987.2 658.4 L 995.0 658.4 L 1002.8 660.5 L 1010.6 657.0 L 1018.5 653.7 L 1026.3 656.5 L 1034.1 651.9 L 1041.9 660.1 L 1049.8 665.2 L 1057.6 666.3 L 1065.4 666.6 L 1073.2 660.8 L 1081.1 662.1 L 1088.9 657.4 L 1096.7 651.0 L 1104.5 648.9 L 1112.4 647.9 L 1120.2 651.9 L 1128.0 655.1" fill="none" stroke="#d97706" stroke-width="3" stroke-dasharray="8 6" stroke-linejoin="round" stroke-linecap="round"/>
<circle cx="976" cy="438" r="5" fill="#1f6feb"/>
<text x="988.0" y="443.0" fill="#6e6a63" font-size="13" font-family="Pretendard, Noto Sans KR, sans-serif" text-anchor="start">실제값</text>
<circle cx="1076" cy="438" r="5" fill="#d97706"/>
<text x="1088.0" y="443.0" fill="#6e6a63" font-size="13" font-family="Pretendard, Noto Sans KR, sans-serif" text-anchor="start">최종 예측값</text>
<text x="56.0" y="702.0" fill="#6e6a63" font-size="11" font-family="Pretendard, Noto Sans KR, sans-serif" text-anchor="middle">08:00</text>
<text x="189.0" y="702.0" fill="#6e6a63" font-size="11" font-family="Pretendard, Noto Sans KR, sans-serif" text-anchor="middle">09:25</text>
<text x="322.0" y="702.0" fill="#6e6a63" font-size="11" font-family="Pretendard, Noto Sans KR, sans-serif" text-anchor="middle">10:50</text>
<text x="455.1" y="702.0" fill="#6e6a63" font-size="11" font-family="Pretendard, Noto Sans KR, sans-serif" text-anchor="middle">12:15</text>
<text x="588.1" y="702.0" fill="#6e6a63" font-size="11" font-family="Pretendard, Noto Sans KR, sans-serif" text-anchor="middle">13:40</text>
<text x="721.1" y="702.0" fill="#6e6a63" font-size="11" font-family="Pretendard, Noto Sans KR, sans-serif" text-anchor="middle">15:05</text>
<text x="854.1" y="702.0" fill="#6e6a63" font-size="11" font-family="Pretendard, Noto Sans KR, sans-serif" text-anchor="middle">16:30</text>
<text x="987.2" y="702.0" fill="#6e6a63" font-size="11" font-family="Pretendard, Noto Sans KR, sans-serif" text-anchor="middle">17:55</text>
<text x="1120.2" y="702.0" fill="#6e6a63" font-size="11" font-family="Pretendard, Noto Sans KR, sans-serif" text-anchor="middle">19:20</text>
<text x="1128.0" y="702.0" fill="#6e6a63" font-size="11" font-family="Pretendard, Noto Sans KR, sans-serif" text-anchor="middle">19:25</text>
<text x="56.0" y="724.0" fill="#14532d" font-size="22" font-family="Pretendard, Noto Sans KR, sans-serif" text-anchor="start">60분 후 최종 규칙</text>
<line x1="56" y1="950.0" x2="1128" y2="950.0" stroke="#eee1cf" stroke-width="1"/>
<text x="42.0" y="954.0" fill="#6e6a63" font-size="12" font-family="Pretendard, Noto Sans KR, sans-serif" text-anchor="end">59.0</text>
<line x1="56" y1="897.5" x2="1128" y2="897.5" stroke="#eee1cf" stroke-width="1"/>
<text x="42.0" y="901.5" fill="#6e6a63" font-size="12" font-family="Pretendard, Noto Sans KR, sans-serif" text-anchor="end">168.3</text>
<line x1="56" y1="845.0" x2="1128" y2="845.0" stroke="#eee1cf" stroke-width="1"/>
<text x="42.0" y="849.0" fill="#6e6a63" font-size="12" font-family="Pretendard, Noto Sans KR, sans-serif" text-anchor="end">277.5</text>
<line x1="56" y1="792.5" x2="1128" y2="792.5" stroke="#eee1cf" stroke-width="1"/>
<text x="42.0" y="796.5" fill="#6e6a63" font-size="12" font-family="Pretendard, Noto Sans KR, sans-serif" text-anchor="end">386.8</text>
<line x1="56" y1="740.0" x2="1128" y2="740.0" stroke="#eee1cf" stroke-width="1"/>
<text x="42.0" y="744.0" fill="#6e6a63" font-size="12" font-family="Pretendard, Noto Sans KR, sans-serif" text-anchor="end">496.0</text>
<line x1="56" y1="950" x2="1128" y2="950" stroke="#d7c6ad" stroke-width="1.2"/>
<path d="M 56.0 903.4 L 64.2 903.4 L 72.4 900.5 L 80.5 897.6 L 88.7 893.3 L 96.9 894.7 L 105.1 908.2 L 113.3 916.4 L 121.5 922.1 L 129.6 934.6 L 137.8 938.0 L 146.0 945.7 L 154.2 950.0 L 162.4 943.3 L 170.6 935.1 L 178.7 940.9 L 186.9 935.6 L 195.1 936.1 L 203.3 939.4 L 211.5 940.9 L 219.7 944.2 L 227.8 939.4 L 236.0 927.4 L 244.2 938.0 L 252.4 942.3 L 260.6 941.8 L 268.8 944.2 L 276.9 942.3 L 285.1 937.5 L 293.3 940.4 L 301.5 936.5 L 309.7 931.3 L 317.9 929.8 L 326.0 930.3 L 334.2 926.9 L 342.4 920.2 L 350.6 920.2 L 358.8 901.0 L 367.0 879.8 L 375.1 871.7 L 383.3 846.2 L 391.5 803.0 L 399.7 787.1 L 407.9 756.3 L 416.1 740.0 L 424.2 750.6 L 432.4 757.8 L 440.6 769.3 L 448.8 774.1 L 457.0 766.4 L 465.2 782.3 L 473.3 792.9 L 481.5 806.3 L 489.7 815.4 L 497.9 818.8 L 506.1 820.7 L 514.3 829.9 L 522.4 819.8 L 530.6 827.0 L 538.8 827.0 L 547.0 827.0 L 555.2 851.0 L 563.4 875.5 L 571.5 874.6 L 579.7 889.0 L 587.9 883.2 L 596.1 900.5 L 604.3 901.9 L 612.5 905.8 L 620.6 905.3 L 628.8 913.5 L 637.0 913.5 L 645.2 916.4 L 653.4 916.8 L 661.6 919.7 L 669.7 917.3 L 677.9 910.6 L 686.1 910.1 L 694.3 914.9 L 702.5 914.9 L 710.7 916.4 L 718.8 915.9 L 727.0 916.8 L 735.2 917.3 L 743.4 918.3 L 751.6 922.6 L 759.8 922.1 L 767.9 925.5 L 776.1 935.1 L 784.3 934.6 L 792.5 930.8 L 800.7 927.4 L 808.9 927.4 L 817.0 931.3 L 825.2 932.2 L 833.4 928.9 L 841.6 926.9 L 849.8 929.3 L 858.0 931.7 L 866.1 931.3 L 874.3 929.3 L 882.5 935.1 L 890.7 936.1 L 898.9 936.5 L 907.1 936.1 L 915.2 937.0 L 923.4 933.7 L 931.6 940.9 L 939.8 940.4 L 948.0 940.9 L 956.2 936.5 L 964.3 931.7 L 972.5 931.3 L 980.7 923.1 L 988.9 929.3 L 997.1 934.6 L 1005.3 935.6 L 1013.4 936.5 L 1021.6 932.2 L 1029.8 935.1 L 1038.0 932.2 L 1046.2 926.9 L 1054.4 924.5 L 1062.5 923.6 L 1070.7 927.4 L 1078.9 930.3 L 1087.1 929.8 L 1095.3 926.5 L 1103.5 926.0 L 1111.6 911.1 L 1119.8 922.6 L 1128.0 921.2" fill="none" stroke="#1f6feb" stroke-width="3" stroke-linejoin="round" stroke-linecap="round"/>
<path d="M 56.0 939.4 L 64.2 937.4 L 72.4 936.2 L 80.5 934.2 L 88.7 933.5 L 96.9 932.8 L 105.1 932.6 L 113.3 929.9 L 121.5 924.7 L 129.6 922.8 L 137.8 925.0 L 146.0 925.3 L 154.2 921.5 L 162.4 923.7 L 170.6 921.7 L 178.7 919.8 L 186.9 915.5 L 195.1 915.5 L 203.3 925.2 L 211.5 931.7 L 219.7 933.5 L 227.8 940.1 L 236.0 939.5 L 244.2 942.3 L 252.4 944.9 L 260.6 940.9 L 268.8 935.6 L 276.9 940.7 L 285.1 938.4 L 293.3 938.2 L 301.5 938.6 L 309.7 938.3 L 317.9 941.3 L 326.0 936.9 L 334.2 926.0 L 342.4 933.0 L 350.6 930.3 L 358.8 921.1 L 367.0 912.6 L 375.1 903.8 L 383.3 891.2 L 391.5 884.7 L 399.7 875.2 L 407.9 863.6 L 416.1 862.5 L 424.2 866.7 L 432.4 871.1 L 440.6 872.1 L 448.8 881.2 L 457.0 873.6 L 465.2 866.9 L 473.3 868.5 L 481.5 856.5 L 489.7 832.2 L 497.9 831.4 L 506.1 815.5 L 514.3 805.2 L 522.4 812.9 L 530.6 814.5 L 538.8 820.4 L 547.0 824.4 L 555.2 820.5 L 563.4 833.9 L 571.5 843.2 L 579.7 854.4 L 587.9 862.7 L 596.1 863.9 L 604.3 864.7 L 612.5 870.8 L 620.6 862.1 L 628.8 868.9 L 637.0 868.7 L 645.2 866.1 L 653.4 881.5 L 661.6 898.5 L 669.7 893.5 L 677.9 903.2 L 686.1 894.8 L 694.3 906.8 L 702.5 908.7 L 710.7 911.6 L 718.8 912.5 L 727.0 917.5 L 735.2 919.4 L 743.4 920.6 L 751.6 922.8 L 759.8 924.8 L 767.9 924.9 L 776.1 919.6 L 784.3 919.8 L 792.5 923.2 L 800.7 924.6 L 808.9 926.0 L 817.0 925.3 L 825.2 926.5 L 833.4 924.6 L 841.6 926.6 L 849.8 930.9 L 858.0 931.8 L 866.1 934.9 L 874.3 942.0 L 882.5 942.2 L 890.7 940.2 L 898.9 937.1 L 907.1 937.2 L 915.2 940.1 L 923.4 941.2 L 931.6 938.8 L 939.8 936.3 L 948.0 935.5 L 956.2 936.4 L 964.3 935.2 L 972.5 932.7 L 980.7 936.1 L 988.9 936.0 L 997.1 935.3 L 1005.3 934.5 L 1013.4 935.6 L 1021.6 934.2 L 1029.8 942.2 L 1038.0 944.2 L 1046.2 946.1 L 1054.4 943.3 L 1062.5 940.0 L 1070.7 940.8 L 1078.9 935.6 L 1087.1 940.6 L 1095.3 943.7 L 1103.5 944.7 L 1111.6 944.9 L 1119.8 940.4 L 1128.0 941.9" fill="none" stroke="#d97706" stroke-width="3" stroke-dasharray="8 6" stroke-linejoin="round" stroke-linecap="round"/>
<circle cx="976" cy="728" r="5" fill="#1f6feb"/>
<text x="988.0" y="733.0" fill="#6e6a63" font-size="13" font-family="Pretendard, Noto Sans KR, sans-serif" text-anchor="start">실제값</text>
<circle cx="1076" cy="728" r="5" fill="#d97706"/>
<text x="1088.0" y="733.0" fill="#6e6a63" font-size="13" font-family="Pretendard, Noto Sans KR, sans-serif" text-anchor="start">최종 예측값</text>
<text x="56.0" y="972.0" fill="#6e6a63" font-size="11" font-family="Pretendard, Noto Sans KR, sans-serif" text-anchor="middle">08:30</text>
<text x="186.9" y="972.0" fill="#6e6a63" font-size="11" font-family="Pretendard, Noto Sans KR, sans-serif" text-anchor="middle">09:50</text>
<text x="317.9" y="972.0" fill="#6e6a63" font-size="11" font-family="Pretendard, Noto Sans KR, sans-serif" text-anchor="middle">11:10</text>
<text x="448.8" y="972.0" fill="#6e6a63" font-size="11" font-family="Pretendard, Noto Sans KR, sans-serif" text-anchor="middle">12:30</text>
<text x="579.7" y="972.0" fill="#6e6a63" font-size="11" font-family="Pretendard, Noto Sans KR, sans-serif" text-anchor="middle">13:50</text>
<text x="710.7" y="972.0" fill="#6e6a63" font-size="11" font-family="Pretendard, Noto Sans KR, sans-serif" text-anchor="middle">15:10</text>
<text x="841.6" y="972.0" fill="#6e6a63" font-size="11" font-family="Pretendard, Noto Sans KR, sans-serif" text-anchor="middle">16:30</text>
<text x="972.5" y="972.0" fill="#6e6a63" font-size="11" font-family="Pretendard, Noto Sans KR, sans-serif" text-anchor="middle">17:50</text>
<text x="1103.5" y="972.0" fill="#6e6a63" font-size="11" font-family="Pretendard, Noto Sans KR, sans-serif" text-anchor="middle">19:10</text>
<text x="1128.0" y="972.0" fill="#6e6a63" font-size="11" font-family="Pretendard, Noto Sans KR, sans-serif" text-anchor="middle">19:25</text>
</svg>