<svg xmlns="http://www.w3.org/2000/svg" width="1200" height="980" viewBox="0 0 1200 980">
<rect width="100%" height="100%" fill="#fffaf2"/>
<rect x="24" y="20" width="1152" height="940" rx="26" fill="#fffdf9" stroke="#e7d7bf"/>
<text x="56.0" y="70.0" fill="#1f2a2e" font-size="32" font-family="Pretendard, Noto Sans KR, sans-serif" text-anchor="start">제1학생회관 · 2026-03-10 시간대별 검증</text>
<text x="56.0" y="100.0" fill="#6e6a63" font-size="15" font-family="Pretendard, Noto Sans KR, sans-serif" text-anchor="start">파란선은 실제값입니다. 첫 번째 패널에서는 5분 후 후보 방식들을 함께 비교하였습니다.</text>
<text x="56.0" y="144.0" fill="#14532d" font-size="22" font-family="Pretendard, Noto Sans KR, sans-serif" text-anchor="start">5분 후 비교</text>
<line x1="56" y1="390.0" x2="1128" y2="390.0" stroke="#eee1cf" stroke-width="1"/>
<text x="42.0" y="394.0" fill="#6e6a63" font-size="12" font-family="Pretendard, Noto Sans KR, sans-serif" text-anchor="end">46.0</text>
<line x1="56" y1="332.5" x2="1128" y2="332.5" stroke="#eee1cf" stroke-width="1"/>
<text x="42.0" y="336.5" fill="#6e6a63" font-size="12" font-family="Pretendard, Noto Sans KR, sans-serif" text-anchor="end">255.8</text>
<line x1="56" y1="275.0" x2="1128" y2="275.0" stroke="#eee1cf" stroke-width="1"/>
<text x="42.0" y="279.0" fill="#6e6a63" font-size="12" font-family="Pretendard, Noto Sans KR, sans-serif" text-anchor="end">465.5</text>
<line x1="56" y1="217.5" x2="1128" y2="217.5" stroke="#eee1cf" stroke-width="1"/>
<text x="42.0" y="221.5" fill="#6e6a63" font-size="12" font-family="Pretendard, Noto Sans KR, sans-serif" text-anchor="end">675.3</text>
<line x1="56" y1="160.0" x2="1128" y2="160.0" stroke="#eee1cf" stroke-width="1"/>
<text x="42.0" y="164.0" fill="#6e6a63" font-size="12" font-family="Pretendard, Noto Sans KR, sans-serif" text-anchor="end">885.0</text>
<line x1="56" y1="390" x2="1128" y2="390" stroke="#d7c6ad" stroke-width="1.2"/>
<path d="M 56.0 390.0 L 63.7 389.7 L 71.3 390.0 L 79.0 389.7 L 86.6 388.9 L 94.3 388.9 L 101.9 387.8 L 109.6 385.9 L 117.3 385.3 L 124.9 385.1 L 132.6 386.4 L 140.2 385.1 L 147.9 383.1 L 155.5 381.5 L 163.2 381.2 L 170.9 380.7 L 178.5 381.0 L 186.2 380.1 L 193.8 380.4 L 201.5 379.3 L 209.1 379.3 L 216.8 377.9 L 224.5 375.7 L 232.1 375.2 L 239.8 374.6 L 247.4 368.9 L 255.1 369.4 L 262.7 370.5 L 270.4 366.7 L 278.1 369.7 L 285.7 366.2 L 293.4 360.4 L 301.0 359.8 L 308.7 357.1 L 316.3 350.8 L 324.0 353.5 L 331.7 351.9 L 339.3 338.7 L 347.0 336.3 L 354.6 336.3 L 362.3 336.0 L 369.9 333.3 L 377.6 328.9 L 385.3 322.6 L 392.9 319.8 L 400.6 319.0 L 408.2 310.0 L 415.9 308.0 L 423.5 297.1 L 431.2 279.5 L 438.9 262.3 L 446.5 226.6 L 454.2 196.2 L 461.8 161.9 L 469.5 160.0 L 477.1 167.1 L 484.8 177.8 L 492.5 187.4 L 500.1 190.4 L 507.8 198.1 L 515.4 214.6 L 523.1 215.1 L 530.7 224.1 L 538.4 212.6 L 546.1 217.3 L 553.7 216.7 L 561.4 228.0 L 569.0 226.9 L 576.7 231.3 L 584.3 238.7 L 592.0 248.0 L 599.7 248.0 L 607.3 255.9 L 615.0 262.8 L 622.6 269.1 L 630.3 277.9 L 637.9 281.7 L 645.6 293.8 L 653.3 291.3 L 660.9 295.4 L 668.6 299.8 L 676.2 300.9 L 683.9 304.7 L 691.5 308.9 L 699.2 303.6 L 706.9 305.6 L 714.5 308.0 L 722.2 302.0 L 729.8 298.7 L 737.5 293.2 L 745.1 292.1 L 752.8 298.7 L 760.5 302.6 L 768.1 298.7 L 775.8 298.7 L 783.4 297.9 L 791.1 299.0 L 798.7 297.3 L 806.4 302.8 L 814.1 310.8 L 821.7 316.3 L 829.4 314.3 L 837.0 315.2 L 844.7 312.7 L 852.3 316.3 L 860.0 311.0 L 867.7 316.8 L 875.3 324.5 L 883.0 324.8 L 890.6 324.5 L 898.3 332.7 L 905.9 325.6 L 913.6 319.0 L 921.3 323.9 L 928.9 326.1 L 936.6 333.0 L 944.2 329.4 L 951.9 331.3 L 959.5 334.1 L 967.2 331.1 L 974.9 327.8 L 982.5 328.3 L 990.2 323.7 L 997.8 313.5 L 1005.5 309.4 L 1013.1 309.4 L 1020.8 314.6 L 1028.5 314.3 L 1036.1 315.7 L 1043.8 322.3 L 1051.4 325.9 L 1059.1 334.4 L 1066.7 343.1 L 1074.4 349.7 L 1082.1 350.3 L 1089.7 349.7 L 1097.4 354.1 L 1105.0 355.5 L 1112.7 357.7 L 1120.3 356.8 L 1128.0 356.8" fill="none" stroke="#1f6feb" stroke-width="3" stroke-linejoin="round" stroke-linecap="round"/>
<path d="M 56.0 389.2 L 63.7 390.0 L 71.3 389.7 L 79.0 390.0 L 86.6 389.7 L 94.3 388.9 L 101.9 388.9 L 109.6 387.8 L 117.3 385.9 L 124.9 385.3 L 132.6 385.1 L 140.2 386.4 L 147.9 385.1 L 155.5 383.1 L 163.2 381.5 L 170.9 381.2 L 178.5 380.7 L 186.2 381.0 L 193.8 380.1 L 201.5 380.4 L 209.1 379.3 L 216.8 379.3 L 224.5 377.9 L 232.1 375.7 L 239.8 375.2 L 247.4 374.6 L 255.1 368.9 L 262.7 369.4 L 270.4 370.5 L 278.1 366.7 L 285.7 369.7 L 293.4 366.2 L 301.0 360.4 L 308.7 359.8 L 316.3 357.1 L 324.0 350.8 L 331.7 353.5 L 339.3 351.9 L 347.0 338.7 L 354.6 336.3 L 362.3 336.3 L 369.9 336.0 L 377.6 333.3 L 385.3 328.9 L 392.9 322.6 L 400.6 319.8 L 408.2 319.0 L 415.9 310.0 L 423.5 308.0 L 431.2 297.1 L 438.9 279.5 L 446.5 262.3 L 454.2 226.6 L 461.8 196.2 L 469.5 161.9 L 477.1 160.0 L 484.8 167.1 L 492.5 177.8 L 500.1 187.4 L 507.8 190.4 L 515.4 198.1 L 523.1 214.6 L 530.7 215.1 L 538.4 224.1 L 546.1 212.6 L 553.7 217.3 L 561.4 216.7 L 569.0 228.0 L 576.7 226.9 L 584.3 231.3 L 592.0 238.7 L 599.7 248.0 L 607.3 248.0 L 615.0 255.9 L 622.6 262.8 L 630.3 269.1 L 637.9 277.9 L 645.6 281.7 L 653.3 293.8 L 660.9 291.3 L 668.6 295.4 L 676.2 299.8 L 683.9 300.9 L 691.5 304.7 L 699.2 308.9 L 706.9 303.6 L 714.5 305.6 L 722.2 308.0 L 729.8 302.0 L 737.5 298.7 L 745.1 293.2 L 752.8 292.1 L 760.5 298.7 L 768.1 302.6 L 775.8 298.7 L 783.4 298.7 L 791.1 297.9 L 798.7 299.0 L 806.4 297.3 L 814.1 302.8 L 821.7 310.8 L 829.4 316.3 L 837.0 314.3 L 844.7 317.9 L 852.3 312.7 L 860.0 316.3 L 867.7 311.0 L 875.3 316.8 L 883.0 324.5 L 890.6 324.8 L 898.3 324.5 L 905.9 332.7 L 913.6 325.6 L 921.3 319.0 L 928.9 323.9 L 936.6 326.1 L 944.2 333.0 L 951.9 329.4 L 959.5 331.3 L 967.2 334.1 L 974.9 331.1 L 982.5 327.8 L 990.2 328.3 L 997.8 323.7 L 1005.5 313.5 L 1013.1 309.4 L 1020.8 309.4 L 1028.5 314.6 L 1036.1 314.3 L 1043.8 315.7 L 1051.4 322.3 L 1059.1 325.9 L 1066.7 334.4 L 1074.4 343.1 L 1082.1 349.7 L 1089.7 350.3 L 1097.4 349.7 L 1105.0 354.1 L 1112.7 355.5 L 1120.3 357.7 L 1128.0 356.8" fill="none" stroke="#d97706" stroke-width="3" stroke-dasharray="8 6" stroke-linejoin="round" stroke-linecap="round"/>
<path d="M 56.0 389.2 L 63.7 390.0 L 71.3 389.7 L 79.0 390.0 L 86.6 389.7 L 94.3 388.9 L 101.9 388.9 L 109.6 387.8 L 117.3 385.9 L 124.9 385.3 L 132.6 385.1 L 140.2 386.4 L 147.9 385.1 L 155.5 383.1 L 163.2 381.5 L 170.9 381.2 L 178.5 380.7 L 186.2 381.0 L 193.8 380.1 L 201.5 380.4 L 209.1 379.3 L 216.8 379.3 L 224.5 377.9 L 232.1 375.7 L 239.8 375.2 L 247.4 374.6 L 255.1 368.9 L 262.7 369.4 L 270.4 370.5 L 278.1 366.7 L 285.7 369.7 L 293.4 366.2 L 301.0 360.4 L 308.7 359.8 L 316.3 357.1 L 324.0 350.8 L 331.7 353.5 L 339.3 351.9 L 347.0 338.7 L 354.6 336.3 L 362.3 336.3 L 369.9 332.6 L 377.6 333.3 L 385.3 328.9 L 392.9 322.6 L 400.6 319.8 L 408.2 319.0 L 415.9 310.0 L 423.5 308.0 L 431.2 297.1 L 438.9 279.5 L 446.5 262.3 L 454.2 226.6 L 461.8 196.2 L 469.5 161.9 L 477.1 160.0 L 484.8 167.7 L 492.5 181.8 L 500.1 193.9 L 507.8 193.4 L 515.4 203.3 L 523.1 218.6 L 530.7 219.0 L 538.4 226.9 L 546.1 214.9 L 553.7 215.6 L 561.4 216.7 L 569.0 228.4 L 576.7 229.6 L 584.3 233.2 L 592.0 241.8 L 599.7 251.3 L 607.3 251.7 L 615.0 258.5 L 622.6 264.1 L 630.3 273.5 L 637.9 281.1 L 645.6 282.8 L 653.3 293.7 L 660.9 291.4 L 668.6 295.9 L 676.2 300.6 L 683.9 300.7 L 691.5 305.8 L 699.2 309.0 L 706.9 303.2 L 714.5 307.3 L 722.2 307.8 L 729.8 299.4 L 737.5 298.7 L 745.1 293.2 L 752.8 292.1 L 760.5 298.7 L 768.1 302.9 L 775.8 299.2 L 783.4 299.5 L 791.1 298.7 L 798.7 299.5 L 806.4 297.7 L 814.1 304.6 L 821.7 312.9 L 829.4 317.1 L 837.0 314.4 L 844.7 319.6 L 852.3 313.8 L 860.0 317.7 L 867.7 313.1 L 875.3 316.7 L 883.0 325.1 L 890.6 325.5 L 898.3 325.6 L 905.9 333.5 L 913.6 325.1 L 921.3 319.0 L 928.9 323.4 L 936.6 326.3 L 944.2 332.0 L 951.9 329.6 L 959.5 331.0 L 967.2 334.3 L 974.9 329.1 L 982.5 327.3 L 990.2 326.2 L 997.8 323.2 L 1005.5 313.5 L 1013.1 310.0 L 1020.8 310.4 L 1028.5 316.2 L 1036.1 316.3 L 1043.8 317.7 L 1051.4 324.0 L 1059.1 328.3 L 1066.7 336.4 L 1074.4 346.0 L 1082.1 350.7 L 1089.7 351.6 L 1097.4 349.7 L 1105.0 355.2 L 1112.7 357.0 L 1120.3 358.3 L 1128.0 357.5" fill="none" stroke="#15803d" stroke-width="3" stroke-dasharray="8 6" stroke-linejoin="round" stroke-linecap="round"/>
<path d="M 56.0 389.2 L 63.7 390.0 L 71.3 389.7 L 79.0 390.0 L 86.6 389.7 L 94.3 388.9 L 101.9 388.9 L 109.6 387.8 L 117.3 385.9 L 124.9 385.3 L 132.6 385.1 L 140.2 386.4 L 147.9 385.1 L 155.5 383.1 L 163.2 381.5 L 170.9 381.2 L 178.5 380.7 L 186.2 381.0 L 193.8 380.1 L 201.5 380.4 L 209.1 379.3 L 216.8 379.3 L 224.5 377.9 L 232.1 375.7 L 239.8 375.2 L 247.4 374.6 L 255.1 368.9 L 262.7 369.4 L 270.4 370.5 L 278.1 366.7 L 285.7 369.7 L 293.4 366.2 L 301.0 360.4 L 308.7 359.8 L 316.3 357.1 L 324.0 350.8 L 331.7 353.5 L 339.3 351.9 L 347.0 338.7 L 354.6 336.3 L 362.3 336.3 L 369.9 336.0 L 377.6 333.3 L 385.3 328.9 L 392.9 322.6 L 400.6 319.8 L 408.2 319.0 L 415.9 310.0 L 423.5 308.0 L 431.2 297.1 L 438.9 279.5 L 446.5 262.3 L 454.2 226.6 L 461.8 196.2 L 469.5 161.9 L 477.1 160.0 L 484.8 167.7 L 492.5 181.8 L 500.1 193.9 L 507.8 193.4 L 515.4 203.3 L 523.1 218.6 L 530.7 219.0 L 538.4 226.9 L 546.1 214.9 L 553.7 215.6 L 561.4 216.7 L 569.0 228.4 L 576.7 229.6 L 584.3 233.2 L 592.0 241.8 L 599.7 251.3 L 607.3 251.7 L 615.0 258.5 L 622.6 264.1 L 630.3 273.5 L 637.9 281.1 L 645.6 282.8 L 653.3 293.7 L 660.9 291.4 L 668.6 295.9 L 676.2 300.6 L 683.9 300.7 L 691.5 305.8 L 699.2 309.0 L 706.9 303.2 L 714.5 307.3 L 722.2 307.8 L 729.8 299.4 L 737.5 298.7 L 745.1 293.2 L 752.8 292.1 L 760.5 298.7 L 768.1 302.6 L 775.8 298.7 L 783.4 298.7 L 791.1 297.9 L 798.7 299.0 L 806.4 297.3 L 814.1 302.8 L 821.7 310.8 L 829.4 316.3 L 837.0 314.3 L 844.7 317.9 L 852.3 312.7 L 860.0 316.3 L 867.7 311.0 L 875.3 316.8 L 883.0 324.5 L 890.6 324.8 L 898.3 324.5 L 905.9 332.7 L 913.6 325.6 L 921.3 319.0 L 928.9 323.9 L 936.6 326.1 L 944.2 333.0 L 951.9 329.4 L 959.5 331.3 L 967.2 334.1 L 974.9 331.1 L 982.5 327.8 L 990.2 328.3 L 997.8 323.7 L 1005.5 313.5 L 1013.1 309.4 L 1020.8 309.4 L 1028.5 314.6 L 1036.1 314.3 L 1043.8 315.7 L 1051.4 322.3 L 1059.1 325.9 L 1066.7 334.4 L 1074.4 343.1 L 1082.1 349.7 L 1089.7 350.3 L 1097.4 349.7 L 1105.0 354.1 L 1112.7 355.5 L 1120.3 357.7 L 1128.0 356.8" fill="none" stroke="#7c3aed" stroke-width="3" stroke-dasharray="8 6" stroke-linejoin="round" stroke-linecap="round"/>
<circle cx="816" cy="148" r="5" fill="#1f6feb"/>
<text x="828.0" y="153.0" fill="#6e6a63" font-size="13" font-family="Pretendard, Noto Sans KR, sans-serif" text-anchor="start">실제값</text>
<circle cx="896" cy="148" r="5" fill="#d97706"/>
<text x="908.0" y="153.0" fill="#6e6a63" font-size="13" font-family="Pretendard, Noto Sans KR, sans-serif" text-anchor="start">현재값 유지</text>
<circle cx="1016" cy="148" r="5" fill="#15803d"/>
<text x="1028.0" y="153.0" fill="#6e6a63" font-size="13" font-family="Pretendard, Noto Sans KR, sans-serif" text-anchor="start">요일 피크 보정</text>
<circle cx="1136" cy="148" r="5" fill="#7c3aed"/>
<text x="1148.0" y="153.0" fill="#6e6a63" font-size="13" font-family="Pretendard, Noto Sans KR, sans-serif" text-anchor="start">메뉴 피크 보정</text>
<text x="56.0" y="412.0" fill="#6e6a63" font-size="11" font-family="Pretendard, Noto Sans KR, sans-serif" text-anchor="middle">07:35</text>
<text x="186.2" y="412.0" fill="#6e6a63" font-size="11" font-family="Pretendard, Noto Sans KR, sans-serif" text-anchor="middle">09:00</text>
<text x="316.3" y="412.0" fill="#6e6a63" font-size="11" font-family="Pretendard, Noto Sans KR, sans-serif" text-anchor="middle">10:25</text>
<text x="446.5" y="412.0" fill="#6e6a63" font-size="11" font-family="Pretendard, Noto Sans KR, sans-serif" text-anchor="middle">11:50</text>
<text x="576.7" y="412.0" fill="#6e6a63" font-size="11" font-family="Pretendard, Noto Sans KR, sans-serif" text-anchor="middle">13:15</text>
<text x="706.9" y="412.0" fill="#6e6a63" font-size="11" font-family="Pretendard, Noto Sans KR, sans-serif" text-anchor="middle">14:40</text>
<text x="837.0" y="412.0" fill="#6e6a63" font-size="11" font-family="Pretendard, Noto Sans KR, sans-serif" text-anchor="middle">16:05</text>
<text x="967.2" y="412.0" fill="#6e6a63" font-size="11" font-family="Pretendard, Noto Sans KR, sans-serif" text-anchor="middle">17:40</text>
<text x="1097.4" y="412.0" fill="#6e6a63" font-size="11" font-family="Pretendard, Noto Sans KR, sans-serif" text-anchor="middle">19:05</text>
<text x="1128.0" y="412.0" fill="#6e6a63" font-size="11" font-family="Pretendard, Noto Sans KR, sans-serif" text-anchor="middle">19:25</text>
<text x="56.0" y="434.0" fill="#14532d" font-size="22" font-family="Pretendard, Noto Sans KR, sans-serif" text-anchor="start">30분 후 최종 규칙</text>
<line x1="56" y1="680.0" x2="1128" y2="680.0" stroke="#eee1cf" stroke-width="1"/>
<text x="42.0" y="684.0" fill="#6e6a63" font-size="12" font-family="Pretendard, Noto Sans KR, sans-serif" text-anchor="end">47.7</text>
<line x1="56" y1="622.5" x2="1128" y2="622.5" stroke="#eee1cf" stroke-width="1"/>
<text x="42.0" y="626.5" fill="#6e6a63" font-size="12" font-family="Pretendard, Noto Sans KR, sans-serif" text-anchor="end">257.1</text>
<line x1="56" y1="565.0" x2="1128" y2="565.0" stroke="#eee1cf" stroke-width="1"/>
<text x="42.0" y="569.0" fill="#6e6a63" font-size="12" font-family="Pretendard, Noto Sans KR, sans-serif" text-anchor="end">466.4</text>
<line x1="56" y1="507.5" x2="1128" y2="507.5" stroke="#eee1cf" stroke-width="1"/>
<text x="42.0" y="511.5" fill="#6e6a63" font-size="12" font-family="Pretendard, Noto Sans KR, sans-serif" text-anchor="end">675.7</text>
<line x1="56" y1="450.0" x2="1128" y2="450.0" stroke="#eee1cf" stroke-width="1"/>
<text x="42.0" y="454.0" fill="#6e6a63" font-size="12" font-family="Pretendard, Noto Sans KR, sans-serif" text-anchor="end">885.0</text>
<line x1="56" y1="680" x2="1128" y2="680" stroke="#d7c6ad" stroke-width="1.2"/>
<path d="M 56.0 679.4 L 63.9 678.3 L 71.9 676.4 L 79.8 675.8 L 87.8 675.5 L 95.7 676.9 L 103.6 675.5 L 111.6 673.6 L 119.5 672.0 L 127.5 671.7 L 135.4 671.1 L 143.3 671.4 L 151.3 670.6 L 159.2 670.9 L 167.2 669.8 L 175.1 669.8 L 183.1 668.4 L 191.0 666.2 L 198.9 665.6 L 206.9 665.1 L 214.8 659.3 L 222.8 659.9 L 230.7 661.0 L 238.6 657.1 L 246.6 660.2 L 254.5 656.6 L 262.5 650.8 L 270.4 650.3 L 278.3 647.5 L 286.3 641.2 L 294.2 643.9 L 302.2 642.3 L 310.1 629.1 L 318.0 626.6 L 326.0 626.6 L 333.9 626.4 L 341.9 623.6 L 349.8 619.2 L 357.7 612.9 L 365.7 610.2 L 373.6 609.3 L 381.6 600.3 L 389.5 598.3 L 397.5 587.4 L 405.4 569.8 L 413.3 552.5 L 421.3 516.8 L 429.2 486.3 L 437.2 451.9 L 445.1 450.0 L 453.0 457.1 L 461.0 467.9 L 468.9 477.5 L 476.9 480.5 L 484.8 488.2 L 492.7 504.7 L 500.7 505.2 L 508.6 514.3 L 516.6 502.7 L 524.5 507.4 L 532.4 506.9 L 540.4 518.1 L 548.3 517.0 L 556.3 521.4 L 564.2 528.8 L 572.1 538.2 L 580.1 538.2 L 588.0 546.1 L 596.0 553.0 L 603.9 559.3 L 611.9 568.1 L 619.8 572.0 L 627.7 584.1 L 635.7 581.6 L 643.6 585.7 L 651.6 590.1 L 659.5 591.2 L 667.4 595.0 L 675.4 599.2 L 683.3 593.9 L 691.3 595.9 L 699.2 598.3 L 707.1 592.3 L 715.1 589.0 L 723.0 583.5 L 731.0 582.4 L 738.9 589.0 L 746.8 592.8 L 754.8 589.0 L 762.7 589.0 L 770.7 588.2 L 778.6 589.3 L 786.5 587.6 L 794.5 593.1 L 802.4 601.1 L 810.4 606.6 L 818.3 604.7 L 826.3 605.5 L 834.2 608.2 L 842.1 603.0 L 850.1 606.6 L 858.0 601.4 L 866.0 607.1 L 873.9 615.1 L 881.8 614.8 L 889.8 623.1 L 897.7 615.9 L 905.7 609.3 L 913.6 614.3 L 921.5 616.5 L 929.5 623.3 L 937.4 619.8 L 945.4 621.7 L 953.3 624.4 L 961.2 621.4 L 969.2 618.1 L 977.1 618.7 L 985.1 614.0 L 993.0 603.8 L 1000.9 599.7 L 1008.9 599.7 L 1016.8 604.9 L 1024.8 604.7 L 1032.7 606.0 L 1040.7 612.6 L 1048.6 616.2 L 1056.5 624.7 L 1064.5 633.5 L 1072.4 640.1 L 1080.4 640.6 L 1088.3 640.1 L 1096.2 644.5 L 1104.2 645.9 L 1112.1 648.1 L 1120.1 647.2 L 1128.0 647.2" fill="none" stroke="#1f6feb" stroke-width="3" stroke-linejoin="round" stroke-linecap="round"/>
<path d="M 56.0 679.5 L 63.9 680.0 L 71.9 679.5 L 79.8 679.2 L 87.8 678.7 L 95.7 677.7 L 103.6 677.5 L 111.6 675.9 L 119.5 673.9 L 127.5 673.3 L 135.4 672.8 L 143.3 674.2 L 151.3 673.2 L 159.2 672.4 L 167.2 671.3 L 175.1 670.8 L 183.1 670.3 L 191.0 670.6 L 198.9 669.0 L 206.9 668.7 L 214.8 667.2 L 222.8 667.2 L 230.7 665.8 L 238.6 663.2 L 246.6 662.9 L 254.5 662.6 L 262.5 656.2 L 270.4 655.8 L 278.3 656.1 L 286.3 651.8 L 294.2 653.8 L 302.2 649.5 L 310.1 644.3 L 318.0 643.7 L 326.0 640.9 L 333.9 635.1 L 341.9 635.3 L 349.8 631.3 L 357.7 617.2 L 365.7 613.6 L 373.6 612.8 L 381.6 611.7 L 389.5 608.7 L 397.5 604.6 L 405.4 597.3 L 413.3 591.2 L 421.3 584.6 L 429.2 566.0 L 437.2 549.7 L 445.1 537.4 L 453.0 522.9 L 461.0 513.3 L 468.9 492.0 L 476.9 482.4 L 484.8 470.5 L 492.7 479.1 L 500.7 492.2 L 508.6 505.2 L 516.6 513.1 L 524.5 512.3 L 532.4 514.8 L 540.4 524.9 L 548.3 522.2 L 556.3 529.6 L 564.2 518.6 L 572.1 523.9 L 580.1 528.3 L 588.0 542.1 L 596.0 543.3 L 603.9 546.1 L 611.9 555.4 L 619.8 564.3 L 627.7 562.4 L 635.7 566.2 L 643.6 570.2 L 651.6 575.2 L 659.5 580.0 L 667.4 580.3 L 675.4 591.3 L 683.3 589.2 L 691.3 592.4 L 699.2 597.7 L 707.1 597.6 L 715.1 598.7 L 723.0 601.4 L 731.0 595.7 L 738.9 596.6 L 746.8 597.2 L 754.8 592.3 L 762.7 592.1 L 770.7 588.0 L 778.6 588.6 L 786.5 596.2 L 794.5 600.1 L 802.4 598.1 L 810.4 599.8 L 818.3 599.3 L 826.3 599.6 L 834.2 603.4 L 842.1 610.7 L 850.1 614.9 L 858.0 613.8 L 866.0 616.5 L 873.9 618.4 L 881.8 612.9 L 889.8 616.2 L 897.7 611.0 L 905.7 614.0 L 913.6 621.0 L 921.5 620.2 L 929.5 619.5 L 937.4 624.9 L 945.4 617.9 L 953.3 612.0 L 961.2 616.7 L 969.2 617.2 L 977.1 622.7 L 985.1 618.2 L 993.0 619.4 L 1000.9 622.1 L 1008.9 619.8 L 1016.8 619.6 L 1024.8 622.1 L 1032.7 621.8 L 1040.7 615.1 L 1048.6 613.1 L 1056.5 615.1 L 1064.5 620.9 L 1072.4 622.1 L 1080.4 622.6 L 1088.3 628.0 L 1096.2 629.6 L 1104.2 636.2 L 1112.1 643.8 L 1120.1 647.8 L 1128.0 648.1" fill="none" stroke="#d97706" stroke-width="3" stroke-dasharray="8 6" stroke-linejoin="round" stroke-linecap="round"/>
<circle cx="976" cy="438" r="5" fill="#1f6feb"/>
<text x="988.0" y="443.0" fill="#6e6a63" font-size="13" font-family="Pretendard, Noto Sans KR, sans-serif" text-anchor="start">실제값</text>
<circle cx="1076" cy="438" r="5" fill="#d97706"/>
<text x="1088.0" y="443.0" fill="#6e6a63" font-size="13" font-family="Pretendard, Noto Sans KR, sans-serif" text-anchor="start">최종 예측값</text>
<text x="56.0" y="702.0" fill="#6e6a63" font-size="11" font-family="Pretendard, Noto Sans KR, sans-serif" text-anchor="middle">08:00</text>
<text x="191.0" y="702.0" fill="#6e6a63" font-size="11" font-family="Pretendard, Noto Sans KR, sans-serif" text-anchor="middle">09:25</text>
<text x="326.0" y="702.0" fill="#6e6a63" font-size="11" font-family="Pretendard, Noto Sans KR, sans-serif" text-anchor="middle">10:50</text>
<text x="461.0" y="702.0" fill="#6e6a63" font-size="11" font-family="Pretendard, Noto Sans KR, sans-serif" text-anchor="middle">12:15</text>
<text x="596.0" y="702.0" fill="#6e6a63" font-size="11" font-family="Pretendard, Noto Sans KR, sans-serif" text-anchor="middle">13:40</text>
<text x="731.0" y="702.0" fill="#6e6a63" font-size="11" font-family="Pretendard, Noto Sans KR, sans-serif" text-anchor="middle">15:05</text>
<text x="866.0" y="702.0" fill="#6e6a63" font-size="11" font-family="Pretendard, Noto Sans KR, sans-serif" text-anchor="middle">16:35</text>
<text x="1000.9" y="702.0" fill="#6e6a63" font-size="11" font-family="Pretendard, Noto Sans KR, sans-serif" text-anchor="middle">18:05</text>
<text x="1128.0" y="702.0" fill="#6e6a63" font-size="11" font-family="Pretendard, Noto Sans KR, sans-serif" text-anchor="middle">19:25</text>
<text x="56.0" y="724.0" fill="#14532d" font-size="22" font-family="Pretendard, Noto Sans KR, sans-serif" text-anchor="start">60분 후 최종 규칙</text>
<line x1="56" y1="950.0" x2="1128" y2="950.0" stroke="#eee1cf" stroke-width="1"/>
<text x="42.0" y="954.0" fill="#6e6a63" font-size="12" font-family="Pretendard, Noto Sans KR, sans-serif" text-anchor="end">56.0</text>
<line x1="56" y1="897.5" x2="1128" y2="897.5" stroke="#eee1cf" stroke-width="1"/>
<text x="42.0" y="901.5" fill="#6e6a63" font-size="12" font-family="Pretendard, Noto Sans KR, sans-serif" text-anchor="end">263.3</text>
<line x1="56" y1="845.0" x2="1128" y2="845.0" stroke="#eee1cf" stroke-width="1"/>
<text x="42.0" y="849.0" fill="#6e6a63" font-size="12" font-family="Pretendard, Noto Sans KR, sans-serif" text-anchor="end">470.5</text>
<line x1="56" y1="792.5" x2="1128" y2="792.5" stroke="#eee1cf" stroke-width="1"/>
<text x="42.0" y="796.5" fill="#6e6a63" font-size="12" font-family="Pretendard, Noto Sans KR, sans-serif" text-anchor="end">677.8</text>
<line x1="56" y1="740.0" x2="1128" y2="740.0" stroke="#eee1cf" stroke-width="1"/>
<text x="42.0" y="744.0" fill="#6e6a63" font-size="12" font-family="Pretendard, Noto Sans KR, sans-serif" text-anchor="end">885.0</text>
<line x1="56" y1="950" x2="1128" y2="950" stroke="#d7c6ad" stroke-width="1.2"/>
<path d="M 56.0 948.0 L 64.3 946.2 L 72.6 944.7 L 80.9 944.4 L 89.2 943.9 L 97.6 944.2 L 105.9 943.4 L 114.2 943.7 L 122.5 942.7 L 130.8 942.7 L 139.1 941.4 L 147.4 939.4 L 155.7 938.9 L 164.0 938.4 L 172.3 933.0 L 180.7 933.5 L 189.0 934.6 L 197.3 931.0 L 205.6 933.8 L 213.9 930.5 L 222.2 925.2 L 230.5 924.7 L 238.8 922.1 L 247.1 916.3 L 255.4 918.9 L 263.8 917.3 L 272.1 905.2 L 280.4 902.9 L 288.7 902.9 L 297.0 902.6 L 305.3 900.1 L 313.6 896.1 L 321.9 890.2 L 330.2 887.7 L 338.5 886.9 L 346.9 878.6 L 355.2 876.8 L 363.5 866.7 L 371.8 850.5 L 380.1 834.5 L 388.4 801.6 L 396.7 773.4 L 405.0 741.8 L 413.3 740.0 L 421.6 746.6 L 430.0 756.5 L 438.3 765.3 L 446.6 768.1 L 454.9 775.2 L 463.2 790.4 L 471.5 790.9 L 479.8 799.3 L 488.1 788.6 L 496.4 792.9 L 504.7 792.4 L 513.1 802.8 L 521.4 801.8 L 529.7 805.9 L 538.0 812.7 L 546.3 821.3 L 554.6 821.3 L 562.9 828.7 L 571.2 835.0 L 579.5 840.8 L 587.8 848.9 L 596.2 852.5 L 604.5 863.6 L 612.8 861.3 L 621.1 865.1 L 629.4 869.2 L 637.7 870.2 L 646.0 873.8 L 654.3 877.6 L 662.6 872.7 L 670.9 874.5 L 679.3 876.8 L 687.6 871.2 L 695.9 868.2 L 704.2 863.1 L 712.5 862.1 L 720.8 868.2 L 729.1 871.7 L 737.4 868.2 L 745.7 868.2 L 754.0 867.4 L 762.4 868.4 L 770.7 866.9 L 779.0 872.0 L 787.3 879.3 L 795.6 884.4 L 803.9 882.6 L 812.2 883.4 L 820.5 885.9 L 828.8 881.1 L 837.1 884.4 L 845.5 879.6 L 853.8 884.9 L 862.1 892.0 L 870.4 892.3 L 878.7 892.0 L 887.0 899.6 L 895.3 893.0 L 903.6 886.9 L 911.9 893.5 L 920.2 899.9 L 928.6 896.6 L 936.9 898.3 L 945.2 900.9 L 953.5 898.1 L 961.8 895.0 L 970.1 895.5 L 978.4 891.2 L 986.7 881.9 L 995.0 878.1 L 1003.3 878.1 L 1011.7 882.9 L 1020.0 882.6 L 1028.3 883.9 L 1036.6 890.0 L 1044.9 893.3 L 1053.2 901.1 L 1061.5 909.2 L 1069.8 915.3 L 1078.1 915.8 L 1086.4 915.3 L 1094.8 919.4 L 1103.1 920.6 L 1111.4 922.6 L 1119.7 921.9 L 1128.0 921.9" fill="none" stroke="#1f6feb" stroke-width="3" stroke-linejoin="round" stroke-linecap="round"/>
<path d="M 56.0 950.0 L 64.3 949.8 L 72.6 949.2 L 80.9 948.8 L 89.2 948.2 L 97.6 947.4 L 105.9 947.5 L 114.2 947.0 L 122.5 945.8 L 130.8 945.0 L 139.1 944.6 L 147.4 945.8 L 155.7 944.2 L 164.0 943.0 L 172.3 941.7 L 180.7 941.3 L 189.0 940.7 L 197.3 940.4 L 205.6 939.2 L 213.9 939.2 L 222.2 936.7 L 230.5 936.0 L 238.8 934.2 L 247.1 931.2 L 255.4 930.3 L 263.8 929.1 L 272.1 923.8 L 280.4 923.4 L 288.7 923.4 L 297.0 919.6 L 305.3 919.1 L 313.6 913.3 L 321.9 907.0 L 330.2 905.2 L 338.5 902.2 L 346.9 896.6 L 355.2 896.2 L 363.5 892.7 L 371.8 879.7 L 380.1 873.3 L 388.4 867.3 L 396.7 856.7 L 405.0 840.8 L 413.3 835.1 L 421.6 830.3 L 430.0 830.8 L 438.3 835.4 L 446.6 836.4 L 454.9 840.4 L 463.2 839.7 L 471.5 834.1 L 479.8 829.3 L 488.1 811.2 L 496.4 800.1 L 504.7 786.3 L 513.1 789.0 L 521.4 796.9 L 529.7 806.9 L 538.0 812.8 L 546.3 813.1 L 554.6 819.7 L 562.9 831.4 L 571.2 831.2 L 579.5 836.2 L 587.8 829.7 L 596.2 834.4 L 604.5 836.3 L 612.8 844.6 L 621.1 843.6 L 629.4 845.3 L 637.7 850.1 L 646.0 854.5 L 654.3 853.0 L 662.6 856.3 L 670.9 859.1 L 679.3 864.4 L 687.6 867.4 L 695.9 865.5 L 704.2 873.5 L 712.5 870.9 L 720.8 872.7 L 729.1 875.5 L 737.4 876.1 L 745.7 879.5 L 754.0 882.4 L 762.4 879.3 L 770.7 881.5 L 779.0 882.4 L 787.3 879.7 L 795.6 881.2 L 803.9 878.0 L 812.2 877.9 L 820.5 887.6 L 828.8 886.1 L 837.1 886.8 L 845.5 887.0 L 853.8 889.1 L 862.1 887.4 L 870.4 891.7 L 878.7 897.0 L 887.0 900.5 L 895.3 899.1 L 903.6 899.3 L 911.9 900.0 L 920.2 895.0 L 928.6 895.9 L 936.9 891.2 L 945.2 893.6 L 953.5 899.6 L 961.8 897.6 L 970.1 896.4 L 978.4 899.6 L 986.7 893.4 L 995.0 888.8 L 1003.3 893.0 L 1011.7 895.9 L 1020.0 902.3 L 1028.3 902.2 L 1036.6 905.4 L 1044.9 909.3 L 1053.2 909.1 L 1061.5 910.1 L 1069.8 913.4 L 1078.1 912.5 L 1086.4 906.6 L 1094.8 903.5 L 1103.1 904.1 L 1111.4 908.6 L 1119.7 907.9 L 1128.0 908.0" fill="none" stroke="#d97706" stroke-width="3" stroke-dasharray="8 6" stroke-linejoin="round" stroke-linecap="round"/>
<circle cx="976" cy="728" r="5" fill="#1f6feb"/>
<text x="988.0" y="733.0" fill="#6e6a63" font-size="13" font-family="Pretendard, Noto Sans KR, sans-serif" text-anchor="start">실제값</text>
<circle cx="1076" cy="728" r="5" fill="#d97706"/>
<text x="1088.0" y="733.0" fill="#6e6a63" font-size="13" font-family="Pretendard, Noto Sans KR, sans-serif" text-anchor="start">최종 예측값</text>
<text x="56.0" y="972.0" fill="#6e6a63" font-size="11" font-family="Pretendard, Noto Sans KR, sans-serif" text-anchor="middle">08:30</text>
<text x="189.0" y="972.0" fill="#6e6a63" font-size="11" font-family="Pretendard, Noto Sans KR, sans-serif" text-anchor="middle">09:50</text>
<text x="321.9" y="972.0" fill="#6e6a63" font-size="11" font-family="Pretendard, Noto Sans KR, sans-serif" text-anchor="middle">11:10</text>
<text x="454.9" y="972.0" fill="#6e6a63" font-size="11" font-family="Pretendard, Noto Sans KR, sans-serif" text-anchor="middle">12:30</text>
<text x="587.8" y="972.0" fill="#6e6a63" font-size="11" font-family="Pretendard, Noto Sans KR, sans-serif" text-anchor="middle">13:50</text>
<text x="720.8" y="972.0" fill="#6e6a63" font-size="11" font-family="Pretendard, Noto Sans KR, sans-serif" text-anchor="middle">15:10</text>
<text x="853.8" y="972.0" fill="#6e6a63" font-size="11" font-family="Pretendard, Noto Sans KR, sans-serif" text-anchor="middle">16:35</text>
<text x="986.7" y="972.0" fill="#6e6a63" font-size="11" font-family="Pretendard, Noto Sans KR, sans-serif" text-anchor="middle">18:00</text>
<text x="1119.7" y="972.0" fill="#6e6a63" font-size="11" font-family="Pretendard, Noto Sans KR, sans-serif" text-anchor="middle">19:20</text>
<text x="1128.0" y="972.0" fill="#6e6a63" font-size="11" font-family="Pretendard, Noto Sans KR, sans-serif" text-anchor="middle">19:25</text>
</svg>